<?xml version="1.0" encoding="utf-8"?>
<!-- Generator: Adobe Illustrator 18.1.0, SVG Export Plug-In . SVG Version: 6.00 Build 0)  -->
<svg version="1.1" id="Ebene_1" xmlns="http://www.w3.org/2000/svg" xmlns:xlink="http://www.w3.org/1999/xlink" x="0px" y="0px"
	 viewBox="0 0 3000 3000" enable-background="new 0 0 3000 3000" xml:space="preserve">
<g>
	<g id="gcRgyD.tif">
		<g>
			<path fill="#FFFFFF" d="M2897.4,1281.5v328.8c-7,40.5-12.3,81.2-21.4,121.2c-60.8,263.6-179.4,497.5-367.6,693.1
				c-134.4,140.1-292.4,250.7-473.9,317.7c-124.7,46-256.5,84.5-387.8,97.2c-205.7,19.5-412.6,7.2-610.1-68.4
				c-12.7-4.7-30.8-8-41.7-2.7C851.1,2840.4,708.2,2914,565,2987.1h-20.5c0-157.2,0.4-314.4-0.6-471.8c-0.2-17.1-4.5-37.6-14.6-50.6
				c-26.9-34.7-57.7-66.4-87.3-98.8c-147.1-162.1-242.3-352-297.8-562.2c-16.8-63.7-27.9-128.8-41.5-193.4v-328.8
				c3.3-5.1,9-10.3,9.5-15.6c11.7-161.5,63.5-312.3,135.6-454.6c81.2-159.9,188.6-300.8,326.5-419.8
				C744.2,244.8,934.5,142,1152.1,89c60.8-14.8,122.3-27.1,183.5-40.5h328.8c5.1,3.3,10.3,9.2,15.6,9.7
				c161.9,10.1,312.3,63.7,454.6,135.6c160.1,80.8,300.8,188.4,419.8,326.5c146.5,169.9,249.1,360.4,302.5,577.6
				C2871.7,1158.8,2883.8,1220.3,2897.4,1281.5z"/>
		</g>
	</g>
	<circle fill="#FFFFFF" cx="1500" cy="1435.7" r="1422.8"/>
</g>
</svg>
