<?xml version="1.0" encoding="utf-8"?>
<!-- Generator: Adobe Illustrator 18.1.1, SVG Export Plug-In . SVG Version: 6.00 Build 0)  -->
<svg version="1.1" id="Ebene_1" xmlns="http://www.w3.org/2000/svg" xmlns:xlink="http://www.w3.org/1999/xlink" x="0px" y="0px"
	 viewBox="0 0 566.9 566.9" enable-background="new 0 0 566.9 566.9" xml:space="preserve">
<path fill="#FFFFFF" d="M286.3,189c0.7-1.7,1.4-3.5,2-5.2h-4C284.9,185.5,285.6,187.3,286.3,189z"/>
<path fill="#FFFFFF" d="M284.4,501.5l-71.2-123.4c-11.1,1.4-21.7,3-31.6,4.9l102.9,178.1L387,383.5c-9.9-2-20.4-3.7-31.5-5.1
	L284.4,501.5z"/>
<g>
	<path fill="#FFFFFF" d="M550.7,397.8c-19.9-19.9-53.3-39.4-91.7-53.4c-13.5-4.9-27.5-9.2-42.1-12.8l19.3-33.4
		c22-30.9,33.7-68.1,33.7-107.7c0-30.6-7.5-59.5-20.6-85l2.6-9.9l12.4-46.5L418,61.7l-0.1,0C384,26.8,336.7,5,284.4,5
		c-52.5,0-100.1,22-133.9,57.2l-1.8-0.5l-46.5-12.4l12.4,46.5l3.4,12.6c-12.3,24.8-19.2,52.7-19.2,82.2c0,39.6,11.6,76.8,33.7,107.7
		l19.3,33.5C87.2,347.8,41.7,374.1,18,397.8L7.4,408.4l21.1,21.1l10.6-10.6c7.5-7.5,77.7-72.8,245.2-72.8
		c167.6,0,237.8,65.4,245.2,72.8l10.6,10.6l21.1-21.1L550.7,397.8z M423,138.5h-24.1h-54.8h-32.6c7-24.2,29.4-41.9,55.8-41.9
		S416,114.3,423,138.5z M425.3,154.7C425.3,154.7,425.3,154.7,425.3,154.7c0,32-26,58.1-58.1,58.1c-15.1,0-28.8-5.8-39.1-15.2
		c-4.4-4-8.1-8.6-11.1-13.8c-5-8.6-7.8-18.5-7.8-29.1c0,0,0,0,0,0h28.3c0,17.6,14.3,31.9,31.9,31.9c17.6,0,31.9-14.3,31.9-31.9h2.1
		H425.3z M284.4,34.9c36,0,69.1,12.3,95.5,32.8c-4.1-0.6-8.3-0.9-12.6-0.9c-35.6,0-66.3,21.2-80.1,51.7
		c-13.8-30.4-44.5-51.7-80.1-51.7c-6.9,0-13.5,0.8-19.9,2.3C213.8,47.7,247.6,34.9,284.4,34.9z M288.3,183.8c-0.4,1-0.7,2-1.1,3.1
		c-0.4-1-0.8-2-1.1-3.1H288.3z M205.4,96.6c0.3,0,0.6,0,0.9,0c0.3,0,0.6,0,0.9,0c26.4,0,48.7,17.7,55.8,41.9h-30.1H178h-28.3
		C156.6,114.3,179,96.6,205.4,96.6z M147.3,154.7h24.5c0,17.6,14.3,31.9,31.9,31.9c17.6,0,31.9-14.3,31.9-31.9h1.7h28c0,0,0,0,0,0
		c0,10.6-2.9,20.5-7.8,29.1c-2.3,3.9-5,7.6-8.1,10.8c-10.6,11.2-25.5,18.1-42.1,18.1c-0.3,0-0.6,0-0.9,0c-0.3,0-0.6,0-0.9,0
		C173.3,212.7,147.3,186.7,147.3,154.7C147.3,154.7,147.3,154.7,147.3,154.7z M182.6,325.1L158,282.6l-0.8-1.3
		c-17.9-24.9-27.7-54.8-28.5-86.8c14.6,28.5,44.2,48,78.3,48c21.4,0,41-7.7,56.3-20.5l1.6,2.7l23.7,41.1l23.7-41.1l0.6-1.1
		c15,11.8,33.8,18.8,54.3,18.8c29.9,0,56.3-15,72.2-37.8c-2.4,28.1-11.9,54.4-27.9,76.6l-0.4,0.6l-24.8,43c-32-5.8-66.1-8.7-102-8.7
		C247,316.3,213,319.5,182.6,325.1z"/>
</g>
<text transform="matrix(1 0 0 1 162.2334 450.0804)" display="none" fill="#FFFFFF" font-family="'Montserrat-Bold'" font-size="68">Carowl</text>
</svg>
