<?xml version="1.0" encoding="utf-8"?>
<!-- Generator: Adobe Illustrator 18.1.1, SVG Export Plug-In . SVG Version: 6.00 Build 0)  -->
<svg version="1.1" xmlns="http://www.w3.org/2000/svg" xmlns:xlink="http://www.w3.org/1999/xlink" x="0px" y="0px"
	 viewBox="0 0 566.9 566.9" enable-background="new 0 0 566.9 566.9" xml:space="preserve">
<g id="Ebene_1">
</g>
<g id="Melon">
	<g id="XMLID_983_">
		<g id="XMLID_984_">
			<g id="XMLID_985_">
				<path id="XMLID_988_" fill="#FFE165" d="M540.2,117.2c0,48.8-13.6,94.3-37.2,133.2c-9.4,15.4-20.4,29.8-32.7,42.9
					c-46.8,49.7-113.2,80.7-186.8,80.7s-140-31-186.8-80.7c-12.3-13.1-23.3-27.4-32.7-42.9C40.3,211.5,26.7,166,26.7,117.2"/>
				<path id="XMLID_991_" fill="#FFE165" d="M540.2,111.8c0,48.8-13.6,94.3-37.2,133.2c-9.4,15.4-20.4,29.8-32.7,42.9
					c-46.8,49.7-113.2,80.7-186.8,80.7s-140-31-186.8-80.7c-12.3-13.1-23.3-27.4-32.7-42.9c-23.6-38.8-37.2-84.4-37.2-133.2H540.2z"
					/>
				<path id="XMLID_992_" fill="#FFA250" d="M283.5,395.3c-77.8,0-153-32.5-206.3-89.1c-13.6-14.4-25.7-30.3-36.1-47.3
					C14.2,214.6,0,163.8,0,111.8h53.5c0,42.2,11.5,83.4,33.3,119.3c8.4,13.8,18.3,26.7,29.3,38.4c43.9,46.6,103.4,72.3,167.4,72.3
					s123.5-25.7,167.4-72.3c11.1-11.7,20.9-24.7,29.4-38.5c21.7-35.8,33.3-77.1,33.3-119.2h53.5c0,52-14.2,102.8-41,147
					c-10.4,17-22.5,33-36.1,47.4C436.4,362.8,361.2,395.3,283.5,395.3z"/>
			</g>
			<path id="XMLID_993_" fill="#FFA250" d="M283.5,198.3c-47.8,0-92.1-19.2-124.9-53.9c-8.3-8.8-15.7-18.5-22-28.8
				c-0.8-1.2-1.5-2.5-2.2-3.8h298.2c-0.7,1.3-1.5,2.6-2.3,3.9c-6.2,10.2-13.6,19.9-21.9,28.6C375.6,179.1,331.2,198.3,283.5,198.3z"
				/>
		</g>
		<g id="XMLID_994_">
			<circle id="XMLID_995_" fill="#FFFEB9" cx="221.2" cy="137.3" r="20.1"/>
			<circle id="XMLID_996_" fill="#FFFEB9" cx="345.8" cy="137.3" r="20.1"/>
			<circle id="XMLID_997_" fill="#FFFEB9" cx="283.5" cy="160.7" r="20.1"/>
		</g>
	</g>
</g>
<g id="Lime">
	<g>
		<path fill="#88C057" d="M534.5,392.2h-1.3c-8-50.2-52.4-88.7-105.9-88.7s-97.9,38.4-105.9,88.7h-1.3c-8.4,0-15.3,8.4-15.3,18.7
			s6.9,18.7,15.3,18.7h2.1c9.9,47.9,53.2,84,105,84s95.1-36.1,105-84h2.1c8.4,0,15.3-8.4,15.3-18.7S542.9,392.2,534.5,392.2z"/>
		<path fill="#659C35" d="M304.8,410.9c0-10.3,6.9-18.7,15.3-18.7h1.3c8-50.2,52.4-88.7,105.9-88.7c2,0,4,0.2,5.9,0.3
			c-2.9-32.2-20.5-62.9-50.4-81.6c-45.4-28.4-103.4-19.3-136.8,19l-1.1-0.7c-7.1-4.5-17.4-1-22.9,7.7s-4.1,19.5,3.1,23.9l1.8,1.1
			c-17,45.9,0.5,99.4,44.5,126.9c10.7,6.7,22,11.2,33.6,13.9C304.9,413,304.8,412,304.8,410.9z"/>
		<path fill="#A4E869" d="M491.7,387.8c-3.6,0-6.4-2.9-6.4-6.4c0-16-13-29-29-29c-3.6,0-6.4-2.9-6.4-6.4s2.9-6.4,6.4-6.4
			c23.1,0,41.9,18.8,41.9,41.9C498.2,384.9,495.3,387.8,491.7,387.8z"/>
		<path fill="#A4E869" d="M287.4,249.2c-1.3,0-2.5-0.4-3.6-1.1c-2.9-2-3.7-6-1.7-9c14.1-20.7,43.1-25.6,64.7-10.9c2.9,2,3.7,6,1.7,9
			c-2,2.9-6,3.7-9,1.7c-15.7-10.7-36.6-7.3-46.8,7.5C291.5,248.2,289.4,249.2,287.4,249.2z"/>
	</g>
</g>
<g id="Banana" display="none">
	<g display="inline">
		<g>
			<path fill="#F9E280" d="M459.8,149.6c-1.1-2.1-2.2-4.3-3.5-6.4c-4.6-7.8-9.8-14.9-15.5-21.6c15.7,65.2-11.5,133.7-51.9,178.3
				C307.4,390.2,229.9,420.8,175.4,426c-13,5.3-26.2,9.5-40.6,12.9c-0.6,0.1-1.2,0.2-1.9,0.3c7.4,1.1,16.3,2,26.8,2
				c52,0,140.1-20.7,240.1-131.3C436.7,269.1,463.2,209.7,459.8,149.6z"/>
			<path fill="#F9E280" d="M111.1,432.4l-0.6,1.4c0.5,0.2,2.1,0.8,4.5,1.5C113.7,434.4,112.3,433.4,111.1,432.4z"/>
		</g>
		<g>
			<path fill="#F9D70B" d="M134.8,438.9c3.6-0.8,7.2-1.7,10.7-2.7C141.9,437.1,138.4,438,134.8,438.9z"/>
			<path fill="#E8C52E" d="M439.6,119.9l-22.7-36.2l-16.1,10.6l19.3,37c1.6,5.1,4,10.6,4,15.5c0.5,77.5-62,158.1-152,221.8
				c-37,26.2-65.4,44.4-95.2,56.7c-0.5,0.2-0.9,0.4-1.4,0.6c0,0,0,0,0,0c54.5-5.2,132-35.8,213.6-126.1
				c40.4-44.7,67.6-113.1,51.9-178.3C440.4,121.1,440,120.5,439.6,119.9z"/>
			<path fill="#F9D70B" d="M154.5,433.5c0.4-0.1,0.8-0.2,1.1-0.3C155.3,433.3,154.9,433.4,154.5,433.5z"/>
			<path fill="#F9D70B" d="M459.6,149.1c0.1,0.2,0.2,0.3,0.3,0.5c3.4,60.1-23.1,119.5-60,160.2c-100,110.6-188.2,131.3-240.1,131.3
				c-10.5,0-19.5-0.9-26.8-2c0.6-0.1,1.2-0.1,1.9-0.3c-7.9,1.8-14.4-0.3-19.7-3.6c-2.5-0.7-4.1-1.3-4.5-1.5l0.6-1.4
				c-6.6-5.4-10.9-11.8-13.6-11.9c-5.3-0.1-8.8,10.9-9.2,18.6c63.6,67.3,159.7,52,260.4-7C460.2,366.8,508.6,241.4,459.6,149.1
				L459.6,149.1z"/>
		</g>
		<path fill="#B58C30" d="M431.5,144.6l11.8-2.8c5.2-1.2,7.4-7.4,4.3-11.7c-2.4-3.4-5-6.6-7.7-9.8c-0.2-0.2-0.4-0.5-0.5-0.7
			l-18.4-29.4c-2.2-3.5-6.9-4.6-10.4-2.3l-4.2,2.7c-3.2,2.1-4.3,6.3-2.5,9.6l15.9,30.6c0.2,0.4,0.3,0.7,0.5,1.1
			c0.8,2.5,1.7,5,2.4,7.5C423.8,143.2,427.7,145.5,431.5,144.6z"/>
	</g>
</g>
<g id="Cherries">
	<g>
		<path fill="#D13834" d="M59.2,425.3c0-32.9,22.8-59.6,51.1-59.6h8.5c28.2,0,51.1,26.7,51.1,59.6c0,30.6-24.8,55.3-55.3,55.3
			S59.2,455.8,59.2,425.3z"/>
		<path fill="#ED3F32" d="M105.8,466.9c-0.3,0-0.6,0-0.9-0.1c-15.1-3.4-27.4-14.5-32.1-28.9c-0.7-2.2,0.5-4.6,2.7-5.4
			c2.2-0.7,4.6,0.5,5.4,2.7c3.7,11.4,13.9,20.5,25.9,23.2c2.3,0.5,3.7,2.8,3.2,5.1C109.5,465.5,107.7,466.9,105.8,466.9z"/>
		<path fill="#ED3F32" d="M75.9,419.3c-0.3,0-0.6,0-0.8-0.1c-2.3-0.5-3.8-2.7-3.3-5c1.2-5.8,3.3-11.2,6.3-16.1
			c1.2-2,3.8-2.6,5.9-1.4c2,1.2,2.6,3.8,1.4,5.9c-2.5,4.1-4.2,8.6-5.2,13.4C79.6,417.9,77.9,419.3,75.9,419.3z"/>
		<path fill="#ED3F32" d="M169.8,455.1c0-32.9,22.8-59.6,51.1-59.6h8.5c28.2,0,51.1,26.7,51.1,59.6c0,30.6-24.8,55.3-55.3,55.3
			S169.8,485.6,169.8,455.1z"/>
		<path fill="#ED3F32" d="M148.5,408.3c-14.1,0-25.5-11.5-25.5-25.5c0-2.3,1.9-4.3,4.3-4.3s4.3,1.9,4.3,4.3c0,9.4,7.6,17,17,17
			c2.3,0,4.3,1.9,4.3,4.3S150.9,408.3,148.5,408.3z"/>
		<path fill="#ED7161" d="M250.7,438.1c-14.1,0-25.5-11.5-25.5-25.5c0-2.3,1.9-4.3,4.3-4.3c2.3,0,4.3,1.9,4.3,4.3
			c0,9.4,7.6,17,17,17c2.3,0,4.3,1.9,4.3,4.3C254.9,436.1,253,438.1,250.7,438.1z"/>
		<path fill="#4C312C" d="M242.2,421c-0.7,0-1.4-0.2-2.1-0.5c-2.1-1.1-2.8-3.7-1.7-5.8c18-32.4,15.1-59.7-12.6-104.1
			c-6.7,46.9-48.6,84.8-83.4,84.8c-2.3,0-4.3-1.9-4.3-4.3c0-2.3,1.9-4.3,4.3-4.3c33.4,0,75.8-42,75.8-89.3c0-1.9,1.2-3.5,3-4.1
			c1.8-0.5,3.7,0.2,4.8,1.7c30.6,45.8,43.6,80.8,19.8,123.6C245.1,420.2,243.7,421,242.2,421z"/>
		<path fill="#88C057" d="M220.9,295.4c17.1,12.5,43.2,5.9,55.7-11.2C259.5,271.7,233.4,278.3,220.9,295.4z"/>
		<path fill="#659C35" d="M174.1,265.7c3.2,20.9,26.4,34.7,47.3,31.5C218.2,276.2,195,262.4,174.1,265.7z"/>
		<path fill="#ED7161" d="M215.9,498.1c-0.3,0-0.6,0-0.9-0.1c-15.1-3.4-27.4-14.5-32.1-28.9c-0.7-2.2,0.5-4.6,2.7-5.4
			s4.6,0.5,5.4,2.7c3.7,11.4,13.9,20.5,25.9,23.2c2.3,0.5,3.7,2.8,3.2,5.1C219.6,496.8,217.8,498.1,215.9,498.1z"/>
	</g>
</g>
</svg>
