<?xml version="1.0" encoding="utf-8"?>
<!-- Generator: Adobe Illustrator 18.1.1, SVG Export Plug-In . SVG Version: 6.00 Build 0)  -->
<svg version="1.1" xmlns="http://www.w3.org/2000/svg" xmlns:xlink="http://www.w3.org/1999/xlink" x="0px" y="0px"
	 viewBox="0 0 566.9 566.9" enable-background="new 0 0 566.9 566.9" xml:space="preserve">
<g id="Ebene_1">
	<g id="Ebene_1_1_">
		<polygon fill="#D3B741" points="122.7,112.1 203.8,48.9 267.7,32 316.1,35.1 367.9,53.5 411,84.4 465.7,153.7 482.6,233.1 
			454.1,328.6 389.4,434.5 365.5,474.2 339.3,479.8 308.3,479.8 294.7,495 276.2,495 258.9,487.3 245.4,476.5 224.8,475.7 
			209.9,479.6 190.6,468.8 100.5,303.2 86.7,209.2 109.8,124.4 		"/>
		<path fill="#998328" d="M110.1,183.8l-23.4,74L179.2,440l30.7,39.6H252l32.7,15.4c0,0,13.4-23.8-74.6-108.2
			C142.5,322.1,110.1,183.8,110.1,183.8z"/>
		<path fill="#EFD66A" d="M404.4,71.4l63.2,91.6l15,92l-28.5,73.6c0,0,17.8-67.3-102.8-187.9C245.6,35,192.1,58,192.1,58l137.3-19
			L404.4,71.4z"/>
		<circle fill="#FDFDFD" cx="193.7" cy="187.6" r="69.3"/>
		<circle fill="#FDFDFD" cx="378.8" cy="187" r="70.3"/>
		<path fill="#3B3A3A" d="M285.4,226.6c0.9-2.1,1.6-3.9,2.3-5.9h-4.6C283.8,222.5,284.7,224.6,285.4,226.6z"/>
		<path fill="#3B3A3A" d="M496.6,228.5c0-117.6-95.6-213.3-213.3-213.3C165.7,15.2,70,110.8,70,228.5c0,31.3,7.1,68.1,21.5,95.3l0,0
			l0.7,1.2c1,1.8,2,3.6,3.1,5.4l103.5,181.1c0,0,62.2,11.3,84.4,11.3c19.7,0,83.4-11.3,83.4-11.3L469,333.9l0,0
			C488,305,496.6,262.4,496.6,228.5z M345.4,479.8H220.2l-91.2-159l0,0c-13.1-25.2-24.6-62.5-24.6-92.3
			c0-98.6,80.3-178.9,178.9-178.9s178.9,80.3,178.9,178.9c0,29.9-11,65.2-24,90.4L345.4,479.8z"/>
		<g>
			<path fill="#EFAD2A" d="M358.9,537.7c-5.9,0-11.5-1.6-16.4-4.4c-4.9,2.8-10.5,4.4-16.4,4.4c-18,0-32.7-14.7-32.7-32.7
				c0-18,14.7-32.7,32.7-32.7c5.9,0,11.5,1.6,16.4,4.4c4.9-2.8,10.5-4.4,16.4-4.4c18,0,32.7,14.7,32.7,32.7
				C391.6,523,376.9,537.7,358.9,537.7z"/>
			<g>
				<path fill="#3B3A3A" d="M358.9,487.3c9.8,0,17.7,7.9,17.7,17.7s-7.9,17.7-17.7,17.7c-7.4,0-13.8-4.6-16.4-11.1
					c-2.6,6.5-9,11.1-16.4,11.1c-9.8,0-17.7-7.9-17.7-17.7c0-9.8,7.9-17.7,17.7-17.7c7.4,0,13.8,4.6,16.4,11.1
					C345.1,491.9,351.4,487.3,358.9,487.3 M358.9,457.3c-5.7,0-11.3,1-16.4,2.9c-5.2-1.9-10.7-2.9-16.4-2.9
					c-26.3,0-47.7,21.4-47.7,47.7c0,26.3,21.4,47.7,47.7,47.7c5.7,0,11.3-1,16.4-2.9c5.2,1.9,10.7,2.9,16.4,2.9
					c26.3,0,47.7-21.4,47.7-47.7C406.6,478.7,385.2,457.3,358.9,457.3L358.9,457.3z"/>
			</g>
		</g>
		<g>
			<path fill="#EFAD2A" d="M241.2,537.7c-5.9,0-11.5-1.6-16.4-4.4c-4.9,2.8-10.5,4.4-16.4,4.4c-18,0-32.7-14.7-32.7-32.7
				c0-18,14.7-32.7,32.7-32.7c5.9,0,11.5,1.6,16.4,4.4c4.9-2.8,10.5-4.4,16.4-4.4c18,0,32.7,14.7,32.7,32.7
				C273.9,523,259.2,537.7,241.2,537.7z"/>
			<g>
				<path fill="#3B3A3A" d="M241.2,487.3c9.8,0,17.7,7.9,17.7,17.7s-7.9,17.7-17.7,17.7c-7.4,0-13.8-4.6-16.4-11.1
					c-2.6,6.5-9,11.1-16.4,11.1c-9.8,0-17.7-7.9-17.7-17.7c0-9.8,7.9-17.7,17.7-17.7c7.4,0,13.8,4.6,16.4,11.1
					C227.4,491.9,233.7,487.3,241.2,487.3 M241.2,457.3c-5.7,0-11.3,1-16.4,2.9c-5.2-1.9-10.7-2.9-16.4-2.9
					c-26.3,0-47.7,21.4-47.7,47.7c0,26.3,21.4,47.7,47.7,47.7c5.7,0,11.3-1,16.4-2.9c5.2,1.9,10.7,2.9,16.4,2.9
					c26.3,0,47.7-21.4,47.7-47.7C288.9,478.7,267.5,457.3,241.2,457.3L241.2,457.3z"/>
			</g>
		</g>
		<circle fill="#D3B741" cx="193.7" cy="227.6" r="38.6"/>
		<circle fill="#D3B741" cx="378.8" cy="227" r="38.6"/>
		<circle fill="#3B3A3A" cx="193.7" cy="243.9" r="15.8"/>
		<circle fill="#FDFDFD" cx="197.5" cy="239.9" r="7.1"/>
		<circle fill="#3B3A3A" cx="378.8" cy="243.9" r="15.8"/>
		<circle fill="#FDFDFD" cx="382.7" cy="239.9" r="7.1"/>
		<rect x="126.5" y="116.7" fill="#EFD66A" width="135.3" height="59.5"/>
		<rect x="311" y="116.7" fill="#EFD66A" width="135.3" height="58.9"/>
		<polygon fill="#3A3A3A" points="413.3,169.4 350.3,169.4 298.7,169.4 298.7,186.8 343.6,186.8 420,186.8 455.6,186.8 455.6,169.4 
					"/>
		<polygon fill="#3A3A3A" points="230.3,169.4 167.3,169.4 115.7,169.4 115.7,186.8 160.7,186.8 237,186.8 272.6,186.8 272.6,169.4 
					"/>
		<path fill="#3B3A3A" d="M316.1,266.8c17.2,13.5,38.9,21.7,62.5,21.7c55.8,0,101.1-45.3,101.1-101.1c0-15.8-3.7-30.7-10.1-43.9
			l6.2-23.8l14.4-53.3l-53.3,14.4l-33.4,8.9c-8-2.1-16.2-3.2-24.9-3.2c-40.8,0-76,24.3-92.1,59.3c-15.9-34.9-51.1-59.3-92.1-59.3
			c-10.1,0-19.9,1.6-29.3,4.3l-38-10.1L73.8,66.3l14.4,53.3l9.8,37.1c-3.2,9.6-4.8,19.9-4.8,30.7c0,55.8,45.3,101.1,101.1,101.1
			c24.5,0,47-8.9,64.7-23.5l1.9,3.1l27.2,47.1l27.2-47.1l0.7-1.1 M252.2,220.8c-2.5,4.6-5.7,8.7-9.4,12.4
			C230.7,246,213.5,254,194.5,254c-0.2,0-0.7,0-0.9,0s-0.7,0-0.9,0c-36.8,0-66.8-30-66.8-66.8s30-66.8,66.8-66.8c0.2,0,0.7,0,0.9,0
			s0.7,0,0.9,0c36.8,0,66.8,30,66.8,66.8C261.2,199.7,258,210.9,252.2,220.8z M378.5,254.2c-17.4,0-33.2-6.6-45.1-17.4
			c-5-4.6-9.4-9.8-12.8-15.8c-5.7-9.8-8.9-21.3-8.9-33.4c0-36.8,30-66.8,66.8-66.8s66.8,30,66.8,66.8
			C445.4,224.4,415.4,254.2,378.5,254.2z"/>
	</g>
	<g id="Ebene_3" display="none">
		<polygon display="inline" fill="#5F7A92" points="740.7,30.4 845.9,-51.6 928.9,-73.6 991.8,-69.6 1059,-45.6 1115,-5.6 
			1186,84.4 1208,187.4 1171,311.4 1087,448.9 1056,500.4 1021.9,507.7 981.7,507.7 964,527.4 939.9,527.4 917.4,517.4 899.9,503.4 
			873.1,502.4 853.9,507.4 828.8,493.4 711.9,278.4 693.9,156.4 723.9,46.4 		"/>
		<path display="inline" fill="#3E5464" d="M724.3,123.4l-30.4,96L814,456l39.9,51.4h54.6l42.4,20c0,0,17.4-30.9-96.8-140.4
			C766.4,302.9,724.3,123.4,724.3,123.4z"/>
		<path display="inline" fill="#709DBD" d="M1106.4-22.5l82.1,118.9l19.4,119.4l-37,95.6c0,0,23.1-87.4-133.4-243.9
			C900.2-69.8,830.7-39.8,830.7-39.8l178.3-24.7L1106.4-22.5z"/>
		<circle display="inline" fill="#FDFDFD" cx="832.8" cy="128.3" r="90"/>
		<circle display="inline" fill="#FDFDFD" cx="1073.2" cy="127.6" r="91.3"/>
		<g display="inline">
			<g>
				<path fill="#3B3A3A" d="M952,179c-8,18.7-19.9,35-35,48.1l3.3,5.3l35.3,61.2l35.3-61.2l0.9-1.5C974.5,217.3,960.9,199.5,952,179
					z"/>
				<path fill="#3B3A3A" d="M952,179c1.2-2.7,2.1-5,3-7.7h-5.9C949.9,173.7,951.1,176.3,952,179z"/>
			</g>
		</g>
		<path display="inline" fill="#3B3A3A" d="M1199.1,39.7l18.7-69.2l-69.2,18.7l-43.4,11.6c-10.4-2.7-21.1-4.2-32.4-4.2
			c-52.9,0-98.7,31.6-119.5,76.9C932.6,28.2,886.8-3.3,833.6-3.3c-13.1,0-25.8,2.1-38,5.6l-49.3-13.1l-69.2-18.7l18.7,69.2
			l12.8,48.1c-4.2,12.5-6.2,25.8-6.2,39.8c0,72.5,58.8,131.3,131.3,131.3c32.7,0,62.7-12.2,85.8-32.1c14.3-12.3,26-27.6,33.7-45
			c8.7,19.2,22.1,35.9,38.4,48.9c22.3,17.5,50.5,28.2,81.1,28.2c72.5,0,131.3-58.8,131.3-131.3c0-20.5-4.8-39.8-13.1-57L1199.1,39.7
			z M908.8,171c-3.3,5.9-7.4,11.3-12.2,16c-15.7,16.6-38,27-62.7,27c-0.3,0-0.9,0-1.2,0c-0.3,0-0.9,0-1.2,0
			c-47.8,0-86.7-38.9-86.7-86.7s38.9-86.7,86.7-86.7c0.3,0,0.9,0,1.2,0c0.3,0,0.9,0,1.2,0c47.8,0,86.7,38.9,86.7,86.7
			C920.4,143.7,916.2,158.2,908.8,171z M953.3,79.8c0,0.1,0.1,0.2,0.1,0.3C953.4,80,953.3,79.9,953.3,79.8L953.3,79.8z
			 M1072.8,214.4c-22.6,0-43.1-8.6-58.5-22.6c-6.5-5.9-12.2-12.8-16.6-20.5c-7.4-12.8-11.6-27.6-11.6-43.4
			c0-47.8,38.9-86.7,86.7-86.7c47.8,0,86.7,38.9,86.7,86.7S1120.7,214.4,1072.8,214.4z"/>
		<path display="inline" fill="#3B3A3A" d="M1226.1,181.4c0-152.7-124.2-276.8-276.8-276.8S672.4,28.7,672.4,181.4
			c0,40.6,9.3,88.4,27.8,123.8h-0.1l0.9,1.5c1.3,2.4,2.6,4.7,4,6.9l134.3,235.1c0,0,80.7,14.6,109.6,14.6
			c25.6,0,108.3-14.6,108.3-14.6l133.1-230.4l0,0C1215,280.7,1226.1,225.4,1226.1,181.4z M1029.8,507.7H867.2L748.8,301.2l0,0
			c-17-32.6-31.9-81.1-31.9-119.8c0-128,104.3-232.3,232.3-232.3s232.3,104.3,232.3,232.3c0,38.7-14.2,84.6-31.2,117.3L1029.8,507.7
			z"/>
		<g display="inline">
			<path fill="#ECE42D" d="M1047.3,578.4c-7.8,0-15.2-2.3-21.3-6.5c-6.1,4.2-13.5,6.5-21.3,6.5c-21,0-38-17-38-38s17-38,38-38
				c7.8,0,15.2,2.3,21.3,6.5c6.1-4.2,13.5-6.5,21.3-6.5c21,0,38,17,38,38S1068.3,578.4,1047.3,578.4z"/>
			<g>
				<path fill="#3B3A3A" d="M1047.3,517.4c12.7,0,23,10.3,23,23s-10.3,23-23,23c-9.6,0-17.9-5.9-21.3-14.4
					c-3.4,8.4-11.7,14.4-21.3,14.4c-12.7,0-23-10.3-23-23s10.3-23,23-23c9.6,0,17.9,5.9,21.3,14.4
					C1029.4,523.3,1037.7,517.4,1047.3,517.4 M1047.3,487.4c-7.5,0-14.7,1.6-21.3,4.4c-6.6-2.9-13.8-4.4-21.3-4.4
					c-29.2,0-53,23.8-53,53c0,29.2,23.8,53,53,53c7.5,0,14.7-1.6,21.3-4.4c6.6,2.9,13.8,4.4,21.3,4.4c29.2,0,53-23.8,53-53
					C1100.3,511.1,1076.5,487.4,1047.3,487.4L1047.3,487.4z"/>
			</g>
		</g>
		<g display="inline">
			<path fill="#ECE42D" d="M894.4,578.4c-7.8,0-15.2-2.3-21.3-6.5c-6.1,4.2-13.5,6.5-21.3,6.5c-21,0-38-17-38-38s17-38,38-38
				c7.8,0,15.2,2.3,21.3,6.5c6.1-4.2,13.5-6.5,21.3-6.5c21,0,38,17,38,38S915.4,578.4,894.4,578.4z"/>
			<g>
				<path fill="#3B3A3A" d="M894.4,517.4c12.7,0,23,10.3,23,23s-10.3,23-23,23c-9.6,0-17.9-5.9-21.3-14.4
					c-3.4,8.4-11.7,14.4-21.3,14.4c-12.7,0-23-10.3-23-23s10.3-23,23-23c9.6,0,17.9,5.9,21.3,14.4
					C876.5,523.3,884.8,517.4,894.4,517.4 M894.4,487.4c-7.5,0-14.7,1.6-21.3,4.4c-6.6-2.9-13.8-4.4-21.3-4.4c-29.2,0-53,23.8-53,53
					c0,29.2,23.8,53,53,53c7.5,0,14.7-1.6,21.3-4.4c6.6,2.9,13.8,4.4,21.3,4.4c29.2,0,53-23.8,53-53
					C947.5,511.1,923.7,487.4,894.4,487.4L894.4,487.4z"/>
			</g>
		</g>
		<circle display="inline" fill="#5F7A92" cx="832.8" cy="128.3" r="50.1"/>
		<circle display="inline" fill="#5F7A92" cx="1073.2" cy="127.6" r="50.1"/>
		<circle display="inline" fill="#3B3A3A" cx="832.8" cy="128.3" r="20.5"/>
		<circle display="inline" fill="#FDFDFD" cx="837.8" cy="123.3" r="9.2"/>
		<circle display="inline" fill="#3B3A3A" cx="1073.2" cy="127.6" r="20.5"/>
		<circle display="inline" fill="#FDFDFD" cx="1078.2" cy="122.6" r="9.2"/>
	</g>
	<g id="Ebene_4" display="none">
		<polygon display="inline" fill="#D85B4B" points="754.7,140.2 859.9,58.2 942.9,36.2 1005.8,40.2 1073,64.2 1129,104.2 
			1200,194.2 1222,297.2 1185,421.2 1101,558.7 1070,610.2 1035.9,617.5 995.7,617.5 978,637.2 954,637.2 931.4,627.2 913.9,613.2 
			887.1,612.2 867.9,617.2 842.8,603.2 725.9,388.2 707.9,266.2 737.9,156.2 		"/>
		<path display="inline" fill="#B64A41" d="M738.3,233.2l-30.4,96L828,565.8l39.9,51.4h54.6l42.4,20c0,0,17.4-30.9-96.8-140.4
			C780.4,412.7,738.3,233.2,738.3,233.2z"/>
		<path display="inline" fill="#EC6762" d="M1120.5,87.3l82.1,118.9l19.4,119.4l-37,95.6c0,0,23.1-87.4-133.4-243.9
			C914.2,40.1,844.7,70,844.7,70l178.3-24.7L1120.5,87.3z"/>
		<circle display="inline" fill="#FDFDFD" cx="846.8" cy="238.1" r="90"/>
		<circle display="inline" fill="#FDFDFD" cx="1087.2" cy="237.4" r="91.3"/>
		<g display="inline">
			<g>
				<path fill="#3B3A3A" d="M966,288.8c-8,18.7-19.9,35-35,48.1l3.3,5.3l35.3,61.2l35.3-61.2l0.9-1.5
					C988.5,327.1,974.9,309.3,966,288.8z"/>
				<path fill="#3B3A3A" d="M966,288.8c1.2-2.7,2.1-5,3-7.7h-5.9C963.9,283.5,965.1,286.2,966,288.8z"/>
			</g>
		</g>
		<path display="inline" fill="#3B3A3A" d="M1213.1,149.5l18.7-69.2L1162.6,99l-43.4,11.6c-10.4-2.7-21.1-4.2-32.4-4.2
			c-52.9,0-98.7,31.6-119.5,76.9c-20.6-45.3-66.4-76.9-119.6-76.9c-13.1,0-25.8,2.1-38,5.6l-49.3-13l-69.2-18.7l18.7,69.2l12.8,48.1
			c-4.2,12.5-6.2,25.8-6.2,39.8c0,72.5,58.8,131.3,131.3,131.3c32.7,0,62.7-12.2,85.8-32.1c14.3-12.3,26-27.6,33.7-45
			c8.7,19.2,22.1,35.9,38.4,48.9c22.3,17.5,50.5,28.2,81.1,28.2c72.5,0,131.3-58.8,131.3-131.3c0-20.5-4.8-39.8-13.1-57
			L1213.1,149.5z M922.8,280.8c-3.3,5.9-7.4,11.3-12.2,16c-15.7,16.6-38,27-62.7,27c-0.3,0-0.9,0-1.2,0c-0.3,0-0.9,0-1.2,0
			c-47.8,0-86.7-38.9-86.7-86.7s38.9-86.7,86.7-86.7c0.3,0,0.9,0,1.2,0c0.3,0,0.9,0,1.2,0c47.8,0,86.7,38.9,86.7,86.7
			C934.4,253.5,930.2,268,922.8,280.8z M967.3,189.6c0,0.1,0.1,0.2,0.1,0.3C967.4,189.8,967.4,189.7,967.3,189.6L967.3,189.6z
			 M1086.9,324.2c-22.6,0-43.1-8.6-58.5-22.6c-6.5-5.9-12.2-12.8-16.6-20.5c-7.4-12.8-11.6-27.6-11.6-43.4
			c0-47.8,38.9-86.7,86.7-86.7c47.8,0,86.7,38.9,86.7,86.7S1134.7,324.2,1086.9,324.2z"/>
		<path display="inline" fill="#3B3A3A" d="M1240.1,291.2c0-152.7-124.2-276.8-276.8-276.8S686.4,138.5,686.4,291.2
			c0,40.6,9.3,88.4,27.8,123.8h-0.1l0.9,1.5c1.3,2.4,2.6,4.7,4,6.9l134.3,235.1c0,0,80.7,14.6,109.6,14.6
			c25.6,0,108.3-14.6,108.3-14.6l133.1-230.4l0,0C1229,390.5,1240.1,335.2,1240.1,291.2z M1043.8,617.5H881.2L762.8,411l0,0
			c-17-32.6-31.9-81.1-31.9-119.8c0-128,104.3-232.3,232.3-232.3s232.3,104.3,232.3,232.3c0,38.7-14.2,84.6-31.2,117.3L1043.8,617.5
			z"/>
		<g display="inline">
			<path fill="#ECE42D" d="M1061.3,688.2c-7.8,0-15.2-2.3-21.3-6.5c-6.1,4.2-13.5,6.5-21.3,6.5c-21,0-38-17-38-38s17-38,38-38
				c7.8,0,15.2,2.3,21.3,6.5c6.1-4.2,13.5-6.5,21.3-6.5c21,0,38,17,38,38S1082.3,688.2,1061.3,688.2z"/>
			<g>
				<path fill="#3B3A3A" d="M1061.3,627.2c12.7,0,23,10.3,23,23s-10.3,23-23,23c-9.6,0-17.9-5.9-21.3-14.4
					c-3.4,8.4-11.7,14.4-21.3,14.4c-12.7,0-23-10.3-23-23s10.3-23,23-23c9.6,0,17.9,5.9,21.3,14.4
					C1043.4,633.1,1051.7,627.2,1061.3,627.2 M1061.3,597.2c-7.5,0-14.7,1.6-21.3,4.4c-6.6-2.9-13.8-4.4-21.3-4.4
					c-29.2,0-53,23.8-53,53c0,29.2,23.8,53,53,53c7.5,0,14.7-1.6,21.3-4.4c6.6,2.9,13.8,4.4,21.3,4.4c29.2,0,53-23.8,53-53
					C1114.3,621,1090.6,597.2,1061.3,597.2L1061.3,597.2z"/>
			</g>
		</g>
		<g display="inline">
			<path fill="#ECE42D" d="M908.4,688.2c-7.8,0-15.2-2.3-21.3-6.5c-6.1,4.2-13.5,6.5-21.3,6.5c-21,0-38-17-38-38s17-38,38-38
				c7.8,0,15.2,2.3,21.3,6.5c6.1-4.2,13.5-6.5,21.3-6.5c21,0,38,17,38,38S929.4,688.2,908.4,688.2z"/>
			<g>
				<path fill="#3B3A3A" d="M908.4,627.2c12.7,0,23,10.3,23,23s-10.3,23-23,23c-9.6,0-17.9-5.9-21.3-14.4
					c-3.4,8.4-11.7,14.4-21.3,14.4c-12.7,0-23-10.3-23-23s10.3-23,23-23c9.6,0,17.9,5.9,21.3,14.4
					C890.6,633.1,898.8,627.2,908.4,627.2 M908.4,597.2c-7.5,0-14.7,1.6-21.3,4.4c-6.6-2.9-13.8-4.4-21.3-4.4c-29.2,0-53,23.8-53,53
					c0,29.2,23.8,53,53,53c7.5,0,14.7-1.6,21.3-4.4c6.6,2.9,13.8,4.4,21.3,4.4c29.2,0,53-23.8,53-53
					C961.5,621,937.7,597.2,908.4,597.2L908.4,597.2z"/>
			</g>
		</g>
		<circle display="inline" fill="#D85B4B" cx="846.8" cy="238.1" r="50.1"/>
		<circle display="inline" fill="#D85B4B" cx="1087.2" cy="237.4" r="50.1"/>
		<circle display="inline" fill="#3B3A3A" cx="846.8" cy="238.1" r="20.5"/>
		<circle display="inline" fill="#FDFDFD" cx="851.8" cy="233.1" r="9.2"/>
		<circle display="inline" fill="#3B3A3A" cx="1087.2" cy="237.4" r="20.5"/>
		<circle display="inline" fill="#FDFDFD" cx="1092.2" cy="232.4" r="9.2"/>
	</g>
	<g id="Ebene_2" display="none">
		<circle display="inline" fill="#EAE76C" cx="193.6" cy="187.7" r="69.4"/>
		<circle display="inline" fill="#EAE76C" cx="378.9" cy="187.1" r="70.4"/>
		<path display="inline" fill="#3B3A3A" d="M476,119.3L490.4,66L437,80.4l-33.4,8.9c-8-2.1-16.3-3.2-25-3.2
			c-40.8,0-76.1,24.4-92.2,59.3c-15.9-35-51.2-59.3-92.2-59.3c-10.1,0-19.9,1.6-29.3,4.4l-38-10.1L73.5,66L88,119.3l9.8,37.1
			c-3.2,9.6-4.8,19.9-4.8,30.7c0,55.9,45.4,101.2,101.2,101.2c25.2,0,48.3-9.4,66.2-24.7c11-9.5,20-21.3,26-34.7
			c6.7,14.8,17,27.7,29.7,37.7c17.2,13.5,38.9,21.8,62.5,21.8c55.9,0,101.2-45.4,101.2-101.2c0-15.8-3.7-30.7-10.1-44L476,119.3z
			 M252.2,220.6c-2.5,4.6-5.7,8.7-9.4,12.4c-12.1,12.8-29.3,20.8-48.3,20.8c-0.2,0-0.7,0-0.9,0s-0.7,0-0.9,0
			c-36.9,0-66.9-30-66.9-66.9s30-66.9,66.9-66.9c0.2,0,0.7,0,0.9,0s0.7,0,0.9,0c36.9,0,66.9,30,66.9,66.9
			C261.1,199.5,257.9,210.7,252.2,220.6z M286.4,150.2c0,0.1,0.1,0.2,0.1,0.3C286.5,150.4,286.5,150.3,286.4,150.2L286.4,150.2z
			 M378.6,254c-17.4,0-33.2-6.6-45.1-17.4c-5-4.6-9.4-9.8-12.8-15.8c-5.7-9.8-8.9-21.3-8.9-33.4c0-36.9,30-66.9,66.9-66.9
			s66.9,30,66.9,66.9C445.5,224.3,415.5,254,378.6,254z"/>
		<rect x="108.2" y="176.3" display="inline" fill="#3B3A3A" width="162" height="26.2"/>
		<rect x="291.4" y="176.3" display="inline" fill="#3B3A3A" width="162" height="26.2"/>
	</g>
	<g id="Ebene_5" display="none">
		<polygon display="inline" fill="#CFD955" points="710.3,105.7 788.7,44.6 850.5,28.2 897.3,31.2 947.5,49.1 989.3,78.9 
			1042.2,146 1058.6,222.8 1031,315.2 968.4,417.7 945.2,456 919.8,461.5 889.8,461.5 876.6,476.2 858.7,476.2 842,468.7 
			828.9,458.3 809,457.5 794.6,461.3 776,450.8 688.8,290.6 675.4,199.6 697.7,117.7 		"/>
		<path display="inline" fill="#9DA035" d="M698,175.1l-22.7,71.5l89.5,176.3l29.7,38.3h40.7l31.6,14.9c0,0,13-23-72.2-104.6
			C729.4,308.9,698,175.1,698,175.1z"/>
		<path display="inline" fill="#EAE76C" d="M982.9,66.3l61.2,88.6l14.5,89l-27.6,71.2c0,0,17.2-65.2-99.4-181.8
			c-102.3-102.3-154.1-80-154.1-80L910.2,35L982.9,66.3z"/>
		<circle display="inline" fill="#EAE76C" cx="778.9" cy="178.7" r="67.1"/>
		<circle display="inline" fill="#EAE76C" cx="958.1" cy="178.2" r="68"/>
		<g display="inline">
			<g>
				<path fill="#3B3A3A" d="M867.7,216.5c-6,13.9-14.8,26.1-26.1,35.9l2.4,4l26.3,45.6l26.3-45.6l0.7-1.1
					C884.5,245.1,874.3,231.8,867.7,216.5z"/>
				<path fill="#3B3A3A" d="M867.7,216.5c0.9-2,1.5-3.8,2.2-5.8h-4.4C866.1,212.6,867,214.5,867.7,216.5z"/>
			</g>
		</g>
		<path display="inline" fill="#3B3A3A" d="M1052,112.7l13.9-51.6L1014.3,75L982,83.6c-7.7-2-15.7-3.1-24.1-3.1
			c-39.4,0-73.5,23.5-89.1,57.3c-15.3-33.8-49.5-57.3-89.1-57.3c-9.7,0-19.3,1.5-28.3,4.2L714.6,75L663,61.1l13.9,51.6l9.5,35.9
			c-3.1,9.3-4.6,19.3-4.6,29.7c0,54,43.8,97.8,97.8,97.8c24.4,0,46.7-9.1,64-23.9c10.7-9.2,19.4-20.6,25.1-33.6
			c6.5,14.3,16.5,26.8,28.7,36.5c16.6,13.1,37.6,21,60.4,21c54,0,97.8-43.8,97.8-97.8c0-15.3-3.5-29.7-9.7-42.5L1052,112.7z
			 M835.6,210.6c-2.4,4.4-5.5,8.4-9.1,12c-11.7,12.4-28.3,20.1-46.7,20.1c-0.2,0-0.7,0-0.9,0s-0.7,0-0.9,0
			c-35.6,0-64.6-29-64.6-64.6s29-64.6,64.6-64.6c0.2,0,0.7,0,0.9,0s0.7,0,0.9,0c35.6,0,64.6,29,64.6,64.6
			C844.2,190.2,841.1,201,835.6,210.6z M868.7,142.6c0,0.1,0.1,0.2,0.1,0.3C868.7,142.7,868.7,142.6,868.7,142.6L868.7,142.6z
			 M957.9,242.9c-16.8,0-32.1-6.4-43.6-16.8c-4.9-4.4-9.1-9.5-12.4-15.3c-5.5-9.5-8.6-20.6-8.6-32.3c0-35.6,29-64.6,64.6-64.6
			s64.6,29,64.6,64.6C1022.5,214.1,993.5,242.9,957.9,242.9z"/>
		<path display="inline" fill="#3B3A3A" d="M1072.1,218.3c0-113.8-92.5-206.3-206.3-206.3s-206.3,92.5-206.3,206.3
			c0,30.3,6.9,65.9,20.8,92.2l0,0l0.7,1.1c1,1.8,1.9,3.5,3,5.2L784,492c0,0,60.2,10.9,81.7,10.9c19.1,0,80.7-10.9,80.7-10.9
			l99.2-171.8l0,0C1063.8,292.3,1072.1,251.1,1072.1,218.3z M925.7,461.5H804.6l-88.3-153.9l0,0c-12.7-24.3-23.8-60.4-23.8-89.3
			c0-95.4,77.7-173.1,173.1-173.1s173.1,77.7,173.1,173.1c0,28.9-10.6,63.1-23.2,87.4L925.7,461.5z"/>
		<g display="inline">
			<path fill="#ECE42D" d="M938.7,518c-5.7,0-11.2-1.5-15.9-4.2c-4.7,2.7-10.2,4.2-15.9,4.2c-17.7,0-32.1-14.4-32.1-32.1
				s14.4-32.1,32.1-32.1c5.7,0,11.2,1.5,15.9,4.2c4.7-2.7,10.2-4.2,15.9-4.2c17.7,0,32.1,14.4,32.1,32.1S956.6,518,938.7,518z"/>
			<g>
				<path fill="#3B3A3A" d="M938.7,468.7c9.5,0,17.1,7.7,17.1,17.1c0,9.5-7.7,17.1-17.1,17.1c-7.2,0-13.3-4.4-15.9-10.7
					c-2.5,6.3-8.7,10.7-15.9,10.7c-9.5,0-17.1-7.7-17.1-17.1c0-9.5,7.7-17.1,17.1-17.1c7.2,0,13.3,4.4,15.9,10.7
					C925.4,473.1,931.6,468.7,938.7,468.7 M938.7,438.7c-5.5,0-10.9,1-15.9,2.7c-5-1.8-10.4-2.7-15.9-2.7c-26,0-47.1,21.1-47.1,47.1
					s21.1,47.1,47.1,47.1c5.5,0,10.9-1,15.9-2.7c5,1.8,10.4,2.7,15.9,2.7c26,0,47.1-21.1,47.1-47.1
					C986,459.9,964.8,438.7,938.7,438.7L938.7,438.7z"/>
			</g>
		</g>
		<g display="inline">
			<path fill="#ECE42D" d="M824.9,518c-5.7,0-11.2-1.5-15.9-4.2c-4.7,2.7-10.2,4.2-15.9,4.2c-17.7,0-32.1-14.4-32.1-32.1
				s14.4-32.1,32.1-32.1c5.7,0,11.2,1.5,15.9,4.2c4.7-2.7,10.2-4.2,15.9-4.2c17.7,0,32.1,14.4,32.1,32.1S842.6,518,824.9,518z"/>
			<g>
				<path fill="#3B3A3A" d="M824.9,468.7c9.5,0,17.1,7.7,17.1,17.1c0,9.5-7.7,17.1-17.1,17.1c-7.2,0-13.3-4.4-15.9-10.7
					c-2.5,6.3-8.7,10.7-15.9,10.7c-9.5,0-17.1-7.7-17.1-17.1c0-9.5,7.7-17.1,17.1-17.1c7.2,0,13.3,4.4,15.9,10.7
					C811.5,473.1,817.7,468.7,824.9,468.7 M824.9,438.7c-5.5,0-10.9,1-15.9,2.7c-5-1.8-10.4-2.7-15.9-2.7c-26,0-47.1,21.1-47.1,47.1
					s21.1,47.1,47.1,47.1c5.5,0,10.9-1,15.9-2.7c5,1.8,10.4,2.7,15.9,2.7c26,0,47.1-21.1,47.1-47.1
					C872,459.9,850.9,438.7,824.9,438.7L824.9,438.7z"/>
			</g>
		</g>
		<rect x="696.4" y="167.7" display="inline" fill="#3B3A3A" width="156.5" height="25.4"/>
		<rect x="873.4" y="167.7" display="inline" fill="#3B3A3A" width="156.5" height="25.4"/>
	</g>
	<g id="Ebene_2_1_">
		<g id="Ebene_1_2_">
			<polygon fill="#D3B741" points="122.5,112 203.6,48.8 267.5,31.9 315.9,35 367.7,53.4 410.8,84.3 465.5,153.6 482.4,233 
				453.9,328.5 389.2,434.4 365.3,474.1 339.1,479.7 308.1,479.7 294.5,494.9 276,494.9 258.7,487.2 245.2,476.4 224.6,475.6 
				209.7,479.5 190.4,468.7 100.3,303.1 86.5,209.1 109.6,124.3 			"/>
			<path fill="#998328" d="M109.9,183.7l-23.4,74L179,439.9l30.7,39.6h42.1l32.7,15.4c0,0,13.4-23.8-74.6-108.2
				C142.3,322,109.9,183.7,109.9,183.7z"/>
			<path fill="#EFD66A" d="M404.2,71.3l63.2,91.6l15,92l-28.5,73.6c0,0,17.8-67.3-102.8-187.9C245.4,34.9,191.9,57.9,191.9,57.9
				l137.3-19L404.2,71.3z"/>
			<circle fill="#FDFDFD" cx="193.5" cy="187.5" r="69.3"/>
			<circle fill="#FDFDFD" cx="378.6" cy="186.9" r="70.3"/>
			<path fill="#3B3A3A" d="M285.2,226.5c0.9-2.1,1.6-3.9,2.3-5.9h-4.6C283.6,222.4,284.5,224.5,285.2,226.5z"/>
			<path fill="#3B3A3A" d="M496.4,228.4c0-117.6-95.6-213.3-213.3-213.3c-117.6,0-213.3,95.6-213.3,213.3c0,31.3,7.1,68.1,21.5,95.3
				l0,0l0.7,1.2c1,1.8,2,3.6,3.1,5.4l103.5,181.1c0,0,62.2,11.3,84.4,11.3c19.7,0,83.4-11.3,83.4-11.3l102.4-177.6l0,0
				C487.8,304.9,496.4,262.3,496.4,228.4z M345.2,479.7H220l-91.2-159l0,0c-13.1-25.2-24.6-62.5-24.6-92.3
				c0-98.6,80.3-178.9,178.9-178.9S462,129.8,462,228.4c0,29.9-11,65.2-24,90.4L345.2,479.7z"/>
			<g>
				<path fill="#EFAD2A" d="M358.7,537.6c-5.9,0-11.5-1.6-16.4-4.4c-4.9,2.8-10.5,4.4-16.4,4.4c-18,0-32.7-14.7-32.7-32.7
					s14.7-32.7,32.7-32.7c5.9,0,11.5,1.6,16.4,4.4c4.9-2.8,10.5-4.4,16.4-4.4c18,0,32.7,14.7,32.7,32.7S376.7,537.6,358.7,537.6z"/>
				<g>
					<path fill="#3B3A3A" d="M358.7,487.2c9.8,0,17.7,7.9,17.7,17.7c0,9.8-7.9,17.7-17.7,17.7c-7.4,0-13.8-4.6-16.4-11.1
						c-2.6,6.5-9,11.1-16.4,11.1c-9.8,0-17.7-7.9-17.7-17.7s7.9-17.7,17.7-17.7c7.4,0,13.8,4.6,16.4,11.1
						C344.9,491.8,351.2,487.2,358.7,487.2 M358.7,457.2c-5.7,0-11.3,1-16.4,2.9c-5.2-1.9-10.7-2.9-16.4-2.9
						c-26.3,0-47.7,21.4-47.7,47.7c0,26.3,21.4,47.7,47.7,47.7c5.7,0,11.3-1,16.4-2.9c5.2,1.9,10.7,2.9,16.4,2.9
						c26.3,0,47.7-21.4,47.7-47.7S385,457.2,358.7,457.2L358.7,457.2z"/>
				</g>
			</g>
			<g>
				<path fill="#EFAD2A" d="M241,537.6c-5.9,0-11.5-1.6-16.4-4.4c-4.9,2.8-10.5,4.4-16.4,4.4c-18,0-32.7-14.7-32.7-32.7
					s14.7-32.7,32.7-32.7c5.9,0,11.5,1.6,16.4,4.4c4.9-2.8,10.5-4.4,16.4-4.4c18,0,32.7,14.7,32.7,32.7S259,537.6,241,537.6z"/>
				<g>
					<path fill="#3B3A3A" d="M241,487.2c9.8,0,17.7,7.9,17.7,17.7c0,9.8-7.9,17.7-17.7,17.7c-7.4,0-13.8-4.6-16.4-11.1
						c-2.6,6.5-9,11.1-16.4,11.1c-9.8,0-17.7-7.9-17.7-17.7s7.9-17.7,17.7-17.7c7.4,0,13.8,4.6,16.4,11.1
						C227.2,491.8,233.5,487.2,241,487.2 M241,457.2c-5.7,0-11.3,1-16.4,2.9c-5.2-1.9-10.7-2.9-16.4-2.9
						c-26.3,0-47.7,21.4-47.7,47.7c0,26.3,21.4,47.7,47.7,47.7c5.7,0,11.3-1,16.4-2.9c5.2,1.9,10.7,2.9,16.4,2.9
						c26.3,0,47.7-21.4,47.7-47.7S267.3,457.2,241,457.2L241,457.2z"/>
				</g>
			</g>
			<circle fill="#D3B741" cx="193.5" cy="187.5" r="38.6"/>
			<circle fill="#D3B741" cx="378.6" cy="186.9" r="38.6"/>
			<circle fill="#3B3A3A" cx="193.5" cy="187.5" r="15.8"/>
			<circle fill="#FDFDFD" cx="197.3" cy="183.6" r="7.1"/>
			<circle fill="#3B3A3A" cx="378.6" cy="186.9" r="15.8"/>
			<circle fill="#FDFDFD" cx="382.5" cy="183.1" r="7.1"/>
			<rect x="121.8" y="110.3" fill="#EFD66A" width="135.3" height="59.5"/>
			<rect x="313.3" y="110.3" fill="#EFD66A" width="135.3" height="58.9"/>
			<polygon fill="#3A3A3A" points="408.6,163 345.5,163 293.9,163 293.9,180.4 338.9,180.4 415.2,180.4 450.9,180.4 450.9,163 			
				"/>
			<polygon fill="#3A3A3A" points="225.6,163 162.5,163 110.9,163 110.9,180.4 155.9,180.4 232.2,180.4 267.9,180.4 267.9,163 			
				"/>
			<polygon fill="#EFD66A" points="304.8,219.4 440,219.4 417.2,273.5 316,249.4 			"/>
			<polygon fill="#EFD66A" points="127.3,220 262.6,220 224.6,273 144,260.6 			"/>
			<polygon fill="#3A3A3A" points="153.2,226.2 216.3,226.2 267.9,226.2 267.9,208.8 222.9,208.8 146.6,208.8 110.9,208.8 
				110.9,226.2 			"/>
			<polygon fill="#3A3A3A" points="336.2,226.2 399.3,226.2 450.9,226.2 450.9,208.8 405.9,208.8 329.6,208.8 293.9,208.8 
				293.9,226.2 			"/>
			<path fill="#3B3A3A" d="M315.9,266.7c17.2,13.5,38.9,21.7,62.5,21.7c55.8,0,101.1-45.3,101.1-101.1c0-15.8-3.7-30.7-10.1-43.9
				l6.2-23.8L490,66.3l-53.3,14.4l-33.4,8.9c-8-2.1-16.2-3.2-24.9-3.2c-40.8,0-76,24.3-92.1,59.3c-15.9-34.9-51.1-59.3-92.1-59.3
				c-10.1,0-19.9,1.6-29.3,4.3l-38-10.1L73.6,66.2L88,119.5l9.8,37.1c-3.2,9.6-4.8,19.9-4.8,30.7c0,55.8,45.3,101.1,101.1,101.1
				c24.5,0,47-8.9,64.7-23.5l1.9,3.1l27.2,47.1l27.2-47.1l0.7-1.1 M252,220.7c-2.5,4.6-5.7,8.7-9.4,12.4
				c-12.1,12.8-29.3,20.8-48.3,20.8c-0.2,0-0.7,0-0.9,0s-0.7,0-0.9,0c-36.8,0-66.8-30-66.8-66.8s30-66.8,66.8-66.8
				c0.2,0,0.7,0,0.9,0s0.7,0,0.9,0c36.8,0,66.8,30,66.8,66.8C261,199.6,257.8,210.8,252,220.7z M378.3,254.1
				c-17.4,0-33.2-6.6-45.1-17.4c-5-4.6-9.4-9.8-12.8-15.8c-5.7-9.8-8.9-21.3-8.9-33.4c0-36.8,30-66.8,66.8-66.8s66.8,30,66.8,66.8
				C445.2,224.3,415.2,254.1,378.3,254.1z"/>
		</g>
	</g>
</g>
<g id="Ebene_3_1_" display="none">
	<g id="Ebene_1_3_" display="inline">
		<polygon fill="#D3B741" points="707.1,64.9 788.2,1.6 852.1,-15.3 900.5,-12.2 952.3,6.2 995.4,37.1 1050.1,106.5 1067,185.9 
			1038.5,281.4 973.8,387.3 949.9,427 923.7,432.6 892.7,432.6 879.1,447.8 860.6,447.8 843.3,440.1 829.8,429.3 809.2,428.5 
			794.3,432.4 775,421.6 684.9,256 671.1,162 694.2,77.2 		"/>
		<path fill="#998328" d="M694.5,136.6l-23.4,74l92.5,182.2l30.7,39.6h42.1l32.7,15.4c0,0,13.4-23.8-74.6-108.2
			C726.9,274.9,694.5,136.6,694.5,136.6z"/>
		<path fill="#EFD66A" d="M988.8,24.1l63.2,91.6l15,92l-28.5,73.6c0,0,17.8-67.3-102.8-187.9C830-12.3,776.5,10.7,776.5,10.7
			l137.3-19L988.8,24.1z"/>
		<circle fill="#FDFDFD" cx="778.1" cy="140.4" r="69.3"/>
		<circle fill="#FDFDFD" cx="963.2" cy="139.8" r="70.3"/>
		<path fill="#3B3A3A" d="M869.8,179.4c0.9-2.1,1.6-3.9,2.3-5.9h-4.6C868.2,175.3,869.1,177.4,869.8,179.4z"/>
		<path fill="#3B3A3A" d="M900.5,219.6c17.2,13.5,38.9,21.7,62.5,21.7c55.8,0,101.1-45.3,101.1-101.1c0-15.8-3.7-30.7-10.1-43.9
			l6.2-23.8l14.4-53.3l-53.3,14.4l-33.4,8.9c-8-2.1-16.2-3.2-24.9-3.2c-40.8,0-76,24.3-92.1,59.3c-15.9-34.9-51.1-59.3-92.1-59.3
			c-10.1,0-19.9,1.6-29.3,4.3l-38-10.1L658.2,19l14.4,53.3l9.8,37.1c-3.2,9.6-4.8,19.9-4.8,30.7c0,55.8,45.3,101.1,101.1,101.1
			c24.5,0,47-8.9,64.7-23.5l1.9,3.1l27.2,47.1l27.2-47.1l0.7-1.1 M836.6,173.6c-2.5,4.6-5.7,8.7-9.4,12.4
			c-12.1,12.8-29.3,20.8-48.3,20.8c-0.2,0-0.7,0-0.9,0s-0.7,0-0.9,0c-36.8,0-66.8-30-66.8-66.8s30-66.8,66.8-66.8c0.2,0,0.7,0,0.9,0
			s0.7,0,0.9,0c36.8,0,66.8,30,66.8,66.8C845.6,152.5,842.4,163.7,836.6,173.6z M962.9,207c-17.4,0-33.2-6.6-45.1-17.4
			c-5-4.6-9.4-9.8-12.8-15.8c-5.7-9.8-8.9-21.3-8.9-33.4c0-36.8,30-66.8,66.8-66.8c36.8,0,66.8,30,66.8,66.8
			C1029.8,177.2,999.8,207,962.9,207z"/>
		<path fill="#3B3A3A" d="M1081,181.3c0-117.6-95.6-213.3-213.3-213.3c-117.6,0-213.3,95.6-213.3,213.3c0,31.3,7.1,68.1,21.5,95.3
			l0,0l0.7,1.2c1,1.8,2,3.6,3.1,5.4l103.5,181.1c0,0,62.2,11.3,84.4,11.3c19.7,0,83.4-11.3,83.4-11.3l102.4-177.6l0,0
			C1072.4,257.8,1081,215.2,1081,181.3z M929.8,432.6H804.6l-91.2-159l0,0c-13.1-25.2-24.6-62.5-24.6-92.3
			c0-98.6,80.3-178.9,178.9-178.9s178.9,80.3,178.9,178.9c0,29.9-11,65.2-24,90.4L929.8,432.6z"/>
		<g>
			<path fill="#EFAD2A" d="M943.3,490.5c-5.9,0-11.5-1.6-16.4-4.4c-4.9,2.8-10.5,4.4-16.4,4.4c-18,0-32.7-14.7-32.7-32.7
				c0-18,14.7-32.7,32.7-32.7c5.9,0,11.5,1.6,16.4,4.4c4.9-2.8,10.5-4.4,16.4-4.4c18,0,32.7,14.7,32.7,32.7
				C976,475.8,961.3,490.5,943.3,490.5z"/>
			<g>
				<path fill="#3B3A3A" d="M943.3,440.1c9.8,0,17.7,7.9,17.7,17.7c0,9.8-7.9,17.7-17.7,17.7c-7.4,0-13.8-4.6-16.4-11.1
					c-2.6,6.5-9,11.1-16.4,11.1c-9.8,0-17.7-7.9-17.7-17.7s7.9-17.7,17.7-17.7c7.4,0,13.8,4.6,16.4,11.1
					C929.5,444.7,935.8,440.1,943.3,440.1 M943.3,410.1c-5.7,0-11.3,1-16.4,2.9c-5.2-1.9-10.7-2.9-16.4-2.9
					c-26.3,0-47.7,21.4-47.7,47.7c0,26.3,21.4,47.7,47.7,47.7c5.7,0,11.3-1,16.4-2.9c5.2,1.9,10.7,2.9,16.4,2.9
					c26.3,0,47.7-21.4,47.7-47.7C991,431.5,969.6,410.1,943.3,410.1L943.3,410.1z"/>
			</g>
		</g>
		<g>
			<path fill="#EFAD2A" d="M825.6,490.5c-5.9,0-11.5-1.6-16.4-4.4c-4.9,2.8-10.5,4.4-16.4,4.4c-18,0-32.7-14.7-32.7-32.7
				c0-18,14.7-32.7,32.7-32.7c5.9,0,11.5,1.6,16.4,4.4c4.9-2.8,10.5-4.4,16.4-4.4c18,0,32.7,14.7,32.7,32.7
				C858.3,475.8,843.6,490.5,825.6,490.5z"/>
			<g>
				<path fill="#3B3A3A" d="M825.6,440.1c9.8,0,17.7,7.9,17.7,17.7c0,9.8-7.9,17.7-17.7,17.7c-7.4,0-13.8-4.6-16.4-11.1
					c-2.6,6.5-9,11.1-16.4,11.1c-9.8,0-17.7-7.9-17.7-17.7s7.9-17.7,17.7-17.7c7.4,0,13.8,4.6,16.4,11.1
					C811.8,444.7,818.1,440.1,825.6,440.1 M825.6,410.1c-5.7,0-11.3,1-16.4,2.9c-5.2-1.9-10.7-2.9-16.4-2.9
					c-26.3,0-47.7,21.4-47.7,47.7c0,26.3,21.4,47.7,47.7,47.7c5.7,0,11.3-1,16.4-2.9c5.2,1.9,10.7,2.9,16.4,2.9
					c26.3,0,47.7-21.4,47.7-47.7C873.3,431.5,851.9,410.1,825.6,410.1L825.6,410.1z"/>
			</g>
		</g>
		<circle fill="#D3B741" cx="778.1" cy="140.4" r="38.6"/>
		<circle fill="#D3B741" cx="963.2" cy="139.8" r="38.6"/>
		<circle fill="#3B3A3A" cx="778.1" cy="140.4" r="15.8"/>
		<circle fill="#FDFDFD" cx="781.9" cy="136.5" r="7.1"/>
		<circle fill="#3B3A3A" cx="963.2" cy="139.8" r="15.8"/>
		<circle fill="#FDFDFD" cx="967.1" cy="136" r="7.1"/>
	</g>
</g>
</svg>
