<?xml version="1.0" encoding="utf-8"?>
<!-- Generator: Adobe Illustrator 18.1.1, SVG Export Plug-In . SVG Version: 6.00 Build 0)  -->
<svg version="1.1" xmlns="http://www.w3.org/2000/svg" xmlns:xlink="http://www.w3.org/1999/xlink" x="0px" y="0px"
	 viewBox="0 0 566.9 566.9" enable-background="new 0 0 566.9 566.9" xml:space="preserve">
<g id="Ebene_1">
	<polygon fill="#D3B741" points="122.7,112.1 203.8,48.9 267.7,32 316.1,35.1 367.9,53.5 411,84.4 465.7,153.7 482.6,233.1 
		454.1,328.6 389.4,434.5 365.5,474.2 339.3,479.8 308.3,479.8 294.7,495 276.2,495 258.9,487.3 245.4,476.5 224.8,475.7 
		209.9,479.6 190.6,468.8 100.5,303.2 86.7,209.2 109.8,124.4 	"/>
	<path fill="#998328" d="M110.1,183.8l-23.4,74L179.2,440l30.7,39.6H252l32.7,15.4c0,0,13.4-23.8-74.6-108.2
		C142.5,322.1,110.1,183.8,110.1,183.8z"/>
	<path fill="#EFD66A" d="M404.4,71.4l63.2,91.6l15,92l-28.5,73.6c0,0,17.8-67.3-102.8-187.9C245.6,35,192.1,58,192.1,58l137.3-19
		L404.4,71.4z"/>
	<circle fill="#FDFDFD" cx="193.7" cy="187.6" r="69.3"/>
	<circle fill="#FDFDFD" cx="378.8" cy="187" r="70.3"/>
	<path fill="#3B3A3A" d="M285.4,226.6c0.9-2.1,1.6-3.9,2.3-5.9h-4.6C283.8,222.5,284.7,224.6,285.4,226.6z"/>
	<path fill="#3B3A3A" d="M316.1,266.8c17.2,13.5,38.9,21.7,62.5,21.7c55.8,0,101.1-45.3,101.1-101.1c0-15.8-3.7-30.7-10.1-43.9
		l6.2-23.8l14.4-53.3l-53.3,14.4l-33.4,8.9c-8-2.1-16.2-3.2-24.9-3.2c-40.8,0-76,24.3-92.1,59.3c-15.9-34.9-51.1-59.3-92.1-59.3
		c-10.1,0-19.9,1.6-29.3,4.3l-38-10.1L73.8,66.3l14.4,53.3l9.8,37.1c-3.2,9.6-4.8,19.9-4.8,30.7c0,55.8,45.3,101.1,101.1,101.1
		c24.5,0,47-8.9,64.7-23.5l1.9,3.1l27.2,47.1l27.2-47.1l0.7-1.1 M252.2,220.8c-2.5,4.6-5.7,8.7-9.4,12.4
		c-12.1,12.8-29.3,20.8-48.3,20.8c-0.2,0-0.7,0-0.9,0c-0.2,0-0.7,0-0.9,0c-36.8,0-66.8-30-66.8-66.8c0-36.8,30-66.8,66.8-66.8
		c0.2,0,0.7,0,0.9,0c0.2,0,0.7,0,0.9,0c36.8,0,66.8,30,66.8,66.8C261.2,199.7,258,210.9,252.2,220.8z M378.5,254.2
		c-17.4,0-33.2-6.6-45.1-17.4c-5-4.6-9.4-9.8-12.8-15.8c-5.7-9.8-8.9-21.3-8.9-33.4c0-36.8,30-66.8,66.8-66.8
		c36.8,0,66.8,30,66.8,66.8C445.4,224.4,415.4,254.2,378.5,254.2z"/>
	<path fill="#3B3A3A" d="M496.6,228.5c0-117.6-95.6-213.3-213.3-213.3c-117.6,0-213.3,95.6-213.3,213.3c0,31.3,7.1,68.1,21.5,95.3
		l0,0l0.7,1.2c1,1.8,2,3.6,3.1,5.4l103.5,181.1c0,0,62.2,11.3,84.4,11.3c19.7,0,83.4-11.3,83.4-11.3L469,333.9l0,0
		C488,305,496.6,262.4,496.6,228.5z M345.4,479.8H220.2L129,320.8l0,0c-13.1-25.2-24.6-62.5-24.6-92.3
		c0-98.6,80.3-178.9,178.9-178.9c98.6,0,178.9,80.3,178.9,178.9c0,29.9-11,65.2-24,90.4L345.4,479.8z"/>
	<g>
		<path fill="#EFAD2A" d="M358.9,537.7c-5.9,0-11.5-1.6-16.4-4.4c-4.9,2.8-10.5,4.4-16.4,4.4c-18,0-32.7-14.7-32.7-32.7
			s14.7-32.7,32.7-32.7c5.9,0,11.5,1.6,16.4,4.4c4.9-2.8,10.5-4.4,16.4-4.4c18,0,32.7,14.7,32.7,32.7S376.9,537.7,358.9,537.7z"/>
		<g>
			<path fill="#3B3A3A" d="M358.9,487.3c9.8,0,17.7,7.9,17.7,17.7c0,9.8-7.9,17.7-17.7,17.7c-7.4,0-13.8-4.6-16.4-11.1
				c-2.6,6.5-9,11.1-16.4,11.1c-9.8,0-17.7-7.9-17.7-17.7c0-9.8,7.9-17.7,17.7-17.7c7.4,0,13.8,4.6,16.4,11.1
				C345.1,491.9,351.4,487.3,358.9,487.3 M358.9,457.3c-5.7,0-11.3,1-16.4,2.9c-5.2-1.9-10.7-2.9-16.4-2.9
				c-26.3,0-47.7,21.4-47.7,47.7s21.4,47.7,47.7,47.7c5.7,0,11.3-1,16.4-2.9c5.2,1.9,10.7,2.9,16.4,2.9c26.3,0,47.7-21.4,47.7-47.7
				S385.2,457.3,358.9,457.3L358.9,457.3z"/>
		</g>
	</g>
	<g>
		<path fill="#EFAD2A" d="M241.2,537.7c-5.9,0-11.5-1.6-16.4-4.4c-4.9,2.8-10.5,4.4-16.4,4.4c-18,0-32.7-14.7-32.7-32.7
			s14.7-32.7,32.7-32.7c5.9,0,11.5,1.6,16.4,4.4c4.9-2.8,10.5-4.4,16.4-4.4c18,0,32.7,14.7,32.7,32.7S259.2,537.7,241.2,537.7z"/>
		<g>
			<path fill="#3B3A3A" d="M241.2,487.3c9.8,0,17.7,7.9,17.7,17.7c0,9.8-7.9,17.7-17.7,17.7c-7.4,0-13.8-4.6-16.4-11.1
				c-2.6,6.5-9,11.1-16.4,11.1c-9.8,0-17.7-7.9-17.7-17.7c0-9.8,7.9-17.7,17.7-17.7c7.4,0,13.8,4.6,16.4,11.1
				C227.4,491.9,233.7,487.3,241.2,487.3 M241.2,457.3c-5.7,0-11.3,1-16.4,2.9c-5.2-1.9-10.7-2.9-16.4-2.9
				c-26.3,0-47.7,21.4-47.7,47.7s21.4,47.7,47.7,47.7c5.7,0,11.3-1,16.4-2.9c5.2,1.9,10.7,2.9,16.4,2.9c26.3,0,47.7-21.4,47.7-47.7
				S267.5,457.3,241.2,457.3L241.2,457.3z"/>
		</g>
	</g>
	<circle fill="#D3B741" cx="193.7" cy="187.6" r="38.6"/>
	<circle fill="#D3B741" cx="378.8" cy="187" r="38.6"/>
	<circle fill="#3B3A3A" cx="193.7" cy="187.6" r="15.8"/>
	<circle fill="#FDFDFD" cx="197.5" cy="183.7" r="7.1"/>
	<circle fill="#3B3A3A" cx="378.8" cy="187" r="15.8"/>
	<circle fill="#FDFDFD" cx="382.7" cy="183.2" r="7.1"/>
</g>
<g id="Ebene_3" display="none">
	<polygon display="inline" fill="#5F7A92" points="740.7,30.4 845.9,-51.6 928.9,-73.6 991.7,-69.6 1058.9,-45.6 1114.9,-5.6 
		1185.9,84.4 1207.9,187.4 1170.9,311.4 1086.9,448.9 1055.9,500.4 1021.8,507.7 981.6,507.7 963.9,527.4 939.9,527.4 917.4,517.4 
		899.9,503.4 873.1,502.4 853.9,507.4 828.8,493.4 711.9,278.4 693.9,156.4 723.9,46.4 	"/>
	<path display="inline" fill="#3E5464" d="M724.3,123.4l-30.4,96L814,456l39.9,51.4h54.6l42.4,20c0,0,17.4-30.9-96.8-140.4
		C766.4,302.9,724.3,123.4,724.3,123.4z"/>
	<path display="inline" fill="#709DBD" d="M1106.3-22.5l82.1,118.9l19.4,119.4l-37,95.6c0,0,23.1-87.4-133.4-243.9
		C900.2-69.8,830.7-39.8,830.7-39.8L1009-64.5L1106.3-22.5z"/>
	<circle display="inline" fill="#FDFDFD" cx="832.8" cy="128.3" r="90"/>
	<circle display="inline" fill="#FDFDFD" cx="1073.1" cy="127.6" r="91.3"/>
	<g display="inline">
		<g>
			<path fill="#3B3A3A" d="M951.9,179c-8,18.7-19.9,35-35,48.1l3.3,5.3l35.3,61.2l35.3-61.2l0.9-1.5
				C974.4,217.3,960.8,199.5,951.9,179z"/>
			<path fill="#3B3A3A" d="M951.9,179c1.2-2.7,2.1-5,3-7.7h-5.9C949.8,173.7,951,176.3,951.9,179z"/>
		</g>
	</g>
	<path display="inline" fill="#3B3A3A" d="M1199,39.7l18.7-69.2l-69.2,18.7l-43.4,11.6c-10.4-2.7-21.1-4.2-32.4-4.2
		c-52.9,0-98.7,31.6-119.5,76.9C932.6,28.2,886.8-3.3,833.6-3.3c-13.1,0-25.8,2.1-38,5.6l-49.3-13.1l-69.2-18.7l18.7,69.2l12.8,48.1
		c-4.2,12.5-6.2,25.8-6.2,39.8c0,72.5,58.8,131.3,131.3,131.3c32.7,0,62.7-12.2,85.8-32.1c14.3-12.3,26-27.6,33.7-45
		c8.7,19.2,22.1,35.9,38.4,48.9c22.3,17.5,50.5,28.2,81.1,28.2c72.5,0,131.3-58.8,131.3-131.3c0-20.5-4.8-39.8-13.1-57L1199,39.7z
		 M908.8,171c-3.3,5.9-7.4,11.3-12.2,16c-15.7,16.6-38,27-62.7,27c-0.3,0-0.9,0-1.2,0c-0.3,0-0.9,0-1.2,0
		c-47.8,0-86.7-38.9-86.7-86.7c0-47.8,38.9-86.7,86.7-86.7c0.3,0,0.9,0,1.2,0c0.3,0,0.9,0,1.2,0c47.8,0,86.7,38.9,86.7,86.7
		C920.4,143.7,916.2,158.2,908.8,171z M953.2,79.8c0,0.1,0.1,0.2,0.1,0.3C953.3,80,953.2,79.9,953.2,79.8L953.2,79.8z M1072.7,214.4
		c-22.6,0-43.1-8.6-58.5-22.6c-6.5-5.9-12.2-12.8-16.6-20.5c-7.4-12.8-11.6-27.6-11.6-43.4c0-47.8,38.9-86.7,86.7-86.7
		c47.8,0,86.7,38.9,86.7,86.7S1120.6,214.4,1072.7,214.4z"/>
	<path display="inline" fill="#3B3A3A" d="M1226,181.4c0-152.7-124.2-276.8-276.8-276.8S672.4,28.7,672.4,181.4
		c0,40.6,9.3,88.4,27.8,123.8l-0.1,0l0.9,1.5c1.3,2.4,2.6,4.7,4,6.9l134.3,235.1c0,0,80.7,14.6,109.6,14.6
		c25.6,0,108.3-14.6,108.3-14.6l133.1-230.4l0,0C1214.9,280.7,1226,225.4,1226,181.4z M1029.7,507.7H867.2L748.8,301.2l0,0
		c-17-32.6-31.9-81.1-31.9-119.8c0-128,104.3-232.3,232.3-232.3c128,0,232.3,104.3,232.3,232.3c0,38.7-14.2,84.6-31.2,117.3
		L1029.7,507.7z"/>
	<g display="inline">
		<path fill="#ECE42D" d="M1047.2,578.4c-7.8,0-15.2-2.3-21.3-6.5c-6.1,4.2-13.5,6.5-21.3,6.5c-21,0-38-17-38-38s17-38,38-38
			c7.8,0,15.2,2.3,21.3,6.5c6.1-4.2,13.5-6.5,21.3-6.5c21,0,38,17,38,38S1068.2,578.4,1047.2,578.4z"/>
		<g>
			<path fill="#3B3A3A" d="M1047.2,517.4c12.7,0,23,10.3,23,23c0,12.7-10.3,23-23,23c-9.6,0-17.9-5.9-21.3-14.4
				c-3.4,8.4-11.7,14.4-21.3,14.4c-12.7,0-23-10.3-23-23c0-12.7,10.3-23,23-23c9.6,0,17.9,5.9,21.3,14.4
				C1029.3,523.3,1037.6,517.4,1047.2,517.4 M1047.2,487.4c-7.5,0-14.7,1.6-21.3,4.4c-6.6-2.9-13.8-4.4-21.3-4.4
				c-29.2,0-53,23.8-53,53c0,29.2,23.8,53,53,53c7.5,0,14.7-1.6,21.3-4.4c6.6,2.9,13.8,4.4,21.3,4.4c29.2,0,53-23.8,53-53
				C1100.2,511.1,1076.4,487.4,1047.2,487.4L1047.2,487.4z"/>
		</g>
	</g>
	<g display="inline">
		<path fill="#ECE42D" d="M894.4,578.4c-7.8,0-15.2-2.3-21.3-6.5c-6.1,4.2-13.5,6.5-21.3,6.5c-21,0-38-17-38-38s17-38,38-38
			c7.8,0,15.2,2.3,21.3,6.5c6.1-4.2,13.5-6.5,21.3-6.5c21,0,38,17,38,38S915.4,578.4,894.4,578.4z"/>
		<g>
			<path fill="#3B3A3A" d="M894.4,517.4c12.7,0,23,10.3,23,23c0,12.7-10.3,23-23,23c-9.6,0-17.9-5.9-21.3-14.4
				c-3.4,8.4-11.7,14.4-21.3,14.4c-12.7,0-23-10.3-23-23c0-12.7,10.3-23,23-23c9.6,0,17.9,5.9,21.3,14.4
				C876.5,523.3,884.8,517.4,894.4,517.4 M894.4,487.4c-7.5,0-14.7,1.6-21.3,4.4c-6.6-2.9-13.8-4.4-21.3-4.4c-29.2,0-53,23.8-53,53
				c0,29.2,23.8,53,53,53c7.5,0,14.7-1.6,21.3-4.4c6.6,2.9,13.8,4.4,21.3,4.4c29.2,0,53-23.8,53-53
				C947.4,511.1,923.7,487.4,894.4,487.4L894.4,487.4z"/>
		</g>
	</g>
	<circle display="inline" fill="#5F7A92" cx="832.8" cy="128.3" r="50.1"/>
	<circle display="inline" fill="#5F7A92" cx="1073.1" cy="127.6" r="50.1"/>
	<circle display="inline" fill="#3B3A3A" cx="832.8" cy="128.3" r="20.5"/>
	<circle display="inline" fill="#FDFDFD" cx="837.8" cy="123.3" r="9.2"/>
	<circle display="inline" fill="#3B3A3A" cx="1073.1" cy="127.6" r="20.5"/>
	<circle display="inline" fill="#FDFDFD" cx="1078.1" cy="122.6" r="9.2"/>
</g>
<g id="Ebene_4" display="none">
	<polygon display="inline" fill="#D85B4B" points="754.7,140.2 859.9,58.2 942.9,36.2 1005.7,40.2 1072.9,64.2 1128.9,104.2 
		1199.9,194.2 1221.9,297.2 1184.9,421.2 1100.9,558.7 1069.9,610.2 1035.8,617.5 995.6,617.5 977.9,637.2 953.9,637.2 931.4,627.2 
		913.9,613.2 887.1,612.2 867.9,617.2 842.8,603.2 725.9,388.2 707.9,266.2 737.9,156.2 	"/>
	<path display="inline" fill="#B64A41" d="M738.3,233.2l-30.4,96L828,565.8l39.9,51.4h54.6l42.4,20c0,0,17.4-30.9-96.8-140.4
		C780.4,412.7,738.3,233.2,738.3,233.2z"/>
	<path display="inline" fill="#EC6762" d="M1120.4,87.3l82.1,118.9l19.4,119.4l-37,95.6c0,0,23.1-87.4-133.4-243.9
		C914.2,40.1,844.7,70,844.7,70L1023,45.3L1120.4,87.3z"/>
	<circle display="inline" fill="#FDFDFD" cx="846.8" cy="238.1" r="90"/>
	<circle display="inline" fill="#FDFDFD" cx="1087.1" cy="237.4" r="91.3"/>
	<g display="inline">
		<g>
			<path fill="#3B3A3A" d="M965.9,288.8c-8,18.7-19.9,35-35,48.1l3.3,5.3l35.3,61.2l35.3-61.2l0.9-1.5
				C988.4,327.1,974.8,309.3,965.9,288.8z"/>
			<path fill="#3B3A3A" d="M965.9,288.8c1.2-2.7,2.1-5,3-7.7h-5.9C963.8,283.5,965,286.2,965.9,288.8z"/>
		</g>
	</g>
	<path display="inline" fill="#3B3A3A" d="M1213,149.5l18.7-69.2L1162.5,99l-43.4,11.6c-10.4-2.7-21.1-4.2-32.4-4.2
		c-52.9,0-98.7,31.6-119.5,76.9c-20.6-45.3-66.4-76.9-119.6-76.9c-13.1,0-25.8,2.1-38,5.6L760.3,99l-69.2-18.7l18.7,69.2l12.8,48.1
		c-4.2,12.5-6.2,25.8-6.2,39.8c0,72.5,58.8,131.3,131.3,131.3c32.7,0,62.7-12.2,85.8-32.1c14.3-12.3,26-27.6,33.7-45
		c8.7,19.2,22.1,35.9,38.4,48.9c22.3,17.5,50.5,28.2,81.1,28.2c72.5,0,131.3-58.8,131.3-131.3c0-20.5-4.8-39.8-13.1-57L1213,149.5z
		 M922.8,280.8c-3.3,5.9-7.4,11.3-12.2,16c-15.7,16.6-38,27-62.7,27c-0.3,0-0.9,0-1.2,0s-0.9,0-1.2,0c-47.8,0-86.7-38.9-86.7-86.7
		c0-47.8,38.9-86.7,86.7-86.7c0.3,0,0.9,0,1.2,0s0.9,0,1.2,0c47.8,0,86.7,38.9,86.7,86.7C934.4,253.5,930.2,268,922.8,280.8z
		 M967.2,189.6c0,0.1,0.1,0.2,0.1,0.3C967.3,189.8,967.3,189.7,967.2,189.6L967.2,189.6z M1086.8,324.2c-22.6,0-43.1-8.6-58.5-22.6
		c-6.5-5.9-12.2-12.8-16.6-20.5c-7.4-12.8-11.6-27.6-11.6-43.4c0-47.8,38.9-86.7,86.7-86.7c47.8,0,86.7,38.9,86.7,86.7
		S1134.6,324.2,1086.8,324.2z"/>
	<path display="inline" fill="#3B3A3A" d="M1240,291.2c0-152.7-124.2-276.8-276.8-276.8S686.4,138.5,686.4,291.2
		c0,40.6,9.3,88.4,27.8,123.8l-0.1,0l0.9,1.5c1.3,2.4,2.6,4.7,4,6.9l134.3,235.1c0,0,80.7,14.6,109.6,14.6
		c25.6,0,108.3-14.6,108.3-14.6l133.1-230.4l0,0C1228.9,390.5,1240,335.2,1240,291.2z M1043.7,617.5H881.2L762.8,411l0,0
		c-17-32.6-31.9-81.1-31.9-119.8c0-128,104.3-232.3,232.3-232.3s232.3,104.3,232.3,232.3c0,38.7-14.2,84.6-31.2,117.3L1043.7,617.5z
		"/>
	<g display="inline">
		<path fill="#ECE42D" d="M1061.2,688.2c-7.8,0-15.2-2.3-21.3-6.5c-6.1,4.2-13.5,6.5-21.3,6.5c-21,0-38-17-38-38s17-38,38-38
			c7.8,0,15.2,2.3,21.3,6.5c6.1-4.2,13.5-6.5,21.3-6.5c21,0,38,17,38,38S1082.2,688.2,1061.2,688.2z"/>
		<g>
			<path fill="#3B3A3A" d="M1061.2,627.2c12.7,0,23,10.3,23,23c0,12.7-10.3,23-23,23c-9.6,0-17.9-5.9-21.3-14.4
				c-3.4,8.4-11.7,14.4-21.3,14.4c-12.7,0-23-10.3-23-23c0-12.7,10.3-23,23-23c9.6,0,17.9,5.9,21.3,14.4
				C1043.3,633.1,1051.6,627.2,1061.2,627.2 M1061.2,597.2c-7.5,0-14.7,1.6-21.3,4.4c-6.6-2.9-13.8-4.4-21.3-4.4
				c-29.2,0-53,23.8-53,53s23.8,53,53,53c7.5,0,14.7-1.6,21.3-4.4c6.6,2.9,13.8,4.4,21.3,4.4c29.2,0,53-23.8,53-53
				S1090.5,597.2,1061.2,597.2L1061.2,597.2z"/>
		</g>
	</g>
	<g display="inline">
		<path fill="#ECE42D" d="M908.4,688.2c-7.8,0-15.2-2.3-21.3-6.5c-6.1,4.2-13.5,6.5-21.3,6.5c-21,0-38-17-38-38s17-38,38-38
			c7.8,0,15.2,2.3,21.3,6.5c6.1-4.2,13.5-6.5,21.3-6.5c21,0,38,17,38,38S929.4,688.2,908.4,688.2z"/>
		<g>
			<path fill="#3B3A3A" d="M908.4,627.2c12.7,0,23,10.3,23,23c0,12.7-10.3,23-23,23c-9.6,0-17.9-5.9-21.3-14.4
				c-3.4,8.4-11.7,14.4-21.3,14.4c-12.7,0-23-10.3-23-23c0-12.7,10.3-23,23-23c9.6,0,17.9,5.9,21.3,14.4
				C890.6,633.1,898.8,627.2,908.4,627.2 M908.4,597.2c-7.5,0-14.7,1.6-21.3,4.4c-6.6-2.9-13.8-4.4-21.3-4.4c-29.2,0-53,23.8-53,53
				s23.8,53,53,53c7.5,0,14.7-1.6,21.3-4.4c6.6,2.9,13.8,4.4,21.3,4.4c29.2,0,53-23.8,53-53S937.7,597.2,908.4,597.2L908.4,597.2z"
				/>
		</g>
	</g>
	<circle display="inline" fill="#D85B4B" cx="846.8" cy="238.1" r="50.1"/>
	<circle display="inline" fill="#D85B4B" cx="1087.1" cy="237.4" r="50.1"/>
	<circle display="inline" fill="#3B3A3A" cx="846.8" cy="238.1" r="20.5"/>
	<circle display="inline" fill="#FDFDFD" cx="851.8" cy="233.1" r="9.2"/>
	<circle display="inline" fill="#3B3A3A" cx="1087.1" cy="237.4" r="20.5"/>
	<circle display="inline" fill="#FDFDFD" cx="1092.1" cy="232.4" r="9.2"/>
</g>
<g id="Ebene_2" display="none">
	<circle display="inline" fill="#EC6762" cx="193.6" cy="187.7" r="69.4"/>
	<circle display="inline" fill="#EC6762" cx="378.9" cy="187.1" r="70.4"/>
	<path display="inline" fill="#3B3A3A" d="M476,119.3L490.4,66l-53.4,14.4l-33.4,8.9c-8-2.1-16.3-3.2-25-3.2
		c-40.8,0-76.1,24.4-92.2,59.3c-15.9-35-51.2-59.3-92.2-59.3c-10.1,0-19.9,1.6-29.3,4.4l-38-10.1L73.5,66L88,119.3l9.8,37.1
		c-3.2,9.6-4.8,19.9-4.8,30.7c0,55.9,45.4,101.2,101.2,101.2c25.2,0,48.3-9.4,66.2-24.7c11-9.5,20-21.3,26-34.7
		c6.7,14.8,17,27.7,29.7,37.7c17.2,13.5,38.9,21.8,62.5,21.8c55.9,0,101.2-45.4,101.2-101.2c0-15.8-3.7-30.7-10.1-44L476,119.3z
		 M252.2,220.6c-2.5,4.6-5.7,8.7-9.4,12.4c-12.1,12.8-29.3,20.8-48.3,20.8c-0.2,0-0.7,0-0.9,0c-0.2,0-0.7,0-0.9,0
		c-36.9,0-66.9-30-66.9-66.9c0-36.9,30-66.9,66.9-66.9c0.2,0,0.7,0,0.9,0c0.2,0,0.7,0,0.9,0c36.9,0,66.9,30,66.9,66.9
		C261.1,199.5,257.9,210.7,252.2,220.6z M286.4,150.2c0,0.1,0.1,0.2,0.1,0.3C286.5,150.4,286.5,150.3,286.4,150.2L286.4,150.2z
		 M378.6,254c-17.4,0-33.2-6.6-45.1-17.4c-5-4.6-9.4-9.8-12.8-15.8c-5.7-9.8-8.9-21.3-8.9-33.4c0-36.9,30-66.9,66.9-66.9
		c36.9,0,66.9,30,66.9,66.9C445.5,224.3,415.5,254,378.6,254z"/>
	<rect x="108.2" y="176.3" display="inline" fill="#3B3A3A" width="162" height="26.2"/>
	<rect x="291.4" y="176.3" display="inline" fill="#3B3A3A" width="162" height="26.2"/>
</g>
</svg>
