<?xml version="1.0" encoding="utf-8"?>
<!-- Generator: Adobe Illustrator 18.1.1, SVG Export Plug-In . SVG Version: 6.00 Build 0)  -->
<svg version="1.1" id="Ebene_1" xmlns="http://www.w3.org/2000/svg" xmlns:xlink="http://www.w3.org/1999/xlink" x="0px" y="0px"
	 viewBox="0 0 1417.3 1133.9" enable-background="new 0 0 1417.3 1133.9" xml:space="preserve">
<ellipse fill="#B2B2B1" cx="708.7" cy="1099.8" rx="393.3" ry="14.6"/>
<g id="Ebene_1_1_">
	<polygon fill="#D3B741" points="387.1,224.2 549.4,97.8 677.2,64 774,70.2 877.6,107 963.8,168.8 1073.2,307.4 1107,466.2 
		1050,657.2 920.6,869 872.8,948.5 820.4,959.7 758.4,959.7 731.2,990.1 694.2,990.1 659.6,974.7 632.6,953.1 591.4,951.5 
		561.6,959.3 523,937.6 342.7,606.4 315.1,418.4 361.3,248.8 	"/>
	<path fill="#998328" d="M361.9,367.6l-46.8,148l185,364.4l61.4,79.2h84.2l65.4,30.8c0,0,26.8-47.6-149.2-216.4
		C426.7,644.2,361.9,367.6,361.9,367.6z"/>
	<path fill="#EFD66A" d="M950.6,142.8L1077,326l30,184l-57,147.2c0,0,35.6-134.6-205.6-375.8C633,70,526,116,526,116l274.6-38
		L950.6,142.8z"/>
	<circle fill="#FDFDFD" cx="529.2" cy="375.2" r="138.6"/>
	<circle fill="#FDFDFD" cx="899.4" cy="374" r="140.6"/>
	<path fill="#3B3A3A" d="M712.6,453.2c1.8-4.2,3.2-7.8,4.6-11.8H708C709.4,445,711.2,449.2,712.6,453.2z"/>
	<path fill="#3B3A3A" d="M774,533.6c34.4,27,77.8,43.4,125,43.4c111.6,0,202.2-90.6,202.2-202.2c0-31.6-7.4-61.4-20.2-87.8
		l12.4-47.6l28.8-106.6l-106.6,28.8l-66.8,17.8c-16-4.2-32.4-6.4-49.8-6.4c-81.6,0-152,48.6-184.2,118.6
		C683,221.8,612.6,173,530.6,173c-20.2,0-39.8,3.2-58.6,8.6l-76-20.2l-106.6-28.8l28.8,106.6l19.6,74.2c-6.4,19.2-9.6,39.8-9.6,61.4
		c0,111.6,90.6,202.2,202.2,202.2c49,0,94-17.8,129.4-47l3.8,6.2l54.4,94.2l54.4-94.2l1.4-2.2 M646.2,441.6
		c-5,9.2-11.4,17.4-18.8,24.8C603.2,492,568.8,508,530.8,508c-0.4,0-1.4,0-1.8,0s-1.4,0-1.8,0c-73.6,0-133.6-60-133.6-133.6
		s60-133.6,133.6-133.6c0.4,0,1.4,0,1.8,0s1.4,0,1.8,0c73.6,0,133.6,60,133.6,133.6C664.2,399.4,657.8,421.8,646.2,441.6z
		 M898.8,508.4c-34.8,0-66.4-13.2-90.2-34.8c-10-9.2-18.8-19.6-25.6-31.6c-11.4-19.6-17.8-42.6-17.8-66.8
		c0-73.6,60-133.6,133.6-133.6s133.6,60,133.6,133.6C1032.6,448.8,972.6,508.4,898.8,508.4z"/>
	<path fill="#3B3A3A" d="M1135,457c0-235.2-191.2-426.6-426.6-426.6c-235.2,0-426.6,191.2-426.6,426.6c0,62.6,14.2,136.2,43,190.6
		l0,0l1.4,2.4c2,3.6,4,7.2,6.2,10.8l207,362.2c0,0,124.4,22.6,168.8,22.6c39.4,0,166.8-22.6,166.8-22.6l204.8-355.2l0,0
		C1117.8,610,1135,524.8,1135,457z M832.6,959.7H582.2l-182.4-318l0,0c-26.2-50.4-49.2-125-49.2-184.6
		c0-197.2,160.6-357.8,357.8-357.8s357.8,160.6,357.8,357.8c0,59.8-22,130.4-48,180.8L832.6,959.7z"/>
	<g>
		<path fill="#EFAD2A" d="M859.6,1075.5c-11.8,0-23-3.2-32.8-8.8c-9.8,5.6-21,8.8-32.8,8.8c-36,0-65.4-29.4-65.4-65.4
			c0-36,29.4-65.4,65.4-65.4c11.8,0,23,3.2,32.8,8.8c9.8-5.6,21-8.8,32.8-8.8c36,0,65.4,29.4,65.4,65.4
			C925,1046.1,895.6,1075.5,859.6,1075.5z"/>
		<g>
			<path fill="#3B3A3A" d="M859.6,974.7c19.6,0,35.4,15.8,35.4,35.4s-15.8,35.4-35.4,35.4c-14.8,0-27.6-9.2-32.8-22.2
				c-5.2,13-18,22.2-32.8,22.2c-19.6,0-35.4-15.8-35.4-35.4c0-19.6,15.8-35.4,35.4-35.4c14.8,0,27.6,9.2,32.8,22.2
				C832,983.9,844.6,974.7,859.6,974.7 M859.6,914.6c-11.4,0-22.6,2-32.8,5.8c-10.4-3.8-21.4-5.8-32.8-5.8
				c-52.6,0-95.4,42.8-95.4,95.4c0,52.6,42.8,95.4,95.4,95.4c11.4,0,22.6-2,32.8-5.8c10.4,3.8,21.4,5.8,32.8,5.8
				c52.6,0,95.4-42.8,95.4-95.4C955,957.5,912.2,914.6,859.6,914.6L859.6,914.6z"/>
		</g>
	</g>
	<g>
		<path fill="#EFAD2A" d="M624.2,1075.5c-11.8,0-23-3.2-32.8-8.8c-9.8,5.6-21,8.8-32.8,8.8c-36,0-65.4-29.4-65.4-65.4
			c0-36,29.4-65.4,65.4-65.4c11.8,0,23,3.2,32.8,8.8c9.8-5.6,21-8.8,32.8-8.8c36,0,65.4,29.4,65.4,65.4
			C689.6,1046.1,660.2,1075.5,624.2,1075.5z"/>
		<g>
			<path fill="#3B3A3A" d="M624.2,974.7c19.6,0,35.4,15.8,35.4,35.4s-15.8,35.4-35.4,35.4c-14.8,0-27.6-9.2-32.8-22.2
				c-5.2,13-18,22.2-32.8,22.2c-19.6,0-35.4-15.8-35.4-35.4c0-19.6,15.8-35.4,35.4-35.4c14.8,0,27.6,9.2,32.8,22.2
				C596.6,983.9,609.2,974.7,624.2,974.7 M624.2,914.6c-11.4,0-22.6,2-32.8,5.8c-10.4-3.8-21.4-5.8-32.8-5.8
				c-52.6,0-95.4,42.8-95.4,95.4c0,52.6,42.8,95.4,95.4,95.4c11.4,0,22.6-2,32.8-5.8c10.4,3.8,21.4,5.8,32.8,5.8
				c52.6,0,95.4-42.8,95.4-95.4C719.6,957.5,676.8,914.6,624.2,914.6L624.2,914.6z"/>
		</g>
	</g>
	<circle fill="#D3B741" cx="529.2" cy="375.2" r="77.2"/>
	<circle fill="#D3B741" cx="899.4" cy="374" r="77.2"/>
	<circle fill="#3B3A3A" cx="529.2" cy="375.2" r="31.6"/>
	<circle fill="#FDFDFD" cx="536.8" cy="367.4" r="14.2"/>
	<circle fill="#3B3A3A" cx="899.4" cy="374" r="31.6"/>
	<circle fill="#FDFDFD" cx="907.2" cy="366.4" r="14.2"/>
</g>
<g id="Ebene_3" display="none">
	<polygon display="inline" fill="#5F7A92" points="1623.2,60.8 1833.6,-103.2 1999.6,-147.2 2125.2,-139.2 2259.6,-91.2 
		2371.6,-11.2 2513.7,168.8 2557.7,374.8 2483.7,622.8 2315.6,897.8 2253.6,1000.9 2185.4,1015.5 2105,1015.5 2069.6,1054.9 
		2021.6,1054.9 1976.6,1034.9 1941.6,1006.9 1888,1004.9 1849.6,1014.9 1799.4,986.9 1565.6,556.8 1529.6,312.8 1589.6,92.8 	"/>
	<path display="inline" fill="#3E5464" d="M1590.4,246.8l-60.8,192L1769.8,912l79.8,102.8h109.2l84.8,40c0,0,34.8-61.8-193.6-280.8
		C1674.6,605.8,1590.4,246.8,1590.4,246.8z"/>
	<path display="inline" fill="#709DBD" d="M2354.4-45l164.2,237.8l38.8,238.8l-74,191.2c0,0,46.2-174.8-266.8-487.8
		c-274.4-274.6-413.4-214.6-413.4-214.6l356.6-49.4L2354.4-45z"/>
	<circle display="inline" fill="#FDFDFD" cx="1807.4" cy="256.6" r="180"/>
	<circle display="inline" fill="#FDFDFD" cx="2288" cy="255.2" r="182.6"/>
	<g display="inline">
		<g>
			<path fill="#3B3A3A" d="M2045.6,358c-16,37.4-39.8,70-70,96.2l6.6,10.6l70.6,122.4l70.6-122.4l1.8-3
				C2090.6,434.6,2063.4,399,2045.6,358z"/>
			<path fill="#3B3A3A" d="M2045.6,358c2.4-5.4,4.2-10,6-15.4h-11.8C2041.4,347.4,2043.8,352.6,2045.6,358z"/>
		</g>
	</g>
	<path display="inline" fill="#3B3A3A" d="M2539.9,79.4L2577.3-59l-138.4,37.4L2352,1.6c-20.8-5.4-42.2-8.4-64.8-8.4
		c-105.8,0-197.4,63.2-239,153.8C2007,56.4,1915.4-6.6,1809-6.6c-26.2,0-51.6,4.2-76,11.2l-98.6-26.2L1496-59l37.4,138.4l25.6,96.2
		c-8.4,25-12.4,51.6-12.4,79.6c0,145,117.6,262.6,262.6,262.6c65.4,0,125.4-24.4,171.6-64.2c28.6-24.6,52-55.2,67.4-90
		c17.4,38.4,44.2,71.8,76.8,97.8c44.6,35,101,56.4,162.2,56.4c145,0,262.6-117.6,262.6-262.6c0-41-9.6-79.6-26.2-114L2539.9,79.4z
		 M1959.4,342c-6.6,11.8-14.8,22.6-24.4,32c-31.4,33.2-76,54-125.4,54c-0.6,0-1.8,0-2.4,0c-0.6,0-1.8,0-2.4,0
		c-95.6,0-173.4-77.8-173.4-173.4s77.8-173.4,173.4-173.4c0.6,0,1.8,0,2.4,0c0.6,0,1.8,0,2.4,0c95.6,0,173.4,77.8,173.4,173.4
		C1982.6,287.4,1974.2,316.4,1959.4,342z M2048.2,159.6c0,0.2,0.2,0.4,0.2,0.6C2048.4,160,2048.2,159.8,2048.2,159.6L2048.2,159.6z
		 M2287.2,428.8c-45.2,0-86.2-17.2-117-45.2c-13-11.8-24.4-25.6-33.2-41c-14.8-25.6-23.2-55.2-23.2-86.8
		c0-95.6,77.8-173.4,173.4-173.4c95.6,0,173.4,77.8,173.4,173.4S2383,428.8,2287.2,428.8z"/>
	<path display="inline" fill="#3B3A3A" d="M2593.9,362.8c0-305.4-248.4-553.6-553.6-553.6s-553.6,248.2-553.6,553.6
		c0,81.2,18.6,176.8,55.6,247.6h-0.2l1.8,3c2.6,4.8,5.2,9.4,8,13.8l268.6,470.2c0,0,161.4,29.2,219.2,29.2
		c51.2,0,216.6-29.2,216.6-29.2l266.2-460.8l0,0C2571.7,561.4,2593.9,450.8,2593.9,362.8z M2201.2,1015.5h-325l-236.8-413l0,0
		c-34-65.2-63.8-162.2-63.8-239.6c0-256,208.6-464.6,464.6-464.6s464.6,208.6,464.6,464.6c0,77.4-28.4,169.2-62.4,234.6
		L2201.2,1015.5z"/>
	<g display="inline">
		<path fill="#ECE42D" d="M2236.2,1156.9c-15.6,0-30.4-4.6-42.6-13c-12.2,8.4-27,13-42.6,13c-42,0-76-34-76-76s34-76,76-76
			c15.6,0,30.4,4.6,42.6,13c12.2-8.4,27-13,42.6-13c42,0,76,34,76,76S2278.2,1156.9,2236.2,1156.9z"/>
		<g>
			<path fill="#3B3A3A" d="M2236.2,1034.9c25.4,0,46,20.6,46,46s-20.6,46-46,46c-19.2,0-35.8-11.8-42.6-28.8
				c-6.8,16.8-23.4,28.8-42.6,28.8c-25.4,0-46-20.6-46-46s20.6-46,46-46c19.2,0,35.8,11.8,42.6,28.8
				C2200.4,1046.7,2217,1034.9,2236.2,1034.9 M2236.2,974.9c-15,0-29.4,3.2-42.6,8.8c-13.2-5.8-27.6-8.8-42.6-8.8
				c-58.4,0-106,47.6-106,106c0,58.4,47.6,106,106,106c15,0,29.4-3.2,42.6-8.8c13.2,5.8,27.6,8.8,42.6,8.8c58.4,0,106-47.6,106-106
				C2342.2,1022.3,2294.6,974.9,2236.2,974.9L2236.2,974.9z"/>
		</g>
	</g>
	<g display="inline">
		<path fill="#ECE42D" d="M1930.6,1156.9c-15.6,0-30.4-4.6-42.6-13c-12.2,8.4-27,13-42.6,13c-42,0-76-34-76-76s34-76,76-76
			c15.6,0,30.4,4.6,42.6,13c12.2-8.4,27-13,42.6-13c42,0,76,34,76,76S1972.6,1156.9,1930.6,1156.9z"/>
		<g>
			<path fill="#3B3A3A" d="M1930.6,1034.9c25.4,0,46,20.6,46,46s-20.6,46-46,46c-19.2,0-35.8-11.8-42.6-28.8
				c-6.8,16.8-23.4,28.8-42.6,28.8c-25.4,0-46-20.6-46-46s20.6-46,46-46c19.2,0,35.8,11.8,42.6,28.8
				C1894.8,1046.7,1911.4,1034.9,1930.6,1034.9 M1930.6,974.9c-15,0-29.4,3.2-42.6,8.8c-13.2-5.8-27.6-8.8-42.6-8.8
				c-58.4,0-106,47.6-106,106c0,58.4,47.6,106,106,106c15,0,29.4-3.2,42.6-8.8c13.2,5.8,27.6,8.8,42.6,8.8c58.4,0,106-47.6,106-106
				C2036.6,1022.3,1989.2,974.9,1930.6,974.9L1930.6,974.9z"/>
		</g>
	</g>
	<circle display="inline" fill="#5F7A92" cx="1807.4" cy="256.6" r="100.2"/>
	<circle display="inline" fill="#5F7A92" cx="2288" cy="255.2" r="100.2"/>
	<circle display="inline" fill="#3B3A3A" cx="1807.4" cy="256.6" r="41"/>
	<circle display="inline" fill="#FDFDFD" cx="1817.4" cy="246.6" r="18.4"/>
	<circle display="inline" fill="#3B3A3A" cx="2288" cy="255.2" r="41"/>
	<circle display="inline" fill="#FDFDFD" cx="2298" cy="245.2" r="18.4"/>
</g>
<g id="Ebene_4" display="none">
	<polygon display="inline" fill="#D85B4B" points="1651.2,280.4 1861.6,116.4 2027.6,72.4 2153.2,80.4 2287.6,128.4 2399.6,208.4 
		2541.7,388.4 2585.7,594.4 2511.7,842.4 2343.6,1117.5 2281.6,1220.5 2213.4,1235.1 2133,1235.1 2097.6,1274.5 2049.6,1274.5 
		2004.6,1254.5 1969.6,1226.5 1916,1224.5 1877.6,1234.5 1827.4,1206.5 1593.6,776.4 1557.6,532.4 1617.6,312.4 	"/>
	<path display="inline" fill="#B64A41" d="M1618.4,466.4l-60.8,192l240.2,473.2l79.8,102.8h109.2l84.8,40c0,0,34.8-61.8-193.6-280.8
		C1702.6,825.4,1618.4,466.4,1618.4,466.4z"/>
	<path display="inline" fill="#EC6762" d="M2382.6,174.6l164.2,237.8l38.8,238.8l-74,191.2c0,0,46.2-174.8-266.8-487.8
		C1970.2,80.2,1831.2,140,1831.2,140l356.6-49.4L2382.6,174.6z"/>
	<circle display="inline" fill="#FDFDFD" cx="1835.4" cy="476.2" r="180"/>
	<circle display="inline" fill="#FDFDFD" cx="2316" cy="474.8" r="182.6"/>
	<g display="inline">
		<g>
			<path fill="#3B3A3A" d="M2073.6,577.6c-16,37.4-39.8,70-70,96.2l6.6,10.6l70.6,122.4l70.6-122.4l1.8-3
				C2118.6,654.2,2091.4,618.6,2073.6,577.6z"/>
			<path fill="#3B3A3A" d="M2073.6,577.6c2.4-5.4,4.2-10,6-15.4h-11.8C2069.4,567,2071.8,572.4,2073.6,577.6z"/>
		</g>
	</g>
	<path display="inline" fill="#3B3A3A" d="M2567.9,299l37.4-138.4L2466.9,198l-86.8,23.2c-20.8-5.4-42.2-8.4-64.8-8.4
		c-105.8,0-197.4,63.2-239,153.8C2035,276,1943.4,212.8,1837,212.8c-26.2,0-51.6,4.2-76,11.2l-98.6-26L1524,160.6l37.4,138.4
		l25.6,96.2c-8.4,25-12.4,51.6-12.4,79.6c0,145,117.6,262.6,262.6,262.6c65.4,0,125.4-24.4,171.6-64.2c28.6-24.6,52-55.2,67.4-90
		c17.4,38.4,44.2,71.8,76.8,97.8c44.6,35,101,56.4,162.2,56.4c145,0,262.6-117.6,262.6-262.6c0-41-9.6-79.6-26.2-114L2567.9,299z
		 M1987.4,561.6c-6.6,11.8-14.8,22.6-24.4,32c-31.4,33.2-76,54-125.4,54c-0.6,0-1.8,0-2.4,0c-0.6,0-1.8,0-2.4,0
		c-95.6,0-173.4-77.8-173.4-173.4s77.8-173.4,173.4-173.4c0.6,0,1.8,0,2.4,0c0.6,0,1.8,0,2.4,0c95.6,0,173.4,77.8,173.4,173.4
		C2010.6,507,2002.2,536,1987.4,561.6z M2076.2,379.2c0,0.2,0.2,0.4,0.2,0.6C2076.4,379.6,2076.4,379.4,2076.2,379.2L2076.2,379.2z
		 M2315.4,648.4c-45.2,0-86.2-17.2-117-45.2c-13-11.8-24.4-25.6-33.2-41c-14.8-25.6-23.2-55.2-23.2-86.8
		c0-95.6,77.8-173.4,173.4-173.4c95.6,0,173.4,77.8,173.4,173.4S2411,648.4,2315.4,648.4z"/>
	<path display="inline" fill="#3B3A3A" d="M2621.9,582.4c0-305.4-248.4-553.6-553.6-553.6S1514.6,277,1514.6,582.4
		c0,81.2,18.6,176.8,55.6,247.6h-0.2l1.8,3c2.6,4.8,5.2,9.4,8,13.8l268.6,470.2c0,0,161.4,29.2,219.2,29.2
		c51.2,0,216.6-29.2,216.6-29.2l266.2-460.8l0,0C2599.7,781,2621.9,670.4,2621.9,582.4z M2229.2,1235.1h-325l-236.8-413l0,0
		c-34-65.2-63.8-162.2-63.8-239.6c0-256,208.6-464.6,464.6-464.6s464.6,208.6,464.6,464.6c0,77.4-28.4,169.2-62.4,234.6
		L2229.2,1235.1z"/>
	<g display="inline">
		<path fill="#ECE42D" d="M2264.2,1376.5c-15.6,0-30.4-4.6-42.6-13c-12.2,8.4-27,13-42.6,13c-42,0-76-34-76-76s34-76,76-76
			c15.6,0,30.4,4.6,42.6,13c12.2-8.4,27-13,42.6-13c42,0,76,34,76,76S2306.2,1376.5,2264.2,1376.5z"/>
		<g>
			<path fill="#3B3A3A" d="M2264.2,1254.5c25.4,0,46,20.6,46,46s-20.6,46-46,46c-19.2,0-35.8-11.8-42.6-28.8
				c-6.8,16.8-23.4,28.8-42.6,28.8c-25.4,0-46-20.6-46-46s20.6-46,46-46c19.2,0,35.8,11.8,42.6,28.8
				C2228.4,1266.3,2245,1254.5,2264.2,1254.5 M2264.2,1194.5c-15,0-29.4,3.2-42.6,8.8c-13.2-5.8-27.6-8.8-42.6-8.8
				c-58.4,0-106,47.6-106,106c0,58.4,47.6,106,106,106c15,0,29.4-3.2,42.6-8.8c13.2,5.8,27.6,8.8,42.6,8.8c58.4,0,106-47.6,106-106
				C2370.2,1242.1,2322.8,1194.5,2264.2,1194.5L2264.2,1194.5z"/>
		</g>
	</g>
	<g display="inline">
		<path fill="#ECE42D" d="M1958.6,1376.5c-15.6,0-30.4-4.6-42.6-13c-12.2,8.4-27,13-42.6,13c-42,0-76-34-76-76s34-76,76-76
			c15.6,0,30.4,4.6,42.6,13c12.2-8.4,27-13,42.6-13c42,0,76,34,76,76S2000.6,1376.5,1958.6,1376.5z"/>
		<g>
			<path fill="#3B3A3A" d="M1958.6,1254.5c25.4,0,46,20.6,46,46s-20.6,46-46,46c-19.2,0-35.8-11.8-42.6-28.8
				c-6.8,16.8-23.4,28.8-42.6,28.8c-25.4,0-46-20.6-46-46s20.6-46,46-46c19.2,0,35.8,11.8,42.6,28.8
				C1923,1266.3,1939.4,1254.5,1958.6,1254.5 M1958.6,1194.5c-15,0-29.4,3.2-42.6,8.8c-13.2-5.8-27.6-8.8-42.6-8.8
				c-58.4,0-106,47.6-106,106c0,58.4,47.6,106,106,106c15,0,29.4-3.2,42.6-8.8c13.2,5.8,27.6,8.8,42.6,8.8c58.4,0,106-47.6,106-106
				C2064.6,1242.1,2017.2,1194.5,1958.6,1194.5L1958.6,1194.5z"/>
		</g>
	</g>
	<circle display="inline" fill="#D85B4B" cx="1835.4" cy="476.2" r="100.2"/>
	<circle display="inline" fill="#D85B4B" cx="2316" cy="474.8" r="100.2"/>
	<circle display="inline" fill="#3B3A3A" cx="1835.4" cy="476.2" r="41"/>
	<circle display="inline" fill="#FDFDFD" cx="1845.4" cy="466.2" r="18.4"/>
	<circle display="inline" fill="#3B3A3A" cx="2316" cy="474.8" r="41"/>
	<circle display="inline" fill="#FDFDFD" cx="2326" cy="464.8" r="18.4"/>
</g>
<g id="Ebene_2" display="none">
	<circle display="inline" fill="#EC6762" cx="529" cy="375.4" r="138.8"/>
	<circle display="inline" fill="#EC6762" cx="899.6" cy="374.2" r="140.8"/>
	<path display="inline" fill="#3B3A3A" d="M1093.8,238.6l28.8-106.6l-106.8,28.8L949,178.6c-16-4.2-32.6-6.4-50-6.4
		c-81.6,0-152.2,48.8-184.4,118.6c-31.8-70-102.4-118.6-184.4-118.6c-20.2,0-39.8,3.2-58.6,8.8l-76-20.2L288.7,132l29,106.6
		l19.6,74.2c-6.4,19.2-9.6,39.8-9.6,61.4c0,111.8,90.8,202.4,202.4,202.4c50.4,0,96.6-18.8,132.4-49.4c22-19,40-42.6,52-69.4
		c13.4,29.6,34,55.4,59.4,75.4c34.4,27,77.8,43.6,125,43.6c111.8,0,202.4-90.8,202.4-202.4c0-31.6-7.4-61.4-20.2-88L1093.8,238.6z
		 M646.2,441.2c-5,9.2-11.4,17.4-18.8,24.8c-24.2,25.6-58.6,41.6-96.6,41.6c-0.4,0-1.4,0-1.8,0s-1.4,0-1.8,0
		c-73.8,0-133.8-60-133.8-133.8S453.3,240,527.2,240c0.4,0,1.4,0,1.8,0s1.4,0,1.8,0c73.8,0,133.8,60,133.8,133.8
		C664,399,657.6,421.4,646.2,441.2z M714.6,300.4c0,0.2,0.2,0.4,0.2,0.6C714.8,300.8,714.8,300.6,714.6,300.4L714.6,300.4z M899,508
		c-34.8,0-66.4-13.2-90.2-34.8c-10-9.2-18.8-19.6-25.6-31.6c-11.4-19.6-17.8-42.6-17.8-66.8c0-73.8,60-133.8,133.8-133.8
		S1033,301,1033,374.8C1032.8,448.6,972.8,508,899,508z"/>
	<rect x="358.1" y="352.6" display="inline" fill="#3B3A3A" width="324" height="52.4"/>
	<rect x="724.6" y="352.6" display="inline" fill="#3B3A3A" width="324" height="52.4"/>
</g>
</svg>
