<?xml version="1.0" encoding="utf-8"?>
<!-- Generator: Adobe Illustrator 18.1.1, SVG Export Plug-In . SVG Version: 6.00 Build 0)  -->
<svg version="1.1" id="Ebene_1" xmlns="http://www.w3.org/2000/svg" xmlns:xlink="http://www.w3.org/1999/xlink" x="0px" y="0px"
	 viewBox="0 0 1417.3 1133.9" enable-background="new 0 0 1417.3 1133.9" xml:space="preserve">
<ellipse fill="#B2B2B1" cx="708.7" cy="1099.8" rx="393.3" ry="14.6"/>
<g>
	<g id="Ebene_1_4_">
		<polygon fill="#D85B4B" points="386.7,223.6 549,97.2 676.8,63.4 773.6,69.6 877.2,106.4 963.4,168.2 1072.8,306.8 1106.6,465.7 
			1049.6,656.7 920.2,868.5 872.4,947.9 820,959.1 758,959.1 730.8,989.5 693.8,989.5 659.2,974.1 632.2,952.5 591,950.9 
			561.2,958.7 522.6,937.1 342.3,605.9 314.7,417.8 360.9,248.2 		"/>
		<path fill="#B64A41" d="M361.5,367l-46.8,148l185,364.4l61.4,79.2h84.2l65.4,30.8c0,0,26.8-47.6-149.2-216.4
			C426.3,643.7,361.5,367,361.5,367z"/>
		<path fill="#EC6762" d="M950.2,142.2l126.4,183.2l30,184l-57,147.2c0,0,35.6-134.6-205.6-375.8
			C632.6,69.4,525.6,115.4,525.6,115.4l274.6-38L950.2,142.2z"/>
		<circle fill="#FDFDFD" cx="528.8" cy="374.6" r="138.6"/>
		<circle fill="#FDFDFD" cx="899" cy="373.4" r="140.6"/>
		<path fill="#3B3A3A" d="M712.2,452.7c1.8-4.2,3.2-7.8,4.6-11.8h-9.2C709,444.5,710.8,448.7,712.2,452.7z"/>
		<path fill="#3B3A3A" d="M773.6,533.1c34.4,27,77.8,43.4,125,43.4c111.6,0,202.2-90.6,202.2-202.2c0-31.6-7.4-61.4-20.2-87.8
			l12.4-47.6l28.8-106.6L1015.2,161l-66.8,17.8c-16-4.2-32.4-6.4-49.8-6.4c-81.6,0-152,48.6-184.2,118.6
			c-31.8-69.8-102.2-118.6-184.2-118.6c-20.2,0-39.8,3.2-58.6,8.6l-76-20.2L288.9,132l28.8,106.6l19.6,74.2
			c-6.4,19.2-9.6,39.8-9.6,61.4c0,111.6,90.6,202.2,202.2,202.2c49,0,94-17.8,129.4-47l3.8,6.2l54.4,94.2l54.4-94.2l1.4-2.2
			 M645.8,441.1c-5,9.2-11.4,17.4-18.8,24.8c-24.2,25.6-58.6,41.6-96.6,41.6c-0.4,0-1.4,0-1.8,0s-1.4,0-1.8,0
			c-73.6,0-133.6-60-133.6-133.6s60-133.6,133.6-133.6c0.4,0,1.4,0,1.8,0c0.4,0,1.4,0,1.8,0c73.6,0,133.6,60,133.6,133.6
			C663.8,398.8,657.4,421.2,645.8,441.1z M898.4,507.9c-34.8,0-66.4-13.2-90.2-34.8c-10-9.2-18.8-19.6-25.6-31.6
			c-11.4-19.6-17.8-42.6-17.8-66.8c0-73.6,60-133.6,133.6-133.6S1032,301,1032,374.6C1032.2,448.3,972.2,507.9,898.4,507.9z"/>
		<path fill="#3B3A3A" d="M1134.6,456.5c0-235.2-191.2-426.6-426.6-426.6c-235.2,0-426.6,191.2-426.6,426.6
			c0,62.6,14.2,136.2,43,190.6l0,0l1.4,2.4c2,3.6,4,7.2,6.2,10.8l207,362.2c0,0,124.4,22.6,168.8,22.6c39.4,0,166.8-22.6,166.8-22.6
			l204.8-355.2l0,0C1117.4,609.5,1134.6,524.3,1134.6,456.5z M832.2,959.1H581.8l-182.4-318l0,0c-26.2-50.4-49.2-125-49.2-184.6
			c0-197.2,160.6-357.8,357.8-357.8s357.8,160.6,357.8,357.8c0,59.8-22,130.4-48,180.8L832.2,959.1z"/>
		<g>
			<path fill="#EFAD2A" d="M859.2,1074.9c-11.8,0-23-3.2-32.8-8.8c-9.8,5.6-21,8.8-32.8,8.8c-36,0-65.4-29.4-65.4-65.4
				c0-36,29.4-65.4,65.4-65.4c11.8,0,23,3.2,32.8,8.8c9.8-5.6,21-8.8,32.8-8.8c36,0,65.4,29.4,65.4,65.4
				C924.6,1045.5,895.2,1074.9,859.2,1074.9z"/>
			<g>
				<path fill="#3B3A3A" d="M859.2,974.1c19.6,0,35.4,15.8,35.4,35.4c0,19.6-15.8,35.4-35.4,35.4c-14.8,0-27.6-9.2-32.8-22.2
					c-5.2,13-18,22.2-32.8,22.2c-19.6,0-35.4-15.8-35.4-35.4s15.8-35.4,35.4-35.4c14.8,0,27.6,9.2,32.8,22.2
					C831.6,983.3,844.2,974.1,859.2,974.1 M859.2,914.1c-11.4,0-22.6,2-32.8,5.8c-10.4-3.8-21.4-5.8-32.8-5.8
					c-52.6,0-95.4,42.8-95.4,95.4c0,52.6,42.8,95.4,95.4,95.4c11.4,0,22.6-2,32.8-5.8c10.4,3.8,21.4,5.8,32.8,5.8
					c52.6,0,95.4-42.8,95.4-95.4C954.6,956.9,911.8,914.1,859.2,914.1L859.2,914.1z"/>
			</g>
		</g>
		<g>
			<path fill="#EFAD2A" d="M623.8,1074.9c-11.8,0-23-3.2-32.8-8.8c-9.8,5.6-21,8.8-32.8,8.8c-36,0-65.4-29.4-65.4-65.4
				c0-36,29.4-65.4,65.4-65.4c11.8,0,23,3.2,32.8,8.8c9.8-5.6,21-8.8,32.8-8.8c36,0,65.4,29.4,65.4,65.4
				C689.2,1045.5,659.8,1074.9,623.8,1074.9z"/>
			<g>
				<path fill="#3B3A3A" d="M623.8,974.1c19.6,0,35.4,15.8,35.4,35.4c0,19.6-15.8,35.4-35.4,35.4c-14.8,0-27.6-9.2-32.8-22.2
					c-5.2,13-18,22.2-32.8,22.2c-19.6,0-35.4-15.8-35.4-35.4s15.8-35.4,35.4-35.4c14.8,0,27.6,9.2,32.8,22.2
					C596.2,983.3,608.8,974.1,623.8,974.1 M623.8,914.1c-11.4,0-22.6,2-32.8,5.8c-10.4-3.8-21.4-5.8-32.8-5.8
					c-52.6,0-95.4,42.8-95.4,95.4c0,52.6,42.8,95.4,95.4,95.4c11.4,0,22.6-2,32.8-5.8c10.4,3.8,21.4,5.8,32.8,5.8
					c52.6,0,95.4-42.8,95.4-95.4C719.2,956.9,676.4,914.1,623.8,914.1L623.8,914.1z"/>
			</g>
		</g>
		<circle fill="#D85B4B" cx="586.8" cy="374.6" r="77.2"/>
		<circle fill="#3B3A3A" cx="632.8" cy="374.6" r="31.6"/>
		<circle fill="#FDFDFD" cx="640.4" cy="366.8" r="14.2"/>
		<circle fill="#D85B4B" cx="842.4" cy="374.6" r="77.2"/>
		<circle fill="#3B3A3A" cx="796.4" cy="374.6" r="31.6"/>
		<circle fill="#FDFDFD" cx="788.8" cy="366.8" r="14.2"/>
	</g>
	<g id="Ebene_3_2_" display="none">
		<polygon display="inline" fill="#5F7A92" points="1622.8,60.2 1833.2,-103.8 1999.2,-147.8 2124.8,-139.8 2259.2,-91.8 
			2371.2,-11.8 2513.1,168.2 2557.1,374.2 2483.1,622.3 2315.2,897.3 2253.2,1000.3 2185,1014.9 2104.6,1014.9 2069.2,1054.3 
			2021.2,1054.3 1976.2,1034.3 1941.2,1006.3 1887.6,1004.3 1849.2,1014.3 1799,986.3 1565.2,556.3 1529.2,312.2 1589.2,92.2 		"/>
		<path display="inline" fill="#3E5464" d="M1590,246.2l-60.8,192l240.2,473.2l79.8,102.8h109.2l84.8,40c0,0,34.8-61.8-193.6-280.8
			C1674.2,605.3,1590,246.2,1590,246.2z"/>
		<path display="inline" fill="#709DBD" d="M2354-45.6l164.2,237.8l38.8,238.8l-74,191.2c0,0,46.2-174.8-266.8-487.8
			c-274.4-274.6-413.4-214.6-413.4-214.6l356.6-49.4L2354-45.6z"/>
		<circle display="inline" fill="#FDFDFD" cx="1807" cy="256" r="180"/>
		<circle display="inline" fill="#FDFDFD" cx="2287.6" cy="254.6" r="182.6"/>
		<g display="inline">
			<g>
				<path fill="#3B3A3A" d="M2045.2,357.4c-16,37.4-39.8,70-70,96.2l6.6,10.6l70.6,122.4l70.6-122.4l1.8-3
					C2090.2,434.1,2063,398.4,2045.2,357.4z"/>
				<path fill="#3B3A3A" d="M2045.2,357.4c2.4-5.4,4.2-10,6-15.4h-11.8C2041,346.8,2043.4,352,2045.2,357.4z"/>
			</g>
		</g>
		<path display="inline" fill="#3B3A3A" d="M2539.3,78.8l37.4-138.4l-138.4,37.4L2351.6,1c-20.8-5.4-42.2-8.4-64.8-8.4
			c-105.8,0-197.4,63.2-239,153.8C2006.6,55.8,1915-7.2,1808.6-7.2c-26.2,0-51.6,4.2-76,11.2L1634-22.2l-138.4-37.4L1533,78.8
			l25.6,96.2c-8.4,25-12.4,51.6-12.4,79.6c0,145,117.6,262.6,262.6,262.6c65.4,0,125.4-24.4,171.6-64.2c28.6-24.6,52-55.2,67.4-90
			c17.4,38.4,44.2,71.8,76.8,97.8c44.6,35,101,56.4,162.2,56.4c145,0,262.6-117.6,262.6-262.6c0-41-9.6-79.6-26.2-114L2539.3,78.8z
			 M1959,341.4c-6.6,11.8-14.8,22.6-24.4,32c-31.4,33.2-76,54-125.4,54c-0.6,0-1.8,0-2.4,0s-1.8,0-2.4,0
			c-95.6,0-173.4-77.8-173.4-173.4s77.8-173.4,173.4-173.4c0.6,0,1.8,0,2.4,0s1.8,0,2.4,0c95.6,0,173.4,77.8,173.4,173.4
			C1982.2,286.8,1973.8,315.8,1959,341.4z M2047.8,159c0,0.2,0.2,0.4,0.2,0.6C2048,159.4,2047.8,159.2,2047.8,159L2047.8,159z
			 M2286.8,428.2c-45.2,0-86.2-17.2-117-45.2c-13-11.8-24.4-25.6-33.2-41c-14.8-25.6-23.2-55.2-23.2-86.8
			c0-95.6,77.8-173.4,173.4-173.4s173.4,77.8,173.4,173.4S2382.6,428.2,2286.8,428.2z"/>
		<path display="inline" fill="#3B3A3A" d="M2593.3,362.2c0-305.4-248.4-553.6-553.6-553.6s-553.6,248.2-553.6,553.6
			c0,81.2,18.6,176.8,55.6,247.6h-0.2l1.8,3c2.6,4.8,5.2,9.4,8,13.8l268.6,470.2c0,0,161.4,29.2,219.2,29.2
			c51.2,0,216.6-29.2,216.6-29.2L2521.9,636l0,0C2571.1,560.9,2593.3,450.3,2593.3,362.2z M2200.8,1014.9h-325l-236.8-413l0,0
			c-34-65.2-63.8-162.2-63.8-239.6c0-256,208.6-464.6,464.6-464.6s464.6,208.6,464.6,464.6c0,77.4-28.4,169.2-62.4,234.6
			L2200.8,1014.9z"/>
		<g display="inline">
			<path fill="#ECE42D" d="M2235.8,1156.3c-15.6,0-30.4-4.6-42.6-13c-12.2,8.4-27,13-42.6,13c-42,0-76-34-76-76s34-76,76-76
				c15.6,0,30.4,4.6,42.6,13c12.2-8.4,27-13,42.6-13c42,0,76,34,76,76S2277.8,1156.3,2235.8,1156.3z"/>
			<g>
				<path fill="#3B3A3A" d="M2235.8,1034.3c25.4,0,46,20.6,46,46s-20.6,46-46,46c-19.2,0-35.8-11.8-42.6-28.8
					c-6.8,16.8-23.4,28.8-42.6,28.8c-25.4,0-46-20.6-46-46s20.6-46,46-46c19.2,0,35.8,11.8,42.6,28.8
					C2200,1046.1,2216.6,1034.3,2235.8,1034.3 M2235.8,974.3c-15,0-29.4,3.2-42.6,8.8c-13.2-5.8-27.6-8.8-42.6-8.8
					c-58.4,0-106,47.6-106,106c0,58.4,47.6,106,106,106c15,0,29.4-3.2,42.6-8.8c13.2,5.8,27.6,8.8,42.6,8.8c58.4,0,106-47.6,106-106
					C2341.8,1021.7,2294.2,974.3,2235.8,974.3L2235.8,974.3z"/>
			</g>
		</g>
		<g display="inline">
			<path fill="#ECE42D" d="M1930.2,1156.3c-15.6,0-30.4-4.6-42.6-13c-12.2,8.4-27,13-42.6,13c-42,0-76-34-76-76s34-76,76-76
				c15.6,0,30.4,4.6,42.6,13c12.2-8.4,27-13,42.6-13c42,0,76,34,76,76S1972.2,1156.3,1930.2,1156.3z"/>
			<g>
				<path fill="#3B3A3A" d="M1930.2,1034.3c25.4,0,46,20.6,46,46s-20.6,46-46,46c-19.2,0-35.8-11.8-42.6-28.8
					c-6.8,16.8-23.4,28.8-42.6,28.8c-25.4,0-46-20.6-46-46s20.6-46,46-46c19.2,0,35.8,11.8,42.6,28.8
					C1894.4,1046.1,1911,1034.3,1930.2,1034.3 M1930.2,974.3c-15,0-29.4,3.2-42.6,8.8c-13.2-5.8-27.6-8.8-42.6-8.8
					c-58.4,0-106,47.6-106,106c0,58.4,47.6,106,106,106c15,0,29.4-3.2,42.6-8.8c13.2,5.8,27.6,8.8,42.6,8.8c58.4,0,106-47.6,106-106
					C2036.2,1021.7,1988.8,974.3,1930.2,974.3L1930.2,974.3z"/>
			</g>
		</g>
		<circle display="inline" fill="#5F7A92" cx="1807" cy="256" r="100.2"/>
		<circle display="inline" fill="#5F7A92" cx="2287.6" cy="254.6" r="100.2"/>
		<circle display="inline" fill="#3B3A3A" cx="1807" cy="256" r="41"/>
		<circle display="inline" fill="#FDFDFD" cx="1817" cy="246" r="18.4"/>
		<circle display="inline" fill="#3B3A3A" cx="2287.6" cy="254.6" r="41"/>
		<circle display="inline" fill="#FDFDFD" cx="2297.6" cy="244.6" r="18.4"/>
	</g>
	<g id="Ebene_4_2_" display="none">
		<polygon display="inline" fill="#D85B4B" points="1650.8,279.8 1861.2,115.8 2027.2,71.8 2152.8,79.8 2287.2,127.8 2399.2,207.8 
			2541.1,387.8 2585.1,593.9 2511.1,841.9 2343.2,1116.9 2281.2,1219.9 2213,1234.5 2132.6,1234.5 2097.2,1273.9 2049.2,1273.9 
			2004.2,1253.9 1969.2,1225.9 1915.6,1223.9 1877.2,1233.9 1827,1205.9 1593.2,775.9 1557.2,531.9 1617.2,311.8 		"/>
		<path display="inline" fill="#B64A41" d="M1618,465.9l-60.8,192l240.2,473.2l79.8,102.8h109.2l84.8,40c0,0,34.8-61.8-193.6-280.8
			C1702.2,824.9,1618,465.9,1618,465.9z"/>
		<path display="inline" fill="#EC6762" d="M2382.2,174l164.2,237.8l38.8,238.8l-74,191.2c0,0,46.2-174.8-266.8-487.8
			c-274.6-274.4-413.6-214.6-413.6-214.6L2187.4,90L2382.2,174z"/>
		<circle display="inline" fill="#FDFDFD" cx="1835" cy="475.7" r="180"/>
		<circle display="inline" fill="#FDFDFD" cx="2315.6" cy="474.3" r="182.6"/>
		<g display="inline">
			<g>
				<path fill="#3B3A3A" d="M2073.2,577.1c-16,37.4-39.8,70-70,96.2l6.6,10.6l70.6,122.4l70.6-122.4l1.8-3
					C2118.2,653.7,2091,618.1,2073.2,577.1z"/>
				<path fill="#3B3A3A" d="M2073.2,577.1c2.4-5.4,4.2-10,6-15.4h-11.8C2069,566.5,2071.4,571.9,2073.2,577.1z"/>
			</g>
		</g>
		<path display="inline" fill="#3B3A3A" d="M2567.3,298.4l37.4-138.4l-138.4,37.4l-86.8,23.2c-20.8-5.4-42.2-8.4-64.8-8.4
			c-105.8,0-197.4,63.2-239,153.8c-41.2-90.6-132.8-153.8-239.2-153.8c-26.2,0-51.6,4.2-76,11.2l-98.6-26L1523.6,160l37.4,138.4
			l25.6,96.2c-8.4,25-12.4,51.6-12.4,79.6c0,145,117.6,262.6,262.6,262.6c65.4,0,125.4-24.4,171.6-64.2c28.6-24.6,52-55.2,67.4-90
			c17.4,38.4,44.2,71.8,76.8,97.8c44.6,35,101,56.4,162.2,56.4c145,0,262.6-117.6,262.6-262.6c0-41-9.6-79.6-26.2-114L2567.3,298.4z
			 M1987,561.1c-6.6,11.8-14.8,22.6-24.4,32c-31.4,33.2-76,54-125.4,54c-0.6,0-1.8,0-2.4,0s-1.8,0-2.4,0
			c-95.6,0-173.4-77.8-173.4-173.4s77.8-173.4,173.4-173.4c0.6,0,1.8,0,2.4,0s1.8,0,2.4,0c95.6,0,173.4,77.8,173.4,173.4
			C2010.2,506.5,2001.8,535.5,1987,561.1z M2075.8,378.6c0,0.2,0.2,0.4,0.2,0.6C2076,379,2076,378.8,2075.8,378.6L2075.8,378.6z
			 M2315,647.9c-45.2,0-86.2-17.2-117-45.2c-13-11.8-24.4-25.6-33.2-41c-14.8-25.6-23.2-55.2-23.2-86.8
			c0-95.6,77.8-173.4,173.4-173.4s173.4,77.8,173.4,173.4S2410.6,647.9,2315,647.9z"/>
		<path display="inline" fill="#3B3A3A" d="M2621.3,581.9c0-305.4-248.4-553.6-553.6-553.6s-553.6,248.2-553.6,553.6
			c0,81.2,18.6,176.8,55.6,247.6h-0.2l1.8,3c2.6,4.8,5.2,9.4,8,13.8l268.6,470.2c0,0,161.4,29.2,219.2,29.2
			c51.2,0,216.6-29.2,216.6-29.2l266.2-460.8l0,0C2599.1,780.5,2621.3,669.9,2621.3,581.9z M2228.8,1234.5h-325l-236.8-413l0,0
			c-34-65.2-63.8-162.2-63.8-239.6c0-256,208.6-464.6,464.6-464.6s464.6,208.6,464.6,464.6c0,77.4-28.4,169.2-62.4,234.6
			L2228.8,1234.5z"/>
		<g display="inline">
			<path fill="#ECE42D" d="M2263.8,1375.9c-15.6,0-30.4-4.6-42.6-13c-12.2,8.4-27,13-42.6,13c-42,0-76-34-76-76c0-42,34-76,76-76
				c15.6,0,30.4,4.6,42.6,13c12.2-8.4,27-13,42.6-13c42,0,76,34,76,76C2339.8,1341.9,2305.8,1375.9,2263.8,1375.9z"/>
			<g>
				<path fill="#3B3A3A" d="M2263.8,1253.9c25.4,0,46,20.6,46,46c0,25.4-20.6,46-46,46c-19.2,0-35.8-11.8-42.6-28.8
					c-6.8,16.8-23.4,28.8-42.6,28.8c-25.4,0-46-20.6-46-46c0-25.4,20.6-46,46-46c19.2,0,35.8,11.8,42.6,28.8
					C2228,1265.7,2244.6,1253.9,2263.8,1253.9 M2263.8,1193.9c-15,0-29.4,3.2-42.6,8.8c-13.2-5.8-27.6-8.8-42.6-8.8
					c-58.4,0-106,47.6-106,106s47.6,106,106,106c15,0,29.4-3.2,42.6-8.8c13.2,5.8,27.6,8.8,42.6,8.8c58.4,0,106-47.6,106-106
					S2322.4,1193.9,2263.8,1193.9L2263.8,1193.9z"/>
			</g>
		</g>
		<g display="inline">
			<path fill="#ECE42D" d="M1958.2,1375.9c-15.6,0-30.4-4.6-42.6-13c-12.2,8.4-27,13-42.6,13c-42,0-76-34-76-76c0-42,34-76,76-76
				c15.6,0,30.4,4.6,42.6,13c12.2-8.4,27-13,42.6-13c42,0,76,34,76,76C2034.2,1341.9,2000.2,1375.9,1958.2,1375.9z"/>
			<g>
				<path fill="#3B3A3A" d="M1958.2,1253.9c25.4,0,46,20.6,46,46c0,25.4-20.6,46-46,46c-19.2,0-35.8-11.8-42.6-28.8
					c-6.8,16.8-23.4,28.8-42.6,28.8c-25.4,0-46-20.6-46-46c0-25.4,20.6-46,46-46c19.2,0,35.8,11.8,42.6,28.8
					C1922.6,1265.7,1939,1253.9,1958.2,1253.9 M1958.2,1193.9c-15,0-29.4,3.2-42.6,8.8c-13.2-5.8-27.6-8.8-42.6-8.8
					c-58.4,0-106,47.6-106,106s47.6,106,106,106c15,0,29.4-3.2,42.6-8.8c13.2,5.8,27.6,8.8,42.6,8.8c58.4,0,106-47.6,106-106
					S2016.8,1193.9,1958.2,1193.9L1958.2,1193.9z"/>
			</g>
		</g>
		<circle display="inline" fill="#D85B4B" cx="1835" cy="475.7" r="100.2"/>
		<circle display="inline" fill="#D85B4B" cx="2315.6" cy="474.3" r="100.2"/>
		<circle display="inline" fill="#3B3A3A" cx="1835" cy="475.7" r="41"/>
		<circle display="inline" fill="#FDFDFD" cx="1845" cy="465.7" r="18.4"/>
		<circle display="inline" fill="#3B3A3A" cx="2315.6" cy="474.3" r="41"/>
		<circle display="inline" fill="#FDFDFD" cx="2325.6" cy="464.3" r="18.4"/>
	</g>
	<g id="Ebene_2_3_" display="none">
		<circle display="inline" fill="#EC6762" cx="528.6" cy="374.8" r="138.8"/>
		<circle display="inline" fill="#EC6762" cx="899.2" cy="373.6" r="140.8"/>
		<path display="inline" fill="#3B3A3A" d="M1093.4,238l28.8-106.6l-106.8,28.8L948.6,178c-16-4.2-32.6-6.4-50-6.4
			c-81.6,0-152.2,48.8-184.4,118.6c-31.8-70-102.4-118.6-184.4-118.6c-20.2,0-39.8,3.2-58.6,8.8l-76-20.2l-106.8-28.8l29,106.6
			l19.6,74.2c-6.4,19.2-9.6,39.8-9.6,61.4c0,111.8,90.8,202.4,202.4,202.4c50.4,0,96.6-18.8,132.4-49.4c22-19,40-42.6,52-69.4
			c13.4,29.6,34,55.4,59.4,75.4c34.4,27,77.8,43.6,125,43.6c111.8,0,202.4-90.8,202.4-202.4c0-31.6-7.4-61.4-20.2-88L1093.4,238z
			 M645.8,440.7c-5,9.2-11.4,17.4-18.8,24.8c-24.2,25.6-58.6,41.6-96.6,41.6c-0.4,0-1.4,0-1.8,0s-1.4,0-1.8,0
			c-73.8,0-133.8-60-133.8-133.8s60-133.8,133.8-133.8c0.4,0,1.4,0,1.8,0c0.4,0,1.4,0,1.8,0c73.8,0,133.8,60,133.8,133.8
			C663.6,398.4,657.2,420.8,645.8,440.7z M714.2,299.8c0,0.2,0.2,0.4,0.2,0.6C714.4,300.2,714.4,300,714.2,299.8L714.2,299.8z
			 M898.6,507.5c-34.8,0-66.4-13.2-90.2-34.8c-10-9.2-18.8-19.6-25.6-31.6c-11.4-19.6-17.8-42.6-17.8-66.8
			c0-73.8,60-133.8,133.8-133.8s133.8,60,133.8,133.8C1032.4,448.1,972.4,507.5,898.6,507.5z"/>
		<rect x="357.7" y="352" display="inline" fill="#3B3A3A" width="324" height="52.4"/>
		<rect x="724.2" y="352" display="inline" fill="#3B3A3A" width="324" height="52.4"/>
	</g>
</g>
<polygon fill="#3B3A3A" points="711.7,692.4 736.8,667.3 728,658.5 702.9,683.6 702.9,683.5 694.1,692.3 694.1,692.4 694.1,692.4 
	702.9,701.2 702.9,701.2 719.3,717.5 694.1,742.8 694.2,742.9 694.1,743 719.1,768 694.1,793.1 702.9,801.9 727.9,776.8 728,776.9 
	736.8,768.1 736.7,768 736.8,768 728,759.2 727.9,759.2 711.6,742.9 736.8,717.6 736.7,717.5 736.8,717.4 "/>
<g display="none">
	<ellipse display="inline" fill="#B2B2B1" cx="2523.9" cy="1657.5" rx="393.3" ry="14.6"/>
	<g id="Ebene_1_5_" display="inline">
		<polygon fill="#CFD955" points="2202.3,782 2364.6,655.6 2492.4,621.8 2589.2,628 2692.8,664.8 2779,726.6 2888.4,865.2 
			2922.2,1024 2865.2,1215 2735.8,1426.7 2688,1506.2 2635.6,1517.4 2573.6,1517.4 2546.4,1547.8 2509.4,1547.8 2474.8,1532.4 
			2447.8,1510.8 2406.6,1509.2 2376.8,1517 2338.2,1495.3 2157.9,1164.2 2130.3,976.2 2176.5,806.6 		"/>
		<path fill="#9DA035" d="M2177.1,925.4l-46.8,148l185,364.4l61.4,79.2h84.2l65.4,30.8c0,0,26.8-47.6-149.2-216.4
			C2241.9,1202,2177.1,925.4,2177.1,925.4z"/>
		<path fill="#EAE76C" d="M2765.8,700.6l126.4,183.2l30,184l-57,147.2c0,0,35.6-134.6-205.6-375.8
			c-211.4-211.4-318.4-165.4-318.4-165.4l274.6-38L2765.8,700.6z"/>
		<circle fill="#FDFDFD" cx="2344.4" cy="933" r="138.6"/>
		<circle fill="#FDFDFD" cx="2714.6" cy="931.8" r="140.6"/>
		<path fill="#3B3A3A" d="M2527.8,1011c1.8-4.2,3.2-7.8,4.6-11.8h-9.2C2524.6,1002.8,2526.4,1007,2527.8,1011z"/>
		<path fill="#3B3A3A" d="M2589.2,1091.4c34.4,27,77.8,43.4,125,43.4c111.6,0,202.2-90.6,202.2-202.2c0-31.6-7.4-61.4-20.2-87.8
			l12.4-47.6l28.8-106.6l-106.6,28.8l-66.8,17.8c-16-4.2-32.4-6.4-49.8-6.4c-81.6,0-152,48.6-184.2,118.6
			c-31.8-69.8-102.2-118.6-184.2-118.6c-20.2,0-39.8,3.2-58.6,8.6l-76-20.2l-106.6-28.8l28.8,106.6l19.6,74.2
			c-6.4,19.2-9.6,39.8-9.6,61.4c0,111.6,90.6,202.2,202.2,202.2c49,0,94-17.8,129.4-47l3.8,6.2l54.4,94.2l54.4-94.2l1.4-2.2
			 M2461.4,999.4c-5,9.2-11.4,17.4-18.8,24.8c-24.2,25.6-58.6,41.6-96.6,41.6c-0.4,0-1.4,0-1.8,0c-0.4,0-1.4,0-1.8,0
			c-73.6,0-133.6-60-133.6-133.6s60-133.6,133.6-133.6c0.4,0,1.4,0,1.8,0c0.4,0,1.4,0,1.8,0c73.6,0,133.6,60,133.6,133.6
			C2479.4,957.2,2473,979.6,2461.4,999.4z M2714,1066.2c-34.8,0-66.4-13.2-90.2-34.8c-10-9.2-18.8-19.6-25.6-31.6
			c-11.4-19.6-17.8-42.6-17.8-66.8c0-73.6,60-133.6,133.6-133.6s133.6,60,133.6,133.6C2847.8,1006.6,2787.8,1066.2,2714,1066.2z"/>
		<path fill="#3B3A3A" d="M2950.2,1014.8c0-235.2-191.2-426.6-426.6-426.6c-235.2,0-426.6,191.2-426.6,426.6
			c0,62.6,14.2,136.2,43,190.6l0,0l1.4,2.4c2,3.6,4,7.2,6.2,10.8l207,362.2c0,0,124.4,22.6,168.8,22.6c39.4,0,166.8-22.6,166.8-22.6
			l204.8-355.2l0,0C2933,1167.8,2950.2,1082.6,2950.2,1014.8z M2647.8,1517.4h-250.4l-182.4-318l0,0c-26.2-50.4-49.2-125-49.2-184.6
			c0-197.2,160.6-357.8,357.8-357.8s357.8,160.6,357.8,357.8c0,59.8-22,130.4-48,180.8L2647.8,1517.4z"/>
		<g>
			<path fill="#EFAD2A" d="M2674.8,1633.2c-11.8,0-23-3.2-32.8-8.8c-9.8,5.6-21,8.8-32.8,8.8c-36,0-65.4-29.4-65.4-65.4
				c0-36,29.4-65.4,65.4-65.4c11.8,0,23,3.2,32.8,8.8c9.8-5.6,21-8.8,32.8-8.8c36,0,65.4,29.4,65.4,65.4
				C2740.2,1603.8,2710.8,1633.2,2674.8,1633.2z"/>
			<g>
				<path fill="#3B3A3A" d="M2674.8,1532.4c19.6,0,35.4,15.8,35.4,35.4s-15.8,35.4-35.4,35.4c-14.8,0-27.6-9.2-32.8-22.2
					c-5.2,13-18,22.2-32.8,22.2c-19.6,0-35.4-15.8-35.4-35.4c0-19.6,15.8-35.4,35.4-35.4c14.8,0,27.6,9.2,32.8,22.2
					C2647.2,1541.6,2659.8,1532.4,2674.8,1532.4 M2674.8,1472.3c-11.4,0-22.6,2-32.8,5.8c-10.4-3.8-21.4-5.8-32.8-5.8
					c-52.6,0-95.4,42.8-95.4,95.4s42.8,95.4,95.4,95.4c11.4,0,22.6-2,32.8-5.8c10.4,3.8,21.4,5.8,32.8,5.8
					c52.6,0,95.4-42.8,95.4-95.4C2770.2,1515.2,2727.4,1472.3,2674.8,1472.3L2674.8,1472.3z"/>
			</g>
		</g>
		<g>
			<path fill="#EFAD2A" d="M2439.4,1633.2c-11.8,0-23-3.2-32.8-8.8c-9.8,5.6-21,8.8-32.8,8.8c-36,0-65.4-29.4-65.4-65.4
				c0-36,29.4-65.4,65.4-65.4c11.8,0,23,3.2,32.8,8.8c9.8-5.6,21-8.8,32.8-8.8c36,0,65.4,29.4,65.4,65.4
				C2504.8,1603.8,2475.4,1633.2,2439.4,1633.2z"/>
			<g>
				<path fill="#3B3A3A" d="M2439.4,1532.4c19.6,0,35.4,15.8,35.4,35.4s-15.8,35.4-35.4,35.4c-14.8,0-27.6-9.2-32.8-22.2
					c-5.2,13-18,22.2-32.8,22.2c-19.6,0-35.4-15.8-35.4-35.4c0-19.6,15.8-35.4,35.4-35.4c14.8,0,27.6,9.2,32.8,22.2
					C2411.8,1541.6,2424.4,1532.4,2439.4,1532.4 M2439.4,1472.3c-11.4,0-22.6,2-32.8,5.8c-10.4-3.8-21.4-5.8-32.8-5.8
					c-52.6,0-95.4,42.8-95.4,95.4s42.8,95.4,95.4,95.4c11.4,0,22.6-2,32.8-5.8c10.4,3.8,21.4,5.8,32.8,5.8
					c52.6,0,95.4-42.8,95.4-95.4C2534.8,1515.2,2492,1472.3,2439.4,1472.3L2439.4,1472.3z"/>
			</g>
		</g>
		<circle fill="#CFD955" cx="2344.4" cy="933" r="77.2"/>
		<circle fill="#CFD955" cx="2714.6" cy="931.8" r="77.2"/>
		<circle fill="#3B3A3A" cx="2344.4" cy="933" r="31.6"/>
		<circle fill="#FDFDFD" cx="2352" cy="925.2" r="14.2"/>
		<circle fill="#3B3A3A" cx="2714.6" cy="931.8" r="31.6"/>
		<circle fill="#FDFDFD" cx="2722.4" cy="924.2" r="14.2"/>
	</g>
	<g id="Ebene_3_4_">
		<polygon display="inline" fill="#5F7A92" points="3438.4,618.6 3648.7,454.6 3814.7,410.6 3940.3,418.6 4074.7,466.6 
			4186.7,546.6 4328.8,726.6 4372.8,932.6 4298.8,1180.6 4130.7,1455.5 4068.7,1558.6 4000.5,1573.2 3920.1,1573.2 3884.7,1612.6 
			3836.7,1612.6 3791.7,1592.6 3756.7,1564.6 3703.1,1562.6 3664.7,1572.6 3614.5,1544.6 3380.8,1114.6 3344.8,870.6 3404.8,650.6 
					"/>
		<path display="inline" fill="#3E5464" d="M3405.6,804.6l-60.8,192l240.2,473.2l79.8,102.8h109.2l84.8,40
			c0,0,34.8-61.8-193.6-280.8C3489.8,1163.6,3405.6,804.6,3405.6,804.6z"/>
		<path display="inline" fill="#709DBD" d="M4169.5,512.8l164.2,237.8l38.8,238.8l-74,191.2c0,0,46.2-174.8-266.8-487.8
			c-274.4-274.6-413.4-214.6-413.4-214.6l356.6-49.4L4169.5,512.8z"/>
		<circle display="inline" fill="#FDFDFD" cx="3622.5" cy="814.4" r="180"/>
		<circle display="inline" fill="#FDFDFD" cx="4103.1" cy="813" r="182.6"/>
		<g display="inline">
			<g>
				<path fill="#3B3A3A" d="M3860.7,915.8c-16,37.4-39.8,70-70,96.2l6.6,10.6l70.6,122.4l70.6-122.4l1.8-3
					C3905.7,992.4,3878.5,956.8,3860.7,915.8z"/>
				<path fill="#3B3A3A" d="M3860.7,915.8c2.4-5.4,4.2-10,6-15.4h-11.8C3856.5,905.2,3858.9,910.4,3860.7,915.8z"/>
			</g>
		</g>
		<path display="inline" fill="#3B3A3A" d="M4355,637.2l37.4-138.4L4254,536.2l-86.9,23.2c-20.8-5.4-42.2-8.4-64.8-8.4
			c-105.8,0-197.4,63.2-239,153.8c-41.2-90.6-132.8-153.6-239.2-153.6c-26.2,0-51.6,4.2-76,11.2l-98.6-26.2l-138.4-37.4l37.4,138.4
			l25.6,96.2c-8.4,25-12.4,51.6-12.4,79.6c0,145,117.6,262.6,262.6,262.6c65.4,0,125.4-24.4,171.6-64.2c28.6-24.6,52-55.2,67.4-90
			c17.4,38.4,44.2,71.8,76.8,97.8c44.6,35,101,56.4,162.2,56.4c145,0,262.6-117.6,262.6-262.6c0-41-9.6-79.6-26.2-114L4355,637.2z
			 M3774.5,899.8c-6.6,11.8-14.8,22.6-24.4,32c-31.4,33.2-76,54-125.4,54c-0.6,0-1.8,0-2.4,0c-0.6,0-1.8,0-2.4,0
			c-95.6,0-173.4-77.8-173.4-173.4S3524.3,639,3619.9,639c0.6,0,1.8,0,2.4,0c0.6,0,1.8,0,2.4,0c95.6,0,173.4,77.8,173.4,173.4
			C3797.7,845.2,3789.3,874.2,3774.5,899.8z M3863.3,717.4c0,0.2,0.2,0.4,0.2,0.6C3863.5,717.8,3863.3,717.6,3863.3,717.4
			L3863.3,717.4z M4102.3,986.6c-45.2,0-86.2-17.2-117-45.2c-13-11.8-24.4-25.6-33.2-41c-14.8-25.6-23.2-55.2-23.2-86.8
			c0-95.6,77.8-173.4,173.4-173.4c95.6,0,173.4,77.8,173.4,173.4S4198.1,986.6,4102.3,986.6z"/>
		<path display="inline" fill="#3B3A3A" d="M4409,920.6c0-305.4-248.4-553.6-553.6-553.6s-553.6,248.2-553.6,553.6
			c0,81.2,18.6,176.8,55.6,247.6h-0.2l1.8,3c2.6,4.8,5.2,9.4,8,13.8l268.6,470.2c0,0,161.4,29.2,219.2,29.2
			c51.2,0,216.6-29.2,216.6-29.2l266.2-460.8l0,0C4386.8,1119.2,4409,1008.6,4409,920.6z M4016.3,1573.2h-325l-236.8-413l0,0
			c-34-65.2-63.8-162.2-63.8-239.6c0-256,208.6-464.6,464.6-464.6s464.6,208.6,464.6,464.6c0,77.4-28.4,169.2-62.4,234.6
			L4016.3,1573.2z"/>
		<g display="inline">
			<path fill="#ECE42D" d="M4051.3,1714.6c-15.6,0-30.4-4.6-42.6-13c-12.2,8.4-27,13-42.6,13c-42,0-76-34-76-76s34-76,76-76
				c15.6,0,30.4,4.6,42.6,13c12.2-8.4,27-13,42.6-13c42,0,76,34,76,76S4093.3,1714.6,4051.3,1714.6z"/>
			<g>
				<path fill="#3B3A3A" d="M4051.3,1592.6c25.4,0,46,20.6,46,46s-20.6,46-46,46c-19.2,0-35.8-11.8-42.6-28.8
					c-6.8,16.8-23.4,28.8-42.6,28.8c-25.4,0-46-20.6-46-46s20.6-46,46-46c19.2,0,35.8,11.8,42.6,28.8
					C4015.5,1604.4,4032.1,1592.6,4051.3,1592.6 M4051.3,1532.6c-15,0-29.4,3.2-42.6,8.8c-13.2-5.8-27.6-8.8-42.6-8.8
					c-58.4,0-106,47.6-106,106s47.6,106,106,106c15,0,29.4-3.2,42.6-8.8c13.2,5.8,27.6,8.8,42.6,8.8c58.4,0,106-47.6,106-106
					C4157.3,1580,4109.7,1532.6,4051.3,1532.6L4051.3,1532.6z"/>
			</g>
		</g>
		<g display="inline">
			<path fill="#ECE42D" d="M3745.7,1714.6c-15.6,0-30.4-4.6-42.6-13c-12.2,8.4-27,13-42.6,13c-42,0-76-34-76-76s34-76,76-76
				c15.6,0,30.4,4.6,42.6,13c12.2-8.4,27-13,42.6-13c42,0,76,34,76,76S3787.7,1714.6,3745.7,1714.6z"/>
			<g>
				<path fill="#3B3A3A" d="M3745.7,1592.6c25.4,0,46,20.6,46,46s-20.6,46-46,46c-19.2,0-35.8-11.8-42.6-28.8
					c-6.8,16.8-23.4,28.8-42.6,28.8c-25.4,0-46-20.6-46-46s20.6-46,46-46c19.2,0,35.8,11.8,42.6,28.8
					C3709.9,1604.4,3726.5,1592.6,3745.7,1592.6 M3745.7,1532.6c-15,0-29.4,3.2-42.6,8.8c-13.2-5.8-27.6-8.8-42.6-8.8
					c-58.4,0-106,47.6-106,106s47.6,106,106,106c15,0,29.4-3.2,42.6-8.8c13.2,5.8,27.6,8.8,42.6,8.8c58.4,0,106-47.6,106-106
					C3851.7,1580,3804.3,1532.6,3745.7,1532.6L3745.7,1532.6z"/>
			</g>
		</g>
		<circle display="inline" fill="#5F7A92" cx="3622.5" cy="814.4" r="100.2"/>
		<circle display="inline" fill="#5F7A92" cx="4103.1" cy="813" r="100.2"/>
		<circle display="inline" fill="#3B3A3A" cx="3622.5" cy="814.4" r="41"/>
		<circle display="inline" fill="#FDFDFD" cx="3632.5" cy="804.4" r="18.4"/>
		<circle display="inline" fill="#3B3A3A" cx="4103.1" cy="813" r="41"/>
		<circle display="inline" fill="#FDFDFD" cx="4113.1" cy="803" r="18.4"/>
	</g>
	<g id="Ebene_4_4_">
		<polygon display="inline" fill="#D85B4B" points="3466.4,838.2 3676.7,674.2 3842.7,630.2 3968.3,638.2 4102.7,686.2 
			4214.7,766.2 4356.8,946.2 4400.8,1152.2 4326.8,1400.2 4158.7,1675.2 4096.7,1778.2 4028.5,1792.8 3948.1,1792.8 3912.7,1832.2 
			3864.7,1832.2 3819.7,1812.2 3784.7,1784.2 3731.1,1782.2 3692.7,1792.2 3642.5,1764.2 3408.8,1334.2 3372.8,1090.2 3432.8,870.2 
					"/>
		<path display="inline" fill="#B64A41" d="M3433.6,1024.2l-60.8,192l240.2,473.2l79.8,102.8h109.2l84.8,40
			c0,0,34.8-61.8-193.6-280.8C3517.7,1383.2,3433.6,1024.2,3433.6,1024.2z"/>
		<path display="inline" fill="#EC6762" d="M4197.7,732.4l164.2,237.8l38.8,238.8l-74,191.2c0,0,46.2-174.8-266.8-487.8
			c-274.6-274.4-413.6-214.6-413.6-214.6l356.6-49.4L4197.7,732.4z"/>
		<circle display="inline" fill="#FDFDFD" cx="3650.5" cy="1034" r="180"/>
		<circle display="inline" fill="#FDFDFD" cx="4131.1" cy="1032.6" r="182.6"/>
		<g display="inline">
			<g>
				<path fill="#3B3A3A" d="M3888.7,1135.4c-16,37.4-39.8,70-70,96.2l6.6,10.6l70.6,122.4l70.6-122.4l1.8-3
					C3933.7,1212,3906.5,1176.4,3888.7,1135.4z"/>
				<path fill="#3B3A3A" d="M3888.7,1135.4c2.4-5.4,4.2-10,6-15.4h-11.8C3884.5,1124.8,3886.9,1130.2,3888.7,1135.4z"/>
			</g>
		</g>
		<path display="inline" fill="#3B3A3A" d="M4383,856.8l37.4-138.4L4282,755.8l-86.8,23.2c-20.8-5.4-42.2-8.4-64.8-8.4
			c-105.8,0-197.4,63.2-239,153.8c-41.3-90.6-132.9-153.8-239.3-153.8c-26.2,0-51.6,4.2-76,11.2l-98.6-26l-138.4-37.4l37.4,138.4
			l25.6,96.2c-8.4,25-12.4,51.6-12.4,79.6c0,145,117.6,262.6,262.6,262.6c65.4,0,125.4-24.4,171.6-64.2c28.6-24.6,52-55.2,67.4-90
			c17.4,38.4,44.2,71.8,76.8,97.8c44.6,35,101,56.4,162.2,56.4c145,0,262.6-117.6,262.6-262.6c0-41-9.6-79.6-26.2-114L4383,856.8z
			 M3802.5,1119.4c-6.6,11.8-14.8,22.6-24.4,32c-31.4,33.2-76,54-125.4,54c-0.6,0-1.8,0-2.4,0c-0.6,0-1.8,0-2.4,0
			c-95.6,0-173.4-77.8-173.4-173.4c0-95.6,77.8-173.4,173.4-173.4c0.6,0,1.8,0,2.4,0c0.6,0,1.8,0,2.4,0
			c95.6,0,173.4,77.8,173.4,173.4C3825.7,1064.8,3817.3,1093.8,3802.5,1119.4z M3891.3,937c0,0.2,0.2,0.4,0.2,0.6
			C3891.5,937.4,3891.5,937.2,3891.3,937L3891.3,937z M4130.5,1206.2c-45.2,0-86.2-17.2-117-45.2c-13-11.8-24.4-25.6-33.2-41
			c-14.8-25.6-23.2-55.2-23.2-86.8c0-95.6,77.8-173.4,173.4-173.4s173.4,77.8,173.4,173.4S4226.1,1206.2,4130.5,1206.2z"/>
		<path display="inline" fill="#3B3A3A" d="M4437,1140.2c0-305.4-248.4-553.6-553.6-553.6s-553.7,248.2-553.7,553.6
			c0,81.2,18.6,176.8,55.6,247.6h-0.2l1.8,3c2.6,4.8,5.2,9.4,8,13.8l268.6,470.2c0,0,161.4,29.2,219.2,29.2
			c51.2,0,216.6-29.2,216.6-29.2l266.2-460.8l0,0C4414.8,1338.8,4437,1228.2,4437,1140.2z M4044.3,1792.8h-325l-236.8-413l0,0
			c-34-65.2-63.8-162.2-63.8-239.6c0-256,208.6-464.6,464.6-464.6s464.6,208.6,464.6,464.6c0,77.4-28.4,169.2-62.4,234.6
			L4044.3,1792.8z"/>
		<g display="inline">
			<path fill="#ECE42D" d="M4079.3,1934.2c-15.6,0-30.4-4.6-42.6-13c-12.2,8.4-27,13-42.6,13c-42,0-76-34-76-76c0-42,34-76,76-76
				c15.6,0,30.4,4.6,42.6,13c12.2-8.4,27-13,42.6-13c42,0,76,34,76,76C4155.3,1900.2,4121.3,1934.2,4079.3,1934.2z"/>
			<g>
				<path fill="#3B3A3A" d="M4079.3,1812.2c25.4,0,46,20.6,46,46c0,25.4-20.6,46-46,46c-19.2,0-35.8-11.8-42.6-28.8
					c-6.8,16.8-23.4,28.8-42.6,28.8c-25.4,0-46-20.6-46-46c0-25.4,20.6-46,46-46c19.2,0,35.8,11.8,42.6,28.8
					C4043.5,1824,4060.1,1812.2,4079.3,1812.2 M4079.3,1752.2c-15,0-29.4,3.2-42.6,8.8c-13.2-5.8-27.6-8.8-42.6-8.8
					c-58.4,0-106,47.6-106,106c0,58.4,47.6,106,106,106c15,0,29.4-3.2,42.6-8.8c13.2,5.8,27.6,8.8,42.6,8.8c58.4,0,106-47.6,106-106
					C4185.3,1799.8,4137.9,1752.2,4079.3,1752.2L4079.3,1752.2z"/>
			</g>
		</g>
		<g display="inline">
			<path fill="#ECE42D" d="M3773.7,1934.2c-15.6,0-30.4-4.6-42.6-13c-12.2,8.4-27,13-42.6,13c-42,0-76-34-76-76c0-42,34-76,76-76
				c15.6,0,30.4,4.6,42.6,13c12.2-8.4,27-13,42.6-13c42,0,76,34,76,76C3849.7,1900.2,3815.7,1934.2,3773.7,1934.2z"/>
			<g>
				<path fill="#3B3A3A" d="M3773.7,1812.2c25.4,0,46,20.6,46,46c0,25.4-20.6,46-46,46c-19.2,0-35.8-11.8-42.6-28.8
					c-6.8,16.8-23.4,28.8-42.6,28.8c-25.4,0-46-20.6-46-46c0-25.4,20.6-46,46-46c19.2,0,35.8,11.8,42.6,28.8
					C3738.1,1824,3754.5,1812.2,3773.7,1812.2 M3773.7,1752.2c-15,0-29.4,3.2-42.6,8.8c-13.2-5.8-27.6-8.8-42.6-8.8
					c-58.4,0-106,47.6-106,106c0,58.4,47.6,106,106,106c15,0,29.4-3.2,42.6-8.8c13.2,5.8,27.6,8.8,42.6,8.8c58.4,0,106-47.6,106-106
					C3879.7,1799.8,3832.3,1752.2,3773.7,1752.2L3773.7,1752.2z"/>
			</g>
		</g>
		<circle display="inline" fill="#D85B4B" cx="3650.5" cy="1034" r="100.2"/>
		<circle display="inline" fill="#D85B4B" cx="4131.1" cy="1032.6" r="100.2"/>
		<circle display="inline" fill="#3B3A3A" cx="3650.5" cy="1034" r="41"/>
		<circle display="inline" fill="#FDFDFD" cx="3660.5" cy="1024" r="18.4"/>
		<circle display="inline" fill="#3B3A3A" cx="4131.1" cy="1032.6" r="41"/>
		<circle display="inline" fill="#FDFDFD" cx="4141.1" cy="1022.6" r="18.4"/>
	</g>
	<g id="Ebene_2_4_">
		<circle display="inline" fill="#EAE76C" cx="2344.2" cy="933.2" r="138.8"/>
		<circle display="inline" fill="#EAE76C" cx="2714.8" cy="932" r="140.8"/>
		<path display="inline" fill="#3B3A3A" d="M2909,796.4l28.8-106.6L2831,718.6l-66.8,17.8c-16-4.2-32.6-6.4-50-6.4
			c-81.6,0-152.2,48.8-184.4,118.6c-31.8-70-102.4-118.6-184.4-118.6c-20.2,0-39.8,3.2-58.6,8.8l-76-20.2l-106.9-28.8l29,106.6
			l19.6,74.2c-6.4,19.2-9.6,39.8-9.6,61.4c0,111.8,90.8,202.4,202.4,202.4c50.4,0,96.6-18.8,132.4-49.4c22-19,40-42.6,52-69.4
			c13.4,29.6,34,55.4,59.4,75.4c34.4,27,77.8,43.6,125,43.6c111.8,0,202.4-90.8,202.4-202.4c0-31.6-7.4-61.4-20.2-88L2909,796.4z
			 M2461.4,999c-5,9.2-11.4,17.4-18.8,24.8c-24.2,25.6-58.6,41.6-96.6,41.6c-0.4,0-1.4,0-1.8,0c-0.4,0-1.4,0-1.8,0
			c-73.8,0-133.8-60-133.8-133.8s59.9-133.8,133.8-133.8c0.4,0,1.4,0,1.8,0c0.4,0,1.4,0,1.8,0c73.8,0,133.8,60,133.8,133.8
			C2479.2,956.8,2472.8,979.2,2461.4,999z M2529.8,858.2c0,0.2,0.2,0.4,0.2,0.6C2530,858.6,2530,858.4,2529.8,858.2L2529.8,858.2z
			 M2714.2,1065.8c-34.8,0-66.4-13.2-90.2-34.8c-10-9.2-18.8-19.6-25.6-31.6c-11.4-19.6-17.8-42.6-17.8-66.8
			c0-73.8,60-133.8,133.8-133.8s133.8,60,133.8,133.8C2848,1006.4,2788,1065.8,2714.2,1065.8z"/>
		<rect x="2173.3" y="910.4" display="inline" fill="#3B3A3A" width="324" height="52.4"/>
		<rect x="2539.8" y="910.4" display="inline" fill="#3B3A3A" width="324" height="52.4"/>
	</g>
	<g id="Ebene_5_1_">
		<polygon display="inline" fill="#CFD955" points="3377.6,769.2 3534.3,647 3657.9,614.2 3751.5,620.2 3851.7,656 3935.3,715.6 
			4041.1,849.8 4073.9,1003.4 4018.7,1188.2 3893.5,1393.2 3847.3,1469.7 3796.5,1480.7 3736.5,1480.7 3710.1,1510.2 3674.3,1510.2 
			3640.9,1495.1 3614.7,1474.3 3574.9,1472.7 3546.1,1480.3 3509,1459.3 3334.6,1139 3307.8,957 3352.4,793.2 		"/>
		<path display="inline" fill="#9DA035" d="M3353,908l-45.4,143l179,352.6l59.4,76.6h81.4l63.2,29.8c0,0,26-46-144.4-209.2
			C3415.8,1175.6,3353,908,3353,908z"/>
		<path display="inline" fill="#EAE76C" d="M3922.5,690.4l122.4,177.2l29,178l-55.2,142.4c0,0,34.4-130.4-198.8-363.6
			c-204.6-204.6-308.2-160-308.2-160l265.6-36.6L3922.5,690.4z"/>
		<circle display="inline" fill="#EAE76C" cx="3514.8" cy="915.2" r="134.2"/>
		<circle display="inline" fill="#EAE76C" cx="3872.9" cy="914.2" r="136"/>
		<g display="inline">
			<g>
				<path fill="#3B3A3A" d="M3692.3,990.8c-12,27.8-29.6,52.2-52.2,71.8l4.8,8l52.6,91.2l52.6-91.2l1.4-2.2
					C3725.9,1048,3705.5,1021.4,3692.3,990.8z"/>
				<path fill="#3B3A3A" d="M3692.3,990.8c1.8-4,3-7.6,4.4-11.6h-8.8C3689.1,983,3690.9,986.8,3692.3,990.8z"/>
			</g>
		</g>
		<path display="inline" fill="#3B3A3A" d="M4060.7,783.2l27.8-103.2l-103.2,27.8l-64.6,17.2c-15.4-4-31.4-6.2-48.2-6.2
			c-78.8,0-147,47-178.2,114.6c-30.6-67.6-99-114.6-178.2-114.6c-19.4,0-38.6,3-56.6,8.4l-73.4-19.4L3283,680l27.8,103.2l19,71.8
			c-6.2,18.6-9.2,38.6-9.2,59.4c0,108,87.6,195.6,195.6,195.6c48.8,0,93.4-18.2,128-47.8c21.4-18.4,38.8-41.2,50.2-67.2
			c13,28.6,33,53.6,57.4,73c33.2,26.2,75.2,42,120.8,42c108,0,195.6-87.6,195.6-195.6c0-30.6-7-59.4-19.4-85L4060.7,783.2z
			 M3628.1,979c-4.8,8.8-11,16.8-18.2,24c-23.4,24.8-56.6,40.2-93.4,40.2c-0.4,0-1.4,0-1.8,0c-0.4,0-1.4,0-1.8,0
			c-71.2,0-129.2-58-129.2-129.2s58-129.2,129.2-129.2c0.4,0,1.4,0,1.8,0c0.4,0,1.4,0,1.8,0c71.2,0,129.2,58,129.2,129.2
			C3645.3,938.2,3639.1,959.8,3628.1,979z M3694.3,843c0,0.2,0.2,0.4,0.2,0.6C3694.3,843.2,3694.3,843,3694.3,843L3694.3,843z
			 M3872.5,1043.6c-33.6,0-64.2-12.8-87.2-33.6c-9.8-8.8-18.2-19-24.8-30.6c-11-19-17.2-41.2-17.2-64.6c0-71.2,58-129.2,129.2-129.2
			c71.2,0,129.2,58,129.2,129.2S3943.7,1043.6,3872.5,1043.6z"/>
		<path display="inline" fill="#3B3A3A" d="M4100.9,994.4c0-227.6-185-412.6-412.6-412.6c-227.6,0-412.6,185-412.6,412.6
			c0,60.6,13.8,131.8,41.6,184.4l0,0l1.4,2.2c2,3.6,3.8,7,6,10.4l200.2,350.4c0,0,120.4,21.8,163.4,21.8
			c38.2,0,161.4-21.8,161.4-21.8l198.4-343.6l0,0C4084.3,1142.4,4100.9,1060,4100.9,994.4z M3808.3,1480.7h-242.2L3389.6,1173l0,0
			c-25.4-48.6-47.6-120.8-47.6-178.6c0-190.8,155.4-346.2,346.2-346.2s346.2,155.4,346.2,346.2c0,57.8-21.2,126.2-46.4,174.8
			L3808.3,1480.7z"/>
		<g display="inline">
			<path fill="#ECE42D" d="M3834.3,1593.8c-11.4,0-22.4-3-31.8-8.4c-9.4,5.4-20.4,8.4-31.8,8.4c-35.4,0-64.2-28.8-64.2-64.2
				s28.8-64.2,64.2-64.2c11.4,0,22.4,3,31.8,8.4c9.4-5.4,20.4-8.4,31.8-8.4c35.4,0,64.2,28.8,64.2,64.2S3869.9,1593.8,3834.3,1593.8
				z"/>
			<g>
				<path fill="#3B3A3A" d="M3834.3,1495.1c19,0,34.2,15.4,34.2,34.2c0,19-15.4,34.2-34.2,34.2c-14.4,0-26.6-8.8-31.8-21.4
					c-5,12.6-17.4,21.4-31.8,21.4c-19,0-34.2-15.4-34.2-34.2c0-19,15.4-34.2,34.2-34.2c14.4,0,26.6,8.8,31.8,21.4
					C3807.7,1503.9,3820.1,1495.1,3834.3,1495.1 M3834.3,1435.1c-11,0-21.8,2-31.8,5.4c-10-3.6-20.8-5.4-31.8-5.4
					c-52,0-94.2,42.2-94.2,94.2s42.2,94.2,94.2,94.2c11,0,21.8-2,31.8-5.4c10,3.6,20.8,5.4,31.8,5.4c52,0,94.2-42.2,94.2-94.2
					C3928.7,1477.5,3886.3,1435.1,3834.3,1435.1L3834.3,1435.1z"/>
			</g>
		</g>
		<g display="inline">
			<path fill="#ECE42D" d="M3606.7,1593.8c-11.4,0-22.4-3-31.8-8.4c-9.4,5.4-20.4,8.4-31.8,8.4c-35.4,0-64.2-28.8-64.2-64.2
				s28.8-64.2,64.2-64.2c11.4,0,22.4,3,31.8,8.4c9.4-5.4,20.4-8.4,31.8-8.4c35.4,0,64.2,28.8,64.2,64.2S3642.1,1593.8,3606.7,1593.8
				z"/>
			<g>
				<path fill="#3B3A3A" d="M3606.7,1495.1c19,0,34.2,15.4,34.2,34.2c0,19-15.4,34.2-34.2,34.2c-14.4,0-26.6-8.8-31.8-21.4
					c-5,12.6-17.4,21.4-31.8,21.4c-19,0-34.2-15.4-34.2-34.2c0-19,15.4-34.2,34.2-34.2c14.4,0,26.6,8.8,31.8,21.4
					C3579.9,1503.9,3592.3,1495.1,3606.7,1495.1 M3606.7,1435.1c-11,0-21.8,2-31.8,5.4c-10-3.6-20.8-5.4-31.8-5.4
					c-52,0-94.2,42.2-94.2,94.2s42.2,94.2,94.2,94.2c11,0,21.8-2,31.8-5.4c10,3.6,20.8,5.4,31.8,5.4c52,0,94.2-42.2,94.2-94.2
					C3700.9,1477.5,3658.7,1435.1,3606.7,1435.1L3606.7,1435.1z"/>
			</g>
		</g>
		<rect x="3349.8" y="893.2" display="inline" fill="#3B3A3A" width="313" height="50.8"/>
		<rect x="3703.7" y="893.2" display="inline" fill="#3B3A3A" width="313" height="50.8"/>
	</g>
</g>
</svg>
