<?xml version="1.0" encoding="utf-8"?>
<!-- Generator: Adobe Illustrator 18.1.1, SVG Export Plug-In . SVG Version: 6.00 Build 0)  -->
<svg version="1.1" id="Ebene_1" xmlns="http://www.w3.org/2000/svg" xmlns:xlink="http://www.w3.org/1999/xlink" x="0px" y="0px"
	 viewBox="0 0 566.9 566.9" enable-background="new 0 0 566.9 566.9" xml:space="preserve">
<g>
	<path fill="#ECE42D" d="M358.7,536.4c-5.9,0-11.5-1.6-16.4-4.4c-4.9,2.8-10.5,4.4-16.4,4.4c-18,0-32.7-14.7-32.7-32.7
		c0-18,14.7-32.7,32.7-32.7c5.9,0,11.5,1.6,16.4,4.4c4.9-2.8,10.5-4.4,16.4-4.4c18,0,32.7,14.7,32.7,32.7
		C391.4,521.7,376.7,536.4,358.7,536.4z"/>
	<g>
		<path fill="#555454" d="M358.7,485.9c9.8,0,17.7,7.9,17.7,17.7c0,9.8-7.9,17.7-17.7,17.7c-7.4,0-13.8-4.6-16.4-11.1
			c-2.6,6.5-9,11.1-16.4,11.1c-9.8,0-17.7-7.9-17.7-17.7c0-9.8,7.9-17.7,17.7-17.7c7.4,0,13.8,4.6,16.4,11.1
			C344.9,490.5,351.2,485.9,358.7,485.9 M358.7,455.9c-5.7,0-11.3,1-16.4,2.9c-5.2-1.9-10.7-2.9-16.4-2.9
			c-26.3,0-47.7,21.4-47.7,47.7c0,26.3,21.4,47.7,47.7,47.7c5.7,0,11.3-1,16.4-2.9c5.2,1.9,10.7,2.9,16.4,2.9
			c26.3,0,47.7-21.4,47.7-47.7C406.4,477.4,385,455.9,358.7,455.9L358.7,455.9z"/>
	</g>
</g>
<g>
	<path fill="#ECE42D" d="M241,536.4c-5.9,0-11.5-1.6-16.4-4.4c-4.9,2.8-10.5,4.4-16.4,4.4c-18,0-32.7-14.7-32.7-32.7
		c0-18,14.7-32.7,32.7-32.7c5.9,0,11.5,1.6,16.4,4.4c4.9-2.8,10.5-4.4,16.4-4.4c18,0,32.7,14.7,32.7,32.7
		C273.8,521.7,259.1,536.4,241,536.4z"/>
	<g>
		<path fill="#555454" d="M241,485.9c9.8,0,17.7,7.9,17.7,17.7c0,9.8-7.9,17.7-17.7,17.7c-7.4,0-13.8-4.6-16.4-11.1
			c-2.6,6.5-9,11.1-16.4,11.1c-9.8,0-17.7-7.9-17.7-17.7c0-9.8,7.9-17.7,17.7-17.7c7.4,0,13.8,4.6,16.4,11.1
			C227.3,490.5,233.6,485.9,241,485.9 M241,455.9c-5.7,0-11.3,1-16.4,2.9c-5.2-1.9-10.7-2.9-16.4-2.9c-26.3,0-47.7,21.4-47.7,47.7
			c0,26.3,21.4,47.7,47.7,47.7c5.7,0,11.3-1,16.4-2.9c5.2,1.9,10.7,2.9,16.4,2.9c26.3,0,47.7-21.4,47.7-47.7
			C288.8,477.4,267.4,455.9,241,455.9L241,455.9z"/>
	</g>
</g>
<circle fill="#FDFDFD" cx="193.6" cy="187.4" r="69.3"/>
<circle fill="#FDFDFD" cx="378.6" cy="186.9" r="70.3"/>
<g>
	<g>
		<path fill="#555454" d="M285.3,226.5c-6.2,14.4-15.3,27-27,37l2.5,4.1l27.2,47.1l27.2-47.1l0.7-1.1
			C302.6,256,292.1,242.3,285.3,226.5z"/>
		<path fill="#3B3A3A" d="M285.3,226.5c0.9-2.1,1.6-3.9,2.3-5.9H283C283.7,222.4,284.6,224.4,285.3,226.5z"/>
	</g>
</g>
<path fill="#555454" d="M475.5,119.2L489.9,66l-53.3,14.4l-33.4,8.9c-8-2.1-16.2-3.2-24.9-3.2c-40.7,0-76,24.3-92,59.2
	c-15.8-34.9-51.1-59.2-92-59.2c-10.1,0-19.9,1.6-29.3,4.3l-38-10.1L73.8,66l14.4,53.3l9.8,37c-3.2,9.6-4.8,19.9-4.8,30.6
	c0,55.8,45.3,101.1,101.1,101.1c25.2,0,48.2-9.4,66.1-24.7c11-9.5,20-21.3,26-34.7c6.7,14.8,17,27.7,29.6,37.7
	c17.1,13.5,38.9,21.7,62.4,21.7c55.8,0,101.1-45.3,101.1-101.1c0-15.8-3.7-30.6-10.1-43.9L475.5,119.2z M252.1,220.3
	c-2.5,4.6-5.7,8.7-9.4,12.3c-12.1,12.8-29.3,20.8-48.2,20.8c-0.2,0-0.7,0-0.9,0c-0.2,0-0.7,0-0.9,0c-36.8,0-66.8-30-66.8-66.8
	c0-36.8,30-66.8,66.8-66.8c0.2,0,0.7,0,0.9,0c0.2,0,0.7,0,0.9,0c36.8,0,66.8,30,66.8,66.8C261,199.3,257.8,210.5,252.1,220.3z
	 M286.3,150.1c0,0.1,0.1,0.2,0.1,0.3C286.4,150.2,286.3,150.1,286.3,150.1L286.3,150.1z M378.3,253.7c-17.4,0-33.2-6.6-45-17.4
	c-5-4.6-9.4-9.8-12.8-15.8c-5.7-9.8-8.9-21.3-8.9-33.4c0-36.8,30-66.8,66.8-66.8c36.8,0,66.8,30,66.8,66.8
	C445.1,224,415.1,253.7,378.3,253.7z"/>
<circle fill="#CFD955" cx="193.6" cy="187.4" r="38.5"/>
<circle fill="#CFD955" cx="378.6" cy="186.9" r="38.5"/>
<circle fill="#555454" cx="193.6" cy="187.4" r="15.8"/>
<circle fill="#FDFDFD" cx="197.4" cy="183.6" r="7.1"/>
<circle fill="#555454" cx="378.6" cy="186.9" r="15.8"/>
<circle fill="#FDFDFD" cx="382.4" cy="183" r="7.1"/>
<polygon fill="#CFD955" points="122.7,112 203.7,48.9 267.6,32 315.9,35 367.6,53.5 410.8,84.3 465.4,153.6 482.3,232.9 
	453.9,328.4 389.2,434.2 365.3,473.9 339.1,479.5 308.2,479.5 294.5,494.6 276,494.6 258.8,486.9 245.2,476.2 224.6,475.4 
	209.8,479.3 190.5,468.5 100.5,303 86.6,209 109.7,124.3 "/>
<path fill="#9DA035" d="M110,183.7l-23.4,73.9l92.5,182.1l30.7,39.6h42l32.6,15.4c0,0,13.4-23.8-74.5-108.1
	C142.5,321.9,110,183.7,110,183.7z"/>
<path fill="#EAE76C" d="M404.2,71.3l63.2,91.5l15,91.9l-28.5,73.6c0,0,17.8-67.3-102.7-187.8C245.5,35,192,58,192,58l137.2-19
	L404.2,71.3z"/>
<path fill="#555454" d="M496.3,228.3c0-117.5-95.6-213.1-213.1-213.1S70.1,110.8,70.1,228.3c0,31.2,7.1,68,21.4,95.3l0,0l0.7,1.2
	c1,1.8,2,3.6,3.1,5.3l103.4,181c0,0,62.1,11.3,84.4,11.3c19.7,0,83.3-11.3,83.3-11.3l102.4-177.4l0,0
	C487.7,304.8,496.3,262.2,496.3,228.3z M345.2,479.5H220.1l-91.2-158.9l0,0c-13.1-25.1-24.5-62.4-24.5-92.2
	c0-98.6,80.3-178.8,178.8-178.8S462,129.8,462,228.3c0,29.8-11,65.2-24,90.3L345.2,479.5z"/>
<g>
	<path fill="#36A9E1" d="M262.9,327.2c-6.9,0-12.5-5.6-12.5-12.5v-67.6c0-6.9,5.6-12.5,12.5-12.5h45.5c6.9,0,12.5,5.6,12.5,12.5
		v67.6c0,6.9-5.6,12.5-12.5,12.5H262.9z"/>
	<path fill="#555454" d="M308.3,247.1v67.6h-45.5v-67.6H308.3 M308.3,222.1h-45.5c-13.8,0-25,11.2-25,25v67.6c0,13.8,11.2,25,25,25
		h45.5c13.8,0,25-11.2,25-25v-67.6C333.3,233.3,322.2,222.1,308.3,222.1L308.3,222.1z"/>
</g>
</svg>
