<?xml version="1.0" encoding="utf-8"?>
<!-- Generator: Adobe Illustrator 18.1.1, SVG Export Plug-In . SVG Version: 6.00 Build 0)  -->
<svg version="1.1" xmlns="http://www.w3.org/2000/svg" xmlns:xlink="http://www.w3.org/1999/xlink" x="0px" y="0px"
	 viewBox="0 0 1417.3 1133.9" enable-background="new 0 0 1417.3 1133.9" xml:space="preserve">
<g id="Ebene_2">
	<ellipse fill="#B2B2B1" cx="708.7" cy="1099.8" rx="393.3" ry="14.6"/>
</g>
<g id="Ebene_1">
	<g>
		<path fill="#ECE42D" d="M859.2,1072.9c-11.8,0-23-3.2-32.8-8.8c-9.8,5.6-21,8.8-32.8,8.8c-36,0-65.4-29.4-65.4-65.4
			c0-36,29.4-65.4,65.4-65.4c11.8,0,23,3.2,32.8,8.8c9.8-5.6,21-8.8,32.8-8.8c36,0,65.4,29.4,65.4,65.4
			C924.6,1043.5,895.2,1072.9,859.2,1072.9z"/>
		<g>
			<path fill="#555454" d="M859.2,971.9c19.6,0,35.4,15.8,35.4,35.4c0,19.6-15.8,35.4-35.4,35.4c-14.8,0-27.6-9.2-32.8-22.2
				c-5.2,13-18,22.2-32.8,22.2c-19.6,0-35.4-15.8-35.4-35.4c0-19.6,15.8-35.4,35.4-35.4c14.8,0,27.6,9.2,32.8,22.2
				C831.6,981.1,844.2,971.9,859.2,971.9 M859.2,911.8c-11.4,0-22.6,2-32.8,5.8c-10.4-3.8-21.4-5.8-32.8-5.8
				c-52.6,0-95.4,42.8-95.4,95.4s42.8,95.4,95.4,95.4c11.4,0,22.6-2,32.8-5.8c10.4,3.8,21.4,5.8,32.8,5.8
				c52.6,0,95.4-42.8,95.4-95.4C954.6,954.9,911.8,911.8,859.2,911.8L859.2,911.8z"/>
		</g>
	</g>
	<g>
		<path fill="#ECE42D" d="M623.8,1072.9c-11.8,0-23-3.2-32.8-8.8c-9.8,5.6-21,8.8-32.8,8.8c-36,0-65.4-29.4-65.4-65.4
			c0-36,29.4-65.4,65.4-65.4c11.8,0,23,3.2,32.8,8.8c9.8-5.6,21-8.8,32.8-8.8c36,0,65.4,29.4,65.4,65.4
			C689.4,1043.5,660,1072.9,623.8,1072.9z"/>
		<g>
			<path fill="#555454" d="M623.8,971.9c19.6,0,35.4,15.8,35.4,35.4c0,19.6-15.8,35.4-35.4,35.4c-14.8,0-27.6-9.2-32.8-22.2
				c-5.2,13-18,22.2-32.8,22.2c-19.6,0-35.4-15.8-35.4-35.4c0-19.6,15.8-35.4,35.4-35.4c14.8,0,27.6,9.2,32.8,22.2
				C596.4,981.1,609,971.9,623.8,971.9 M623.8,911.8c-11.4,0-22.6,2-32.8,5.8c-10.4-3.8-21.4-5.8-32.8-5.8
				c-52.6,0-95.4,42.8-95.4,95.4s42.8,95.4,95.4,95.4c11.4,0,22.6-2,32.8-5.8c10.4,3.8,21.4,5.8,32.8,5.8
				c52.6,0,95.4-42.8,95.4-95.4C719.4,954.9,676.6,911.8,623.8,911.8L623.8,911.8z"/>
		</g>
	</g>
	<circle fill="#FDFDFD" cx="529" cy="374.8" r="138.6"/>
	<circle fill="#FDFDFD" cx="899" cy="373.8" r="140.6"/>
	<g>
		<g>
			<path fill="#555454" d="M712.4,453c-12.4,28.8-30.6,54-54,74l5,8.2l54.4,94.2l54.4-94.2l1.4-2.2C747,512,726,484.6,712.4,453z"/>
			<path fill="#3B3A3A" d="M712.4,453c1.8-4.2,3.2-7.8,4.6-11.8h-9.2C709.2,444.8,711,448.8,712.4,453z"/>
		</g>
	</g>
	<path fill="#555454" d="M1092.8,238.4l28.8-106.4L1015,160.8l-66.8,17.8c-16-4.2-32.4-6.4-49.8-6.4c-81.4,0-152,48.6-184,118.4
		c-31.6-69.8-102.2-118.4-184-118.4c-20.2,0-39.8,3.2-58.6,8.6l-76-20.2L289.3,132l28.8,106.6l19.6,74c-6.4,19.2-9.6,39.8-9.6,61.2
		c0,111.6,90.6,202.2,202.2,202.2c50.4,0,96.4-18.8,132.2-49.4c22-19,40-42.6,52-69.4c13.4,29.6,34,55.4,59.2,75.4
		c34.2,27,77.8,43.4,124.8,43.4c111.6,0,202.2-90.6,202.2-202.2c0-31.6-7.4-61.2-20.2-87.8L1092.8,238.4z M646,440.6
		c-5,9.2-11.4,17.4-18.8,24.6c-24.2,25.6-58.6,41.6-96.4,41.6c-0.4,0-1.4,0-1.8,0c-0.4,0-1.4,0-1.8,0c-73.6,0-133.6-60-133.6-133.6
		s60-133.6,133.6-133.6c0.4,0,1.4,0,1.8,0c0.4,0,1.4,0,1.8,0c73.6,0,133.6,60,133.6,133.6C663.8,398.6,657.4,421,646,440.6z
		 M714.4,300.2c0,0.2,0.2,0.4,0.2,0.6C714.6,300.4,714.4,300.2,714.4,300.2L714.4,300.2z M898.4,507.4c-34.8,0-66.4-13.2-90-34.8
		c-10-9.2-18.8-19.6-25.6-31.6c-11.4-19.6-17.8-42.6-17.8-66.8c0-73.6,60-133.6,133.6-133.6c73.6,0,133.6,60,133.6,133.6
		C1032,448,972,507.4,898.4,507.4z"/>
	<circle fill="#CFD955" cx="529" cy="374.8" r="77"/>
	<circle fill="#CFD955" cx="899" cy="373.8" r="77"/>
	<circle fill="#555454" cx="529" cy="374.8" r="31.6"/>
	<circle fill="#FDFDFD" cx="536.6" cy="367.2" r="14.2"/>
	<circle fill="#555454" cx="899" cy="373.8" r="31.6"/>
	<circle fill="#FDFDFD" cx="906.6" cy="366" r="14.2"/>
	<polygon fill="#CFD955" points="387.1,224 549.2,97.8 677,64 773.6,70 877,107 963.4,168.6 1072.6,307.2 1106.4,465.8 
		1049.6,656.8 920.2,868.4 872.4,947.9 820,959.1 758.2,959.1 730.8,989.3 693.8,989.3 659.4,973.9 632.2,952.5 591,950.9 
		561.4,958.7 522.8,937 342.7,606 314.9,418 361.1,248.6 	"/>
	<path fill="#9DA035" d="M361.7,367.4l-46.8,147.8l185,364.2l61.4,79.2h84l65.2,30.8c0,0,26.8-47.6-149-216.2
		C426.7,643.8,361.7,367.4,361.7,367.4z"/>
	<path fill="#EAE76C" d="M950.2,142.6l126.4,183l30,183.8l-57,147.2c0,0,35.6-134.6-205.4-375.6C632.8,70,525.8,116,525.8,116
		l274.4-38L950.2,142.6z"/>
	<path fill="#555454" d="M1134.4,456.6c0-235-191.2-426.2-426.2-426.2S281.9,221.6,281.9,456.6c0,62.4,14.2,136,42.8,190.6l0,0
		l1.4,2.4c2,3.6,4,7.2,6.2,10.6l206.8,362c0,0,124.2,22.6,168.8,22.6c39.4,0,166.6-22.6,166.6-22.6l204.8-354.8l0,0
		C1117.2,609.6,1134.4,524.4,1134.4,456.6z M832.2,959.1H582L399.5,641.2l0,0c-26.2-50.2-49-124.8-49-184.4
		c0-197.2,160.6-357.6,357.6-357.6s357.6,160.4,357.6,357.4c0,59.6-22,130.4-48,180.6L832.2,959.1z"/>
	<g>
		<path fill="#36A9E1" d="M667.6,654.4c-13.8,0-25-11.2-25-25V494.2c0-13.8,11.2-25,25-25h91c13.8,0,25,11.2,25,25v135.2
			c0,13.8-11.2,25-25,25H667.6z"/>
		<path fill="#555454" d="M758.4,494.2v135.2h-91V494.2H758.4 M758.4,444.2h-91c-27.6,0-50,22.4-50,50v135.2c0,27.6,22.4,50,50,50
			h91c27.6,0,50-22.4,50-50V494.2C808.4,466.6,786.2,444.2,758.4,444.2L758.4,444.2z"/>
	</g>
</g>
</svg>
