<?xml version="1.0" encoding="utf-8"?>
<!-- Generator: Adobe Illustrator 18.1.1, SVG Export Plug-In . SVG Version: 6.00 Build 0)  -->
<svg version="1.1" id="Ebene_1" xmlns="http://www.w3.org/2000/svg" xmlns:xlink="http://www.w3.org/1999/xlink" x="0px" y="0px"
	 viewBox="0 0 1417.3 1133.9" enable-background="new 0 0 1417.3 1133.9" xml:space="preserve">
<ellipse fill="#B2B2B1" cx="708.7" cy="1099.8" rx="393.3" ry="14.6"/>
<g>
	<g id="Ebene_1_4_">
		<polygon fill="#5F7A92" points="386.7,223.6 549,97.2 676.8,63.4 773.6,69.6 877.2,106.4 963.4,168.2 1072.8,306.8 1106.6,465.7 
			1049.6,656.7 920.2,868.5 872.4,947.9 820,959.1 758,959.1 730.8,989.5 693.8,989.5 659.2,974.1 632.2,952.5 591,950.9 
			561.2,958.7 522.6,937.1 342.3,605.9 314.7,417.8 360.9,248.2 		"/>
		<path fill="#3E5464" d="M361.5,367l-46.8,148l185,364.4l61.4,79.2h84.2l65.4,30.8c0,0,26.8-47.6-149.2-216.4
			C426.3,643.7,361.5,367,361.5,367z"/>
		<path fill="#709DBD" d="M950.2,142.2l126.4,183.2l30,184l-57,147.2c0,0,35.6-134.6-205.6-375.8
			C632.6,69.4,525.6,115.4,525.6,115.4l274.6-38L950.2,142.2z"/>
		<circle fill="#FDFDFD" cx="528.8" cy="374.6" r="138.6"/>
		<circle fill="#FDFDFD" cx="899" cy="373.4" r="140.6"/>
		<path fill="#3B3A3A" d="M712.2,452.7c1.8-4.2,3.2-7.8,4.6-11.8h-9.2C709,444.5,710.8,448.7,712.2,452.7z"/>
		<path fill="#3B3A3A" d="M773.6,533.1c34.4,27,77.8,43.4,125,43.4c111.6,0,202.2-90.6,202.2-202.2c0-31.6-7.4-61.4-20.2-87.8
			l12.4-47.6l28.8-106.6L1015.2,161l-66.8,17.8c-16-4.2-32.4-6.4-49.8-6.4c-81.6,0-152,48.6-184.2,118.6
			c-31.8-69.8-102.2-118.6-184.2-118.6c-20.2,0-39.8,3.2-58.6,8.6l-76-20.2L288.9,132l28.8,106.6l19.6,74.2
			c-6.4,19.2-9.6,39.8-9.6,61.4c0,111.6,90.6,202.2,202.2,202.2c49,0,94-17.8,129.4-47l3.8,6.2l54.4,94.2l54.4-94.2l1.4-2.2
			 M645.8,441.1c-5,9.2-11.4,17.4-18.8,24.8c-24.2,25.6-58.6,41.6-96.6,41.6c-0.4,0-1.4,0-1.8,0s-1.4,0-1.8,0
			c-73.6,0-133.6-60-133.6-133.6s60-133.6,133.6-133.6c0.4,0,1.4,0,1.8,0c0.4,0,1.4,0,1.8,0c73.6,0,133.6,60,133.6,133.6
			C663.8,398.8,657.4,421.2,645.8,441.1z M898.4,507.9c-34.8,0-66.4-13.2-90.2-34.8c-10-9.2-18.8-19.6-25.6-31.6
			c-11.4-19.6-17.8-42.6-17.8-66.8c0-73.6,60-133.6,133.6-133.6S1032,301,1032,374.6C1032.2,448.3,972.2,507.9,898.4,507.9z"/>
		<path fill="#3B3A3A" d="M1134.6,456.5c0-235.2-191.2-426.6-426.6-426.6c-235.2,0-426.6,191.2-426.6,426.6
			c0,62.6,14.2,136.2,43,190.6l0,0l1.4,2.4c2,3.6,4,7.2,6.2,10.8l207,362.2c0,0,124.4,22.6,168.8,22.6c39.4,0,166.8-22.6,166.8-22.6
			l204.8-355.2l0,0C1117.4,609.5,1134.6,524.3,1134.6,456.5z M832.2,959.1H581.8l-182.4-318l0,0c-26.2-50.4-49.2-125-49.2-184.6
			c0-197.2,160.6-357.8,357.8-357.8s357.8,160.6,357.8,357.8c0,59.8-22,130.4-48,180.8L832.2,959.1z"/>
		<g>
			<path fill="#EFAD2A" d="M859.2,1074.9c-11.8,0-23-3.2-32.8-8.8c-9.8,5.6-21,8.8-32.8,8.8c-36,0-65.4-29.4-65.4-65.4
				c0-36,29.4-65.4,65.4-65.4c11.8,0,23,3.2,32.8,8.8c9.8-5.6,21-8.8,32.8-8.8c36,0,65.4,29.4,65.4,65.4
				C924.6,1045.5,895.2,1074.9,859.2,1074.9z"/>
			<g>
				<path fill="#3B3A3A" d="M859.2,974.1c19.6,0,35.4,15.8,35.4,35.4c0,19.6-15.8,35.4-35.4,35.4c-14.8,0-27.6-9.2-32.8-22.2
					c-5.2,13-18,22.2-32.8,22.2c-19.6,0-35.4-15.8-35.4-35.4s15.8-35.4,35.4-35.4c14.8,0,27.6,9.2,32.8,22.2
					C831.6,983.3,844.2,974.1,859.2,974.1 M859.2,914.1c-11.4,0-22.6,2-32.8,5.8c-10.4-3.8-21.4-5.8-32.8-5.8
					c-52.6,0-95.4,42.8-95.4,95.4c0,52.6,42.8,95.4,95.4,95.4c11.4,0,22.6-2,32.8-5.8c10.4,3.8,21.4,5.8,32.8,5.8
					c52.6,0,95.4-42.8,95.4-95.4C954.6,956.9,911.8,914.1,859.2,914.1L859.2,914.1z"/>
			</g>
		</g>
		<g>
			<path fill="#EFAD2A" d="M623.8,1074.9c-11.8,0-23-3.2-32.8-8.8c-9.8,5.6-21,8.8-32.8,8.8c-36,0-65.4-29.4-65.4-65.4
				c0-36,29.4-65.4,65.4-65.4c11.8,0,23,3.2,32.8,8.8c9.8-5.6,21-8.8,32.8-8.8c36,0,65.4,29.4,65.4,65.4
				C689.2,1045.5,659.8,1074.9,623.8,1074.9z"/>
			<g>
				<path fill="#3B3A3A" d="M623.8,974.1c19.6,0,35.4,15.8,35.4,35.4c0,19.6-15.8,35.4-35.4,35.4c-14.8,0-27.6-9.2-32.8-22.2
					c-5.2,13-18,22.2-32.8,22.2c-19.6,0-35.4-15.8-35.4-35.4s15.8-35.4,35.4-35.4c14.8,0,27.6,9.2,32.8,22.2
					C596.2,983.3,608.8,974.1,623.8,974.1 M623.8,914.1c-11.4,0-22.6,2-32.8,5.8c-10.4-3.8-21.4-5.8-32.8-5.8
					c-52.6,0-95.4,42.8-95.4,95.4c0,52.6,42.8,95.4,95.4,95.4c11.4,0,22.6-2,32.8-5.8c10.4,3.8,21.4,5.8,32.8,5.8
					c52.6,0,95.4-42.8,95.4-95.4C719.2,956.9,676.4,914.1,623.8,914.1L623.8,914.1z"/>
			</g>
		</g>
		<circle fill="#5F7A92" cx="586.8" cy="374.6" r="77.2"/>
		<circle fill="#3B3A3A" cx="632.8" cy="374.6" r="31.6"/>
		<circle fill="#FDFDFD" cx="640.4" cy="366.8" r="14.2"/>
		<circle fill="#5F7A92" cx="842.4" cy="374.6" r="77.2"/>
		<circle fill="#3B3A3A" cx="796.4" cy="374.6" r="31.6"/>
		<circle fill="#FDFDFD" cx="788.8" cy="366.8" r="14.2"/>
	</g>
	<g id="Ebene_3_2_" display="none">
		<polygon display="inline" fill="#5F7A92" points="1622.8,60.2 1833.2,-103.8 1999.2,-147.8 2124.8,-139.8 2259.2,-91.8 
			2371.2,-11.8 2513.1,168.2 2557.1,374.2 2483.1,622.3 2315.2,897.3 2253.2,1000.3 2185,1014.9 2104.6,1014.9 2069.2,1054.3 
			2021.2,1054.3 1976.2,1034.3 1941.2,1006.3 1887.6,1004.3 1849.2,1014.3 1799,986.3 1565.2,556.3 1529.2,312.2 1589.2,92.2 		"/>
		<path display="inline" fill="#3E5464" d="M1590,246.2l-60.8,192l240.2,473.2l79.8,102.8h109.2l84.8,40c0,0,34.8-61.8-193.6-280.8
			C1674.2,605.3,1590,246.2,1590,246.2z"/>
		<path display="inline" fill="#709DBD" d="M2354-45.6l164.2,237.8l38.8,238.8l-74,191.2c0,0,46.2-174.8-266.8-487.8
			c-274.4-274.6-413.4-214.6-413.4-214.6l356.6-49.4L2354-45.6z"/>
		<circle display="inline" fill="#FDFDFD" cx="1807" cy="256" r="180"/>
		<circle display="inline" fill="#FDFDFD" cx="2287.6" cy="254.6" r="182.6"/>
		<g display="inline">
			<g>
				<path fill="#3B3A3A" d="M2045.2,357.4c-16,37.4-39.8,70-70,96.2l6.6,10.6l70.6,122.4l70.6-122.4l1.8-3
					C2090.2,434.1,2063,398.4,2045.2,357.4z"/>
				<path fill="#3B3A3A" d="M2045.2,357.4c2.4-5.4,4.2-10,6-15.4h-11.8C2041,346.8,2043.4,352,2045.2,357.4z"/>
			</g>
		</g>
		<path display="inline" fill="#3B3A3A" d="M2539.3,78.8l37.4-138.4l-138.4,37.4L2351.6,1c-20.8-5.4-42.2-8.4-64.8-8.4
			c-105.8,0-197.4,63.2-239,153.8C2006.6,55.8,1915-7.2,1808.6-7.2c-26.2,0-51.6,4.2-76,11.2L1634-22.2l-138.4-37.4L1533,78.8
			l25.6,96.2c-8.4,25-12.4,51.6-12.4,79.6c0,145,117.6,262.6,262.6,262.6c65.4,0,125.4-24.4,171.6-64.2c28.6-24.6,52-55.2,67.4-90
			c17.4,38.4,44.2,71.8,76.8,97.8c44.6,35,101,56.4,162.2,56.4c145,0,262.6-117.6,262.6-262.6c0-41-9.6-79.6-26.2-114L2539.3,78.8z
			 M1959,341.4c-6.6,11.8-14.8,22.6-24.4,32c-31.4,33.2-76,54-125.4,54c-0.6,0-1.8,0-2.4,0s-1.8,0-2.4,0
			c-95.6,0-173.4-77.8-173.4-173.4s77.8-173.4,173.4-173.4c0.6,0,1.8,0,2.4,0s1.8,0,2.4,0c95.6,0,173.4,77.8,173.4,173.4
			C1982.2,286.8,1973.8,315.8,1959,341.4z M2047.8,159c0,0.2,0.2,0.4,0.2,0.6C2048,159.4,2047.8,159.2,2047.8,159L2047.8,159z
			 M2286.8,428.2c-45.2,0-86.2-17.2-117-45.2c-13-11.8-24.4-25.6-33.2-41c-14.8-25.6-23.2-55.2-23.2-86.8
			c0-95.6,77.8-173.4,173.4-173.4s173.4,77.8,173.4,173.4S2382.6,428.2,2286.8,428.2z"/>
		<path display="inline" fill="#3B3A3A" d="M2593.3,362.2c0-305.4-248.4-553.6-553.6-553.6s-553.6,248.2-553.6,553.6
			c0,81.2,18.6,176.8,55.6,247.6h-0.2l1.8,3c2.6,4.8,5.2,9.4,8,13.8l268.6,470.2c0,0,161.4,29.2,219.2,29.2
			c51.2,0,216.6-29.2,216.6-29.2L2521.9,636l0,0C2571.1,560.9,2593.3,450.3,2593.3,362.2z M2200.8,1014.9h-325l-236.8-413l0,0
			c-34-65.2-63.8-162.2-63.8-239.6c0-256,208.6-464.6,464.6-464.6s464.6,208.6,464.6,464.6c0,77.4-28.4,169.2-62.4,234.6
			L2200.8,1014.9z"/>
		<g display="inline">
			<path fill="#ECE42D" d="M2235.8,1156.3c-15.6,0-30.4-4.6-42.6-13c-12.2,8.4-27,13-42.6,13c-42,0-76-34-76-76s34-76,76-76
				c15.6,0,30.4,4.6,42.6,13c12.2-8.4,27-13,42.6-13c42,0,76,34,76,76S2277.8,1156.3,2235.8,1156.3z"/>
			<g>
				<path fill="#3B3A3A" d="M2235.8,1034.3c25.4,0,46,20.6,46,46s-20.6,46-46,46c-19.2,0-35.8-11.8-42.6-28.8
					c-6.8,16.8-23.4,28.8-42.6,28.8c-25.4,0-46-20.6-46-46s20.6-46,46-46c19.2,0,35.8,11.8,42.6,28.8
					C2200,1046.1,2216.6,1034.3,2235.8,1034.3 M2235.8,974.3c-15,0-29.4,3.2-42.6,8.8c-13.2-5.8-27.6-8.8-42.6-8.8
					c-58.4,0-106,47.6-106,106c0,58.4,47.6,106,106,106c15,0,29.4-3.2,42.6-8.8c13.2,5.8,27.6,8.8,42.6,8.8c58.4,0,106-47.6,106-106
					C2341.8,1021.7,2294.2,974.3,2235.8,974.3L2235.8,974.3z"/>
			</g>
		</g>
		<g display="inline">
			<path fill="#ECE42D" d="M1930.2,1156.3c-15.6,0-30.4-4.6-42.6-13c-12.2,8.4-27,13-42.6,13c-42,0-76-34-76-76s34-76,76-76
				c15.6,0,30.4,4.6,42.6,13c12.2-8.4,27-13,42.6-13c42,0,76,34,76,76S1972.2,1156.3,1930.2,1156.3z"/>
			<g>
				<path fill="#3B3A3A" d="M1930.2,1034.3c25.4,0,46,20.6,46,46s-20.6,46-46,46c-19.2,0-35.8-11.8-42.6-28.8
					c-6.8,16.8-23.4,28.8-42.6,28.8c-25.4,0-46-20.6-46-46s20.6-46,46-46c19.2,0,35.8,11.8,42.6,28.8
					C1894.4,1046.1,1911,1034.3,1930.2,1034.3 M1930.2,974.3c-15,0-29.4,3.2-42.6,8.8c-13.2-5.8-27.6-8.8-42.6-8.8
					c-58.4,0-106,47.6-106,106c0,58.4,47.6,106,106,106c15,0,29.4-3.2,42.6-8.8c13.2,5.8,27.6,8.8,42.6,8.8c58.4,0,106-47.6,106-106
					C2036.2,1021.7,1988.8,974.3,1930.2,974.3L1930.2,974.3z"/>
			</g>
		</g>
		<circle display="inline" fill="#5F7A92" cx="1807" cy="256" r="100.2"/>
		<circle display="inline" fill="#5F7A92" cx="2287.6" cy="254.6" r="100.2"/>
		<circle display="inline" fill="#3B3A3A" cx="1807" cy="256" r="41"/>
		<circle display="inline" fill="#FDFDFD" cx="1817" cy="246" r="18.4"/>
		<circle display="inline" fill="#3B3A3A" cx="2287.6" cy="254.6" r="41"/>
		<circle display="inline" fill="#FDFDFD" cx="2297.6" cy="244.6" r="18.4"/>
	</g>
	<g id="Ebene_4_2_" display="none">
		<polygon display="inline" fill="#D85B4B" points="1650.8,279.8 1861.2,115.8 2027.2,71.8 2152.8,79.8 2287.2,127.8 2399.2,207.8 
			2541.1,387.8 2585.1,593.9 2511.1,841.9 2343.2,1116.9 2281.2,1219.9 2213,1234.5 2132.6,1234.5 2097.2,1273.9 2049.2,1273.9 
			2004.2,1253.9 1969.2,1225.9 1915.6,1223.9 1877.2,1233.9 1827,1205.9 1593.2,775.9 1557.2,531.9 1617.2,311.8 		"/>
		<path display="inline" fill="#B64A41" d="M1618,465.9l-60.8,192l240.2,473.2l79.8,102.8h109.2l84.8,40c0,0,34.8-61.8-193.6-280.8
			C1702.2,824.9,1618,465.9,1618,465.9z"/>
		<path display="inline" fill="#EC6762" d="M2382.2,174l164.2,237.8l38.8,238.8l-74,191.2c0,0,46.2-174.8-266.8-487.8
			c-274.6-274.4-413.6-214.6-413.6-214.6L2187.4,90L2382.2,174z"/>
		<circle display="inline" fill="#FDFDFD" cx="1835" cy="475.7" r="180"/>
		<circle display="inline" fill="#FDFDFD" cx="2315.6" cy="474.3" r="182.6"/>
		<g display="inline">
			<g>
				<path fill="#3B3A3A" d="M2073.2,577.1c-16,37.4-39.8,70-70,96.2l6.6,10.6l70.6,122.4l70.6-122.4l1.8-3
					C2118.2,653.7,2091,618.1,2073.2,577.1z"/>
				<path fill="#3B3A3A" d="M2073.2,577.1c2.4-5.4,4.2-10,6-15.4h-11.8C2069,566.5,2071.4,571.9,2073.2,577.1z"/>
			</g>
		</g>
		<path display="inline" fill="#3B3A3A" d="M2567.3,298.4l37.4-138.4l-138.4,37.4l-86.8,23.2c-20.8-5.4-42.2-8.4-64.8-8.4
			c-105.8,0-197.4,63.2-239,153.8c-41.2-90.6-132.8-153.8-239.2-153.8c-26.2,0-51.6,4.2-76,11.2l-98.6-26L1523.6,160l37.4,138.4
			l25.6,96.2c-8.4,25-12.4,51.6-12.4,79.6c0,145,117.6,262.6,262.6,262.6c65.4,0,125.4-24.4,171.6-64.2c28.6-24.6,52-55.2,67.4-90
			c17.4,38.4,44.2,71.8,76.8,97.8c44.6,35,101,56.4,162.2,56.4c145,0,262.6-117.6,262.6-262.6c0-41-9.6-79.6-26.2-114L2567.3,298.4z
			 M1987,561.1c-6.6,11.8-14.8,22.6-24.4,32c-31.4,33.2-76,54-125.4,54c-0.6,0-1.8,0-2.4,0s-1.8,0-2.4,0
			c-95.6,0-173.4-77.8-173.4-173.4s77.8-173.4,173.4-173.4c0.6,0,1.8,0,2.4,0s1.8,0,2.4,0c95.6,0,173.4,77.8,173.4,173.4
			C2010.2,506.5,2001.8,535.5,1987,561.1z M2075.8,378.6c0,0.2,0.2,0.4,0.2,0.6C2076,379,2076,378.8,2075.8,378.6L2075.8,378.6z
			 M2315,647.9c-45.2,0-86.2-17.2-117-45.2c-13-11.8-24.4-25.6-33.2-41c-14.8-25.6-23.2-55.2-23.2-86.8
			c0-95.6,77.8-173.4,173.4-173.4s173.4,77.8,173.4,173.4S2410.6,647.9,2315,647.9z"/>
		<path display="inline" fill="#3B3A3A" d="M2621.3,581.9c0-305.4-248.4-553.6-553.6-553.6s-553.6,248.2-553.6,553.6
			c0,81.2,18.6,176.8,55.6,247.6h-0.2l1.8,3c2.6,4.8,5.2,9.4,8,13.8l268.6,470.2c0,0,161.4,29.2,219.2,29.2
			c51.2,0,216.6-29.2,216.6-29.2l266.2-460.8l0,0C2599.1,780.5,2621.3,669.9,2621.3,581.9z M2228.8,1234.5h-325l-236.8-413l0,0
			c-34-65.2-63.8-162.2-63.8-239.6c0-256,208.6-464.6,464.6-464.6s464.6,208.6,464.6,464.6c0,77.4-28.4,169.2-62.4,234.6
			L2228.8,1234.5z"/>
		<g display="inline">
			<path fill="#ECE42D" d="M2263.8,1375.9c-15.6,0-30.4-4.6-42.6-13c-12.2,8.4-27,13-42.6,13c-42,0-76-34-76-76c0-42,34-76,76-76
				c15.6,0,30.4,4.6,42.6,13c12.2-8.4,27-13,42.6-13c42,0,76,34,76,76C2339.8,1341.9,2305.8,1375.9,2263.8,1375.9z"/>
			<g>
				<path fill="#3B3A3A" d="M2263.8,1253.9c25.4,0,46,20.6,46,46c0,25.4-20.6,46-46,46c-19.2,0-35.8-11.8-42.6-28.8
					c-6.8,16.8-23.4,28.8-42.6,28.8c-25.4,0-46-20.6-46-46c0-25.4,20.6-46,46-46c19.2,0,35.8,11.8,42.6,28.8
					C2228,1265.7,2244.6,1253.9,2263.8,1253.9 M2263.8,1193.9c-15,0-29.4,3.2-42.6,8.8c-13.2-5.8-27.6-8.8-42.6-8.8
					c-58.4,0-106,47.6-106,106s47.6,106,106,106c15,0,29.4-3.2,42.6-8.8c13.2,5.8,27.6,8.8,42.6,8.8c58.4,0,106-47.6,106-106
					S2322.4,1193.9,2263.8,1193.9L2263.8,1193.9z"/>
			</g>
		</g>
		<g display="inline">
			<path fill="#ECE42D" d="M1958.2,1375.9c-15.6,0-30.4-4.6-42.6-13c-12.2,8.4-27,13-42.6,13c-42,0-76-34-76-76c0-42,34-76,76-76
				c15.6,0,30.4,4.6,42.6,13c12.2-8.4,27-13,42.6-13c42,0,76,34,76,76C2034.2,1341.9,2000.2,1375.9,1958.2,1375.9z"/>
			<g>
				<path fill="#3B3A3A" d="M1958.2,1253.9c25.4,0,46,20.6,46,46c0,25.4-20.6,46-46,46c-19.2,0-35.8-11.8-42.6-28.8
					c-6.8,16.8-23.4,28.8-42.6,28.8c-25.4,0-46-20.6-46-46c0-25.4,20.6-46,46-46c19.2,0,35.8,11.8,42.6,28.8
					C1922.6,1265.7,1939,1253.9,1958.2,1253.9 M1958.2,1193.9c-15,0-29.4,3.2-42.6,8.8c-13.2-5.8-27.6-8.8-42.6-8.8
					c-58.4,0-106,47.6-106,106s47.6,106,106,106c15,0,29.4-3.2,42.6-8.8c13.2,5.8,27.6,8.8,42.6,8.8c58.4,0,106-47.6,106-106
					S2016.8,1193.9,1958.2,1193.9L1958.2,1193.9z"/>
			</g>
		</g>
		<circle display="inline" fill="#D85B4B" cx="1835" cy="475.7" r="100.2"/>
		<circle display="inline" fill="#D85B4B" cx="2315.6" cy="474.3" r="100.2"/>
		<circle display="inline" fill="#3B3A3A" cx="1835" cy="475.7" r="41"/>
		<circle display="inline" fill="#FDFDFD" cx="1845" cy="465.7" r="18.4"/>
		<circle display="inline" fill="#3B3A3A" cx="2315.6" cy="474.3" r="41"/>
		<circle display="inline" fill="#FDFDFD" cx="2325.6" cy="464.3" r="18.4"/>
	</g>
	<g id="Ebene_2_3_" display="none">
		<circle display="inline" fill="#EC6762" cx="528.6" cy="374.8" r="138.8"/>
		<circle display="inline" fill="#EC6762" cx="899.2" cy="373.6" r="140.8"/>
		<path display="inline" fill="#3B3A3A" d="M1093.4,238l28.8-106.6l-106.8,28.8L948.6,178c-16-4.2-32.6-6.4-50-6.4
			c-81.6,0-152.2,48.8-184.4,118.6c-31.8-70-102.4-118.6-184.4-118.6c-20.2,0-39.8,3.2-58.6,8.8l-76-20.2l-106.8-28.8l29,106.6
			l19.6,74.2c-6.4,19.2-9.6,39.8-9.6,61.4c0,111.8,90.8,202.4,202.4,202.4c50.4,0,96.6-18.8,132.4-49.4c22-19,40-42.6,52-69.4
			c13.4,29.6,34,55.4,59.4,75.4c34.4,27,77.8,43.6,125,43.6c111.8,0,202.4-90.8,202.4-202.4c0-31.6-7.4-61.4-20.2-88L1093.4,238z
			 M645.8,440.7c-5,9.2-11.4,17.4-18.8,24.8c-24.2,25.6-58.6,41.6-96.6,41.6c-0.4,0-1.4,0-1.8,0s-1.4,0-1.8,0
			c-73.8,0-133.8-60-133.8-133.8s60-133.8,133.8-133.8c0.4,0,1.4,0,1.8,0c0.4,0,1.4,0,1.8,0c73.8,0,133.8,60,133.8,133.8
			C663.6,398.4,657.2,420.8,645.8,440.7z M714.2,299.8c0,0.2,0.2,0.4,0.2,0.6C714.4,300.2,714.4,300,714.2,299.8L714.2,299.8z
			 M898.6,507.5c-34.8,0-66.4-13.2-90.2-34.8c-10-9.2-18.8-19.6-25.6-31.6c-11.4-19.6-17.8-42.6-17.8-66.8
			c0-73.8,60-133.8,133.8-133.8s133.8,60,133.8,133.8C1032.4,448.1,972.4,507.5,898.6,507.5z"/>
		<rect x="357.7" y="352" display="inline" fill="#3B3A3A" width="324" height="52.4"/>
		<rect x="724.2" y="352" display="inline" fill="#3B3A3A" width="324" height="52.4"/>
	</g>
</g>
<polygon fill="#3B3A3A" points="711.7,692.4 736.8,667.3 728,658.5 702.9,683.6 702.9,683.5 694.1,692.3 694.1,692.4 694.1,692.4 
	702.9,701.2 702.9,701.2 719.3,717.5 694.1,742.8 694.2,742.9 694.1,743 719.1,768 694.1,793.1 702.9,801.9 727.9,776.8 728,776.9 
	736.8,768.1 736.7,768 736.8,768 728,759.2 727.9,759.2 711.6,742.9 736.8,717.6 736.7,717.5 736.8,717.4 "/>
</svg>
