<?xml version="1.0" encoding="utf-8"?>
<!-- Generator: Adobe Illustrator 18.1.0, SVG Export Plug-In . SVG Version: 6.00 Build 0)  -->
<svg version="1.1" id="Ebene_1" xmlns="http://www.w3.org/2000/svg" xmlns:xlink="http://www.w3.org/1999/xlink" x="0px" y="0px"
	 viewBox="0 0 3000 3000" enable-background="new 0 0 3000 3000" xml:space="preserve">
<polygon fill="#D85B4B" points="649.3,593.2 1078.5,258.8 1416.7,169.3 1672.8,185.7 1946.9,283.1 2175,446.6 2464.5,813.4 
	2553.9,1233.6 2403.1,1738.9 2060.7,2299.3 1934.2,2509.4 1795.6,2539.1 1631.5,2539.1 1559.5,2619.5 1461.6,2619.5 1370.1,2578.8 
	1298.6,2521.6 1189.6,2517.4 1110.8,2538 1008.6,2480.9 531.8,1604.5 458.8,1107.1 581.1,658.3 "/>
<path fill="#B64A41" d="M582.6,972.7l-123.8,391.6l489.5,964.2l162.5,209.6h222.8l173,81.5c0,0,70.9-125.9-394.8-572.6
	C754.1,1704.5,582.6,972.7,582.6,972.7z"/>
<path fill="#EC6762" d="M2140.1,377.8l334.5,484.7l79.4,486.9l-150.8,389.5c0,0,94.2-356.1-544-994.4
	c-559.4-559.4-842.5-437.6-842.5-437.6l726.6-100.5L2140.1,377.8z"/>
<circle fill="#FDFDFD" cx="1025" cy="992.8" r="366.7"/>
<circle fill="#FDFDFD" cx="2004.6" cy="989.6" r="372"/>
<path fill="#3B3A3A" d="M1510.3,1199.2c4.8-11.1,8.5-20.6,12.2-31.2h-24.3C1501.9,1177.5,1506.6,1188.6,1510.3,1199.2z"/>
<path fill="#3B3A3A" d="M2628,1209.2c0-622.3-505.9-1128.8-1128.8-1128.8c-622.3,0-1128.8,505.9-1128.8,1128.8
	c0,165.6,37.6,360.4,113.8,504.3l0,0l3.7,6.4c5.3,9.5,10.6,19.1,16.4,28.6l547.7,958.4c0,0,329.2,59.8,446.6,59.8
	c104.3,0,441.3-59.8,441.3-59.8l541.9-939.8l0,0C2582.5,1614,2628,1388.6,2628,1209.2z M1827.8,2539.1h-662.6l-482.6-841.4l0,0
	c-69.3-133.4-130.2-330.7-130.2-488.4c0-521.8,424.9-946.7,946.7-946.7s946.7,424.9,946.7,946.7c0,158.2-58.2,345-127,478.4
	L1827.8,2539.1z"/>
<g>
	<path fill="#EFAD2A" d="M1899.3,2845.5c-31.2,0-60.9-8.5-86.8-23.3c-25.9,14.8-55.6,23.3-86.8,23.3c-95.3,0-173-77.8-173-173
		s77.8-173,173-173c31.2,0,60.9,8.5,86.8,23.3c25.9-14.8,55.6-23.3,86.8-23.3c95.3,0,173,77.8,173,173S1994.5,2845.5,1899.3,2845.5z
		"/>
	<g>
		<path fill="#3B3A3A" d="M1899.3,2578.8c51.9,0,93.7,41.8,93.7,93.7s-41.8,93.7-93.7,93.7c-39.2,0-73-24.3-86.8-58.7
			c-13.8,34.4-47.6,58.7-86.8,58.7c-51.9,0-93.7-41.8-93.7-93.7s41.8-93.7,93.7-93.7c39.2,0,73,24.3,86.8,58.7
			C1826.2,2603.1,1859.6,2578.8,1899.3,2578.8 M1899.3,2420c-30.2,0-59.8,5.3-86.8,15.3c-27.5-10.1-56.6-15.3-86.8-15.3
			c-139.2,0-252.4,113.2-252.4,252.4s113.2,252.4,252.4,252.4c30.2,0,59.8-5.3,86.8-15.3c27.5,10.1,56.6,15.3,86.8,15.3
			c139.2,0,252.4-113.2,252.4-252.4C2151.7,2533.3,2038.5,2420,1899.3,2420L1899.3,2420z"/>
	</g>
</g>
<g>
	<path fill="#EFAD2A" d="M1276.4,2845.5c-31.2,0-60.9-8.5-86.8-23.3c-25.9,14.8-55.6,23.3-86.8,23.3c-95.3,0-173-77.8-173-173
		s77.8-173,173-173c31.2,0,60.9,8.5,86.8,23.3c25.9-14.8,55.6-23.3,86.8-23.3c95.3,0,173,77.8,173,173S1371.7,2845.5,1276.4,2845.5z
		"/>
	<g>
		<path fill="#3B3A3A" d="M1276.4,2578.8c51.9,0,93.7,41.8,93.7,93.7s-41.8,93.7-93.7,93.7c-39.2,0-73-24.3-86.8-58.7
			c-13.8,34.4-47.6,58.7-86.8,58.7c-51.9,0-93.7-41.8-93.7-93.7s41.8-93.7,93.7-93.7c39.2,0,73,24.3,86.8,58.7
			C1203.4,2603.1,1236.7,2578.8,1276.4,2578.8 M1276.4,2420c-30.2,0-59.8,5.3-86.8,15.3c-27.5-10.1-56.6-15.3-86.8-15.3
			c-139.2,0-252.4,113.2-252.4,252.4s113.2,252.4,252.4,252.4c30.2,0,59.8-5.3,86.8-15.3c27.5,10.1,56.6,15.3,86.8,15.3
			c139.2,0,252.4-113.2,252.4-252.4C1528.8,2533.3,1415.6,2420,1276.4,2420L1276.4,2420z"/>
	</g>
</g>
<circle fill="#D85B4B" cx="865" cy="992.8" r="204.3"/>
<circle fill="#D85B4B" cx="1844.6" cy="989.6" r="204.3"/>
<circle fill="#3B3A3A" cx="785" cy="992.8" r="83.6"/>
<circle fill="#FDFDFD" cx="805.2" cy="972.1" r="37.6"/>
<circle fill="#3B3A3A" cx="1764.6" cy="989.6" r="83.6"/>
<circle fill="#FDFDFD" cx="1785.2" cy="969.5" r="37.6"/>
<g id="Ebene_3" display="none">
	<polygon display="inline" fill="#5F7A92" points="3919.7,160.9 4476.5,-273.1 4915.7,-389.5 5248,-368.3 5603.6,-241.3 5900,-29.6 
		6275.7,446.6 6392.1,991.7 6196.3,1647.9 5751.8,2375.6 5587.8,2648.1 5407.3,2686.7 5194.6,2686.7 5100.9,2791 4973.9,2791 
		4854.8,2738 4762.2,2664 4620.4,2658.7 4518.8,2685.1 4386,2611 3767.3,1473.3 3672.1,827.7 3830.8,245.5 	"/>
	<path display="inline" fill="#3E5464" d="M3833,653l-160.9,508l635.6,1252.1l211.1,272h288.9l224.4,105.8c0,0,92.1-163.5-512.3-743
		C4055.7,1602.9,3833,653,3833,653z"/>
	<path display="inline" fill="#709DBD" d="M5854.5-119.1L6289,510.1l102.7,631.9l-195.8,505.9c0,0,122.2-462.5-705.9-1290.7
		c-726.2-726.6-1094-567.8-1094-567.8l943.6-130.7L5854.5-119.1z"/>
	<circle display="inline" fill="#FDFDFD" cx="4407.1" cy="679" r="476.3"/>
	<circle display="inline" fill="#FDFDFD" cx="5678.8" cy="675.3" r="483.2"/>
	<g display="inline">
		<g>
			<path fill="#3B3A3A" d="M5037.4,947.3c-42.3,99-105.3,185.2-185.2,254.5l17.5,28l186.8,323.9l186.8-323.9l4.8-7.9
				C5156.5,1149.9,5084.5,1055.7,5037.4,947.3z"/>
			<path fill="#3B3A3A" d="M5037.4,947.3c6.4-14.3,11.1-26.5,15.9-40.7H5022C5026.3,919.2,5032.6,933,5037.4,947.3z"/>
		</g>
	</g>
	<path display="inline" fill="#3B3A3A" d="M6345,210.1l99-366.2l-366.2,99L5848.1,4.2c-55-14.3-111.7-22.2-171.5-22.2
		c-279.9,0-522.3,167.2-632.4,407c-109-239.7-351.4-406.4-632.9-406.4c-69.3,0-136.5,11.1-201.1,29.6l-260.9-69.3l-366.2-99
		l99,366.2l67.7,254.5c-22.2,66.1-32.8,136.5-32.8,210.6c0,383.7,311.2,694.8,694.8,694.8c173,0,331.8-64.6,454-169.9
		c75.7-65.1,137.6-146.1,178.3-238.1c46,101.6,117,190,203.2,258.8c118,92.6,267.2,149.2,429.2,149.2
		c383.7,0,694.8-311.2,694.8-694.8c0-108.5-25.4-210.6-69.3-301.6L6345,210.1z M4809.3,904.9c-17.5,31.2-39.2,59.8-64.6,84.7
		c-83.1,87.8-201.1,142.9-331.8,142.9c-1.6,0-4.8,0-6.4,0s-4.8,0-6.4,0c-253,0-458.8-205.9-458.8-458.8s205.9-458.8,458.8-458.8
		c1.6,0,4.8,0,6.4,0s4.8,0,6.4,0c253,0,458.8,205.9,458.8,458.8C4870.7,760.5,4848.5,837.2,4809.3,904.9z M5044.3,422.3
		c0,0.5,0.5,1.1,0.5,1.6C5044.8,423.4,5044.3,422.8,5044.3,422.3L5044.3,422.3z M5676.7,1134.6c-119.6,0-228.1-45.5-309.6-119.6
		c-34.4-31.2-64.6-67.7-87.8-108.5c-39.2-67.7-61.4-146.1-61.4-229.7c0-253,205.9-458.8,458.8-458.8s458.8,205.9,458.8,458.8
		S5930.1,1134.6,5676.7,1134.6z"/>
	<path display="inline" fill="#3B3A3A" d="M6487.9,960c0-808.1-657.3-1464.8-1464.8-1464.8S3558.3,151.9,3558.3,960
		c0,214.9,49.2,467.8,147.1,655.1h-0.5l4.8,7.9c6.9,12.7,13.8,24.9,21.2,36.5l710.7,1244.1c0,0,427.1,77.3,580,77.3
		c135.5,0,573.1-77.3,573.1-77.3L6299,1684.4l0,0C6429.2,1485.4,6487.9,1192.8,6487.9,960z M5449.1,2686.7h-859.9l-626.6-1092.8l0,0
		c-90-172.5-168.8-429.2-168.8-634c0-677.4,551.9-1229.3,1229.3-1229.3S6252.4,282.6,6252.4,960c0,204.8-75.1,447.7-165.1,620.7
		L5449.1,2686.7z"/>
	<g display="inline">
		<path fill="#ECE42D" d="M5541.7,3060.9c-41.3,0-80.4-12.2-112.7-34.4c-32.3,22.2-71.4,34.4-112.7,34.4
			c-111.1,0-201.1-90-201.1-201.1s90-201.1,201.1-201.1c41.3,0,80.4,12.2,112.7,34.4c32.3-22.2,71.4-34.4,112.7-34.4
			c111.1,0,201.1,90,201.1,201.1C5742.8,2970.9,5652.8,3060.9,5541.7,3060.9z"/>
		<g>
			<path fill="#3B3A3A" d="M5541.7,2738c67.2,0,121.7,54.5,121.7,121.7s-54.5,121.7-121.7,121.7c-50.8,0-94.7-31.2-112.7-76.2
				c-18,44.5-61.9,76.2-112.7,76.2c-67.2,0-121.7-54.5-121.7-121.7s54.5-121.7,121.7-121.7c50.8,0,94.7,31.2,112.7,76.2
				C5447,2769.3,5490.9,2738,5541.7,2738 M5541.7,2579.3c-39.7,0-77.8,8.5-112.7,23.3c-34.9-15.3-73-23.3-112.7-23.3
				c-154.5,0-280.5,125.9-280.5,280.5c0,154.5,125.9,280.5,280.5,280.5c39.7,0,77.8-8.5,112.7-23.3c34.9,15.3,73,23.3,112.7,23.3
				c154.5,0,280.5-125.9,280.5-280.5C5822.2,2704.7,5696.2,2579.3,5541.7,2579.3L5541.7,2579.3z"/>
		</g>
	</g>
	<g display="inline">
		<path fill="#ECE42D" d="M4733.1,3060.9c-41.3,0-80.4-12.2-112.7-34.4c-32.3,22.2-71.4,34.4-112.7,34.4
			c-111.1,0-201.1-90-201.1-201.1s90-201.1,201.1-201.1c41.3,0,80.4,12.2,112.7,34.4c32.3-22.2,71.4-34.4,112.7-34.4
			c111.1,0,201.1,90,201.1,201.1S4844.2,3060.9,4733.1,3060.9z"/>
		<g>
			<path fill="#3B3A3A" d="M4733.1,2738c67.2,0,121.7,54.5,121.7,121.7s-54.5,121.7-121.7,121.7c-50.8,0-94.7-31.2-112.7-76.2
				c-18,44.5-61.9,76.2-112.7,76.2c-67.2,0-121.7-54.5-121.7-121.7s54.5-121.7,121.7-121.7c50.8,0,94.7,31.2,112.7,76.2
				C4638.4,2769.3,4682.3,2738,4733.1,2738 M4733.1,2579.3c-39.7,0-77.8,8.5-112.7,23.3c-34.9-15.3-73-23.3-112.7-23.3
				c-154.5,0-280.5,125.9-280.5,280.5c0,154.5,125.9,280.5,280.5,280.5c39.7,0,77.8-8.5,112.7-23.3c34.9,15.3,73,23.3,112.7,23.3
				c154.5,0,280.5-125.9,280.5-280.5C5013.6,2704.7,4888.2,2579.3,4733.1,2579.3L4733.1,2579.3z"/>
		</g>
	</g>
	<circle display="inline" fill="#5F7A92" cx="4407.1" cy="679" r="265.1"/>
	<circle display="inline" fill="#5F7A92" cx="5678.8" cy="675.3" r="265.1"/>
	<circle display="inline" fill="#3B3A3A" cx="4407.1" cy="679" r="108.5"/>
	<circle display="inline" fill="#FDFDFD" cx="4433.6" cy="652.5" r="48.7"/>
	<circle display="inline" fill="#3B3A3A" cx="5678.8" cy="675.3" r="108.5"/>
	<circle display="inline" fill="#FDFDFD" cx="5705.2" cy="648.8" r="48.7"/>
</g>
<g id="Ebene_4" display="none">
	<polygon display="inline" fill="#D85B4B" points="3993.8,741.9 4550.5,308 4989.8,191.6 5322.1,212.7 5677.7,339.7 5974.1,551.4 
		6349.8,1027.7 6466.2,1572.8 6270.4,2229 5825.9,2956.6 5661.8,3229.1 5481.4,3267.8 5268.7,3267.8 5175,3372 5048,3372 
		4928.9,3319.1 4836.3,3245 4694.5,3239.7 4592.9,3266.2 4460,3192.1 3841.4,2054.3 3746.2,1408.7 3904.9,826.6 	"/>
	<path display="inline" fill="#B64A41" d="M3907,1234.1l-160.9,508l635.6,1252.1l211.1,272h288.9l224.4,105.8
		c0,0,92.1-163.5-512.3-743C4129.8,2184,3907,1234.1,3907,1234.1z"/>
	<path display="inline" fill="#EC6762" d="M5929.1,462l434.5,629.2l102.7,631.9L6270.4,2229c0,0,122.2-462.5-705.9-1290.7
		c-726.6-726.1-1094.4-567.8-1094.4-567.8l943.6-130.7L5929.1,462z"/>
	<circle display="inline" fill="#FDFDFD" cx="4481.2" cy="1260" r="476.3"/>
	<circle display="inline" fill="#FDFDFD" cx="5752.9" cy="1256.3" r="483.2"/>
	<g display="inline">
		<g>
			<path fill="#3B3A3A" d="M5111.5,1528.3c-42.3,99-105.3,185.2-185.2,254.5l17.5,28l186.8,323.9l186.8-323.9l4.8-7.9
				C5230.6,1731,5158.6,1636.8,5111.5,1528.3z"/>
			<path fill="#3B3A3A" d="M5111.5,1528.3c6.4-14.3,11.1-26.5,15.9-40.7h-31.2C5100.4,1500.3,5106.7,1514.6,5111.5,1528.3z"/>
		</g>
	</g>
	<path display="inline" fill="#3B3A3A" d="M6419.1,791.1l99-366.2l-366.2,99l-229.7,61.4c-55-14.3-111.7-22.2-171.5-22.2
		c-279.9,0-522.3,167.2-632.4,407c-109-239.7-351.4-407-632.9-407c-69.3,0-136.5,11.1-201.1,29.6l-260.9-68.8l-366.2-99l99,366.2
		l67.7,254.5c-22.2,66.1-32.8,136.5-32.8,210.6c0,383.7,311.2,694.8,694.8,694.8c173,0,331.8-64.6,454-169.9
		c75.7-65.1,137.6-146.1,178.3-238.1c46,101.6,117,190,203.2,258.8c118,92.6,267.2,149.2,429.2,149.2
		c383.7,0,694.8-311.2,694.8-694.8c0-108.5-25.4-210.6-69.3-301.6L6419.1,791.1z M4883.4,1486c-17.5,31.2-39.2,59.8-64.6,84.7
		c-83.1,87.8-201.1,142.9-331.8,142.9c-1.6,0-4.8,0-6.4,0s-4.8,0-6.4,0c-253,0-458.8-205.9-458.8-458.8S4221.3,796,4474.2,796
		c1.6,0,4.8,0,6.4,0s4.8,0,6.4,0c253,0,458.8,205.9,458.8,458.8C4944.8,1341.5,4922.6,1418.2,4883.4,1486z M5118.4,1003.4
		c0,0.5,0.5,1.1,0.5,1.6C5118.9,1004.4,5118.9,1003.9,5118.4,1003.4L5118.4,1003.4z M5751.3,1715.6c-119.6,0-228.1-45.5-309.6-119.6
		c-34.4-31.2-64.6-67.7-87.8-108.5c-39.2-67.7-61.4-146.1-61.4-229.7c0-253,205.9-458.8,458.8-458.8c253,0,458.8,205.9,458.8,458.8
		S6004.2,1715.6,5751.3,1715.6z"/>
	<path display="inline" fill="#3B3A3A" d="M6562,1541c0-808.1-657.3-1464.8-1464.8-1464.8S3632.4,732.9,3632.4,1541
		c0,214.9,49.2,467.8,147.1,655.1h-0.5l4.8,7.9c6.9,12.7,13.8,24.9,21.2,36.5l710.7,1244.1c0,0,427.1,77.3,580,77.3
		c135.5,0,573.1-77.3,573.1-77.3l704.4-1219.3l0,0C6503.3,2066.5,6562,1773.9,6562,1541z M5523.2,3267.8h-859.9L4036.7,2175l0,0
		c-90-172.5-168.8-429.2-168.8-634c0-677.4,551.9-1229.3,1229.3-1229.3S6326.5,863.6,6326.5,1541c0,204.8-75.1,447.7-165.1,620.7
		L5523.2,3267.8z"/>
	<g display="inline">
		<path fill="#ECE42D" d="M5615.8,3641.9c-41.3,0-80.4-12.2-112.7-34.4c-32.3,22.2-71.4,34.4-112.7,34.4
			c-111.1,0-201.1-90-201.1-201.1s90-201.1,201.1-201.1c41.3,0,80.4,12.2,112.7,34.4c32.3-22.2,71.4-34.4,112.7-34.4
			c111.1,0,201.1,90,201.1,201.1S5726.9,3641.9,5615.8,3641.9z"/>
		<g>
			<path fill="#3B3A3A" d="M5615.8,3319.1c67.2,0,121.7,54.5,121.7,121.7s-54.5,121.7-121.7,121.7c-50.8,0-94.7-31.2-112.7-76.2
				c-18,44.5-61.9,76.2-112.7,76.2c-67.2,0-121.7-54.5-121.7-121.7s54.5-121.7,121.7-121.7c50.8,0,94.7,31.2,112.7,76.2
				C5521.1,3350.3,5565,3319.1,5615.8,3319.1 M5615.8,3160.3c-39.7,0-77.8,8.5-112.7,23.3c-34.9-15.3-73-23.3-112.7-23.3
				c-154.5,0-280.5,125.9-280.5,280.5s125.9,280.5,280.5,280.5c39.7,0,77.8-8.5,112.7-23.3c34.9,15.3,73,23.3,112.7,23.3
				c154.5,0,280.5-125.9,280.5-280.5S5770.9,3160.3,5615.8,3160.3L5615.8,3160.3z"/>
		</g>
	</g>
	<g display="inline">
		<path fill="#ECE42D" d="M4807.2,3641.9c-41.3,0-80.4-12.2-112.7-34.4c-32.3,22.2-71.4,34.4-112.7,34.4
			c-111.1,0-201.1-90-201.1-201.1s90-201.1,201.1-201.1c41.3,0,80.4,12.2,112.7,34.4c32.3-22.2,71.4-34.4,112.7-34.4
			c111.1,0,201.1,90,201.1,201.1S4918.3,3641.9,4807.2,3641.9z"/>
		<g>
			<path fill="#3B3A3A" d="M4807.2,3319.1c67.2,0,121.7,54.5,121.7,121.7s-54.5,121.7-121.7,121.7c-50.8,0-94.7-31.2-112.7-76.2
				c-18,44.5-61.9,76.2-112.7,76.2c-67.2,0-121.7-54.5-121.7-121.7s54.5-121.7,121.7-121.7c50.8,0,94.7,31.2,112.7,76.2
				C4713,3350.3,4756.4,3319.1,4807.2,3319.1 M4807.2,3160.3c-39.7,0-77.8,8.5-112.7,23.3c-34.9-15.3-73-23.3-112.7-23.3
				c-154.5,0-280.5,125.9-280.5,280.5s125.9,280.5,280.5,280.5c39.7,0,77.8-8.5,112.7-23.3c34.9,15.3,73,23.3,112.7,23.3
				c154.5,0,280.5-125.9,280.5-280.5S4962.3,3160.3,4807.2,3160.3L4807.2,3160.3z"/>
		</g>
	</g>
	<circle display="inline" fill="#D85B4B" cx="4481.2" cy="1260" r="265.1"/>
	<circle display="inline" fill="#D85B4B" cx="5752.9" cy="1256.3" r="265.1"/>
	<circle display="inline" fill="#3B3A3A" cx="4481.2" cy="1260" r="108.5"/>
	<circle display="inline" fill="#FDFDFD" cx="4507.7" cy="1233.6" r="48.7"/>
	<circle display="inline" fill="#3B3A3A" cx="5752.9" cy="1256.3" r="108.5"/>
	<circle display="inline" fill="#FDFDFD" cx="5779.3" cy="1229.8" r="48.7"/>
</g>
<g id="Ebene_2" display="none">
	<circle display="inline" fill="#EC6762" cx="1024.5" cy="993.3" r="367.3"/>
	<circle display="inline" fill="#EC6762" cx="2005.1" cy="990.1" r="372.6"/>
	<path display="inline" fill="#3B3A3A" d="M2519,631.3l76.2-282.1l-282.6,76.2l-176.8,47.1c-42.3-11.1-86.3-16.9-132.3-16.9
		c-215.9,0-402.7,129.1-487.9,313.8c-84.1-185.2-270.9-313.8-487.9-313.8c-53.4,0-105.3,8.5-155.1,23.3l-201.1-53.4L389,349.3
		l76.7,282.1l51.9,196.3c-16.9,50.8-25.4,105.3-25.4,162.5c0,295.8,240.3,535.5,535.5,535.5c133.4,0,255.6-49.7,350.3-130.7
		c58.2-50.3,105.8-112.7,137.6-183.6c35.5,78.3,90,146.6,157.2,199.5c91,71.4,205.9,115.4,330.7,115.4
		c295.8,0,535.5-240.3,535.5-535.5c0-83.6-19.6-162.5-53.4-232.8L2519,631.3z M1334.6,1167.4c-13.2,24.3-30.2,46-49.7,65.6
		c-64,67.7-155.1,110.1-255.6,110.1c-1.1,0-3.7,0-4.8,0s-3.7,0-4.8,0c-195.3,0-354-158.8-354-354s158.8-354,354-354
		c1.1,0,3.7,0,4.8,0s3.7,0,4.8,0c195.3,0,354,158.8,354,354C1381.7,1055.7,1364.8,1115,1334.6,1167.4z M1515.6,794.8
		c0,0.5,0.5,1.1,0.5,1.6C1516.1,795.9,1516.1,795.4,1515.6,794.8L1515.6,794.8z M2003.5,1344.2c-92.1,0-175.7-34.9-238.7-92.1
		c-26.5-24.3-49.7-51.9-67.7-83.6c-30.2-51.9-47.1-112.7-47.1-176.8c0-195.3,158.8-354,354-354s354,158.8,354,354
		C2357.6,1187,2198.8,1344.2,2003.5,1344.2z"/>
	<rect x="572.6" y="933" display="inline" fill="#3B3A3A" width="857.3" height="138.6"/>
	<rect x="1542.1" y="933" display="inline" fill="#3B3A3A" width="857.3" height="138.6"/>
</g>
<path fill="#3B3A3A" d="M1672.8,1411.9c91,71.4,205.9,114.8,330.7,114.8c295.3,0,535-239.7,535-535c0-83.6-19.6-162.5-53.4-232.3
	l32.8-125.9l76.2-282.1L2312,427.6l-176.8,47.1c-42.3-11.1-85.7-16.9-131.8-16.9c-215.9,0-402.2,128.6-487.4,313.8
	c-84.1-184.7-270.4-313.8-487.4-313.8c-53.4,0-105.3,8.5-155.1,22.8l-201.1-53.4L390.3,351l76.2,282.1l51.9,196.3
	C501.5,880.2,493,934.7,493,991.9c0,295.3,239.7,535,535,535c129.7,0,248.7-47.1,342.4-124.4l10.1,16.4l143.9,249.3l143.9-249.3
	l3.7-5.8 M1334.6,1168.5c-13.2,24.3-30.2,46-49.7,65.6c-64,67.7-155.1,110.1-255.6,110.1c-1.1,0-3.7,0-4.8,0s-3.7,0-4.8,0
	c-194.7,0-353.5-158.8-353.5-353.5S825,637.1,1019.8,637.1c1.1,0,3.7,0,4.8,0s3.7,0,4.8,0c194.7,0,353.5,158.8,353.5,353.5
	C1382.3,1056.8,1365.3,1116.1,1334.6,1168.5z M2003,1345.2c-92.1,0-175.7-34.9-238.7-92.1c-26.5-24.3-49.7-51.9-67.7-83.6
	c-30.2-51.9-47.1-112.7-47.1-176.8c0-194.7,158.8-353.5,353.5-353.5s353.5,158.8,353.5,353.5C2357,1187.5,2198.3,1345.2,2003,1345.2
	z"/>
</svg>
