<?xml version="1.0" encoding="utf-8"?>
<!-- Generator: Adobe Illustrator 18.1.1, SVG Export Plug-In . SVG Version: 6.00 Build 0)  -->
<svg version="1.1" xmlns="http://www.w3.org/2000/svg" xmlns:xlink="http://www.w3.org/1999/xlink" x="0px" y="0px"
	 viewBox="0 0 566.9 566.9" enable-background="new 0 0 566.9 566.9" xml:space="preserve">
<g id="Ebene_1">
</g>
<g id="Apple">
	<g>
		<path fill="#D13834" d="M303.1,208c-12.9,3.2-26.3,3.2-39.2,0c-67-16.6-123.2-10.2-122.5,116.2c0.3,64.8,61,148.7,124.7,134.4
			c11.4-2.6,23.4-2.6,34.8,0c63.7,14.4,124.4-69.6,124.7-134.4C426.2,197.8,370.1,191.4,303.1,208z"/>
		<path fill="#F75B57" d="M172.5,291.9c-3.4,0-6.2-2.8-6.2-6.2c0-34.4,25.2-62.3,56.1-62.3c3.4,0,6.2,2.8,6.2,6.2
			c0,3.4-2.8,6.2-6.2,6.2c-24.1,0-43.6,22.4-43.6,49.9C178.7,289.1,175.9,291.9,172.5,291.9z"/>
		<path fill="#4C312C" d="M283,231.6c-3.3,0-6.1-2.7-6.2-6c-0.8-26.4-11-59.5-36.9-73.3c-3-1.6-4.2-5.4-2.6-8.4
			c1.6-3,5.4-4.2,8.4-2.6c30.6,16.3,42.5,54.1,43.5,83.9c0.1,3.4-2.6,6.3-6,6.4C283.2,231.6,283.1,231.6,283,231.6z"/>
		<path fill="#994530" d="M282.5,254c-10.5,0-20.3-4.1-27.7-11.5c-2.4-2.4-2.4-6.4,0-8.8c2.4-2.4,6.4-2.4,8.8,0
			c5.1,5.1,11.8,7.8,18.9,7.8c7.1,0,13.9-2.8,18.9-7.8c2.4-2.4,6.4-2.4,8.8,0c2.4,2.4,2.4,6.4,0,8.8
			C302.8,249.9,292.9,254,282.5,254z"/>
	</g>
</g>
</svg>
