<?xml version="1.0" encoding="utf-8"?>
<!-- Generator: Adobe Illustrator 20.1.0, SVG Export Plug-In . SVG Version: 6.00 Build 0)  -->
<svg version="1.1" xmlns="http://www.w3.org/2000/svg" xmlns:xlink="http://www.w3.org/1999/xlink" x="0px" y="0px"
	 viewBox="0 0 566.9 566.9" style="enable-background:new 0 0 566.9 566.9;" xml:space="preserve">
<style type="text/css">
	.st0{fill:#D13834;}
	.st1{fill:#F75B57;}
	.st2{fill:#4C312C;}
	.st3{fill:#994530;}
	.st4{fill:#88C057;}
	.st5{fill:#659C35;}
	.st6{fill:#A4E869;}
	.st7{fill:#003879;}
	.st8{fill:#1A49C1;}
	.st9{fill:#415CCE;}
	.st10{fill:#121C60;}
	.st11{fill:#0A1135;}
	.st12{fill:#3265D6;}
	.st13{fill:#447CE0;}
	.st14{fill:#1951A3;}
</style>
<g id="Ebene_1">
	<g id="Ebene_1_1_">
	</g>
	<g id="Apple">
		<g>
			<path class="st0" d="M383.1,158c-12.9,3.2-26.3,3.2-39.2,0c-67-16.6-123.2-10.2-122.5,116.2c0.3,64.8,61,148.7,124.7,134.4
				c11.4-2.6,23.4-2.6,34.8,0C444.6,423,505.3,339,505.6,274.2C506.2,147.8,450.1,141.4,383.1,158z"/>
			<path class="st1" d="M252.5,241.9c-3.4,0-6.2-2.8-6.2-6.2c0-34.4,25.2-62.3,56.1-62.3c3.4,0,6.2,2.8,6.2,6.2s-2.8,6.2-6.2,6.2
				c-24.1,0-43.6,22.4-43.6,49.9C258.7,239.1,255.9,241.9,252.5,241.9z"/>
			<path class="st2" d="M363,181.6c-3.3,0-6.1-2.7-6.2-6c-0.8-26.4-11-59.5-36.9-73.3c-3-1.6-4.2-5.4-2.6-8.4c1.6-3,5.4-4.2,8.4-2.6
				c30.6,16.3,42.5,54.1,43.5,83.9c0.1,3.4-2.6,6.3-6,6.4C363.2,181.6,363.1,181.6,363,181.6z"/>
			<path class="st3" d="M362.5,204c-10.5,0-20.3-4.1-27.7-11.5c-2.4-2.4-2.4-6.4,0-8.8c2.4-2.4,6.4-2.4,8.8,0
				c5.1,5.1,11.8,7.8,18.9,7.8s13.9-2.8,18.9-7.8c2.4-2.4,6.4-2.4,8.8,0s2.4,6.4,0,8.8C382.8,199.9,372.9,204,362.5,204z"/>
		</g>
	</g>
</g>
<g id="Lime">
	<g>
		<path class="st4" d="M334.3,399.6h-1.2c-7.3-45.7-47.6-80.7-96.4-80.7s-89.1,35-96.4,80.7h-1.2c-7.7,0-13.9,7.6-13.9,17
			c0,9.3,6.3,17,13.9,17h2c9,43.6,48.4,76.4,95.6,76.4s86.5-32.8,95.6-76.4h2c7.7,0,13.9-7.6,13.9-17
			C348.2,407.3,342,399.6,334.3,399.6z"/>
		<path class="st5" d="M125.3,416.6c0-9.3,6.3-17,13.9-17h1.2c7.3-45.7,47.6-80.7,96.4-80.7c1.8,0,3.6,0.1,5.4,0.2
			c-2.6-29.3-18.6-57.2-45.8-74.3c-41.3-25.8-94.1-17.6-124.5,17.3l-1-0.6c-6.5-4.1-15.9-0.9-20.8,7s-3.7,17.7,2.8,21.8l1.7,1
			C39,333.2,55,381.9,95,406.9c9.7,6.1,20,10.2,30.6,12.6C125.4,418.6,125.3,417.6,125.3,416.6z"/>
		<path class="st6" d="M295.4,395.6c-3.2,0-5.9-2.6-5.9-5.9c0-14.6-11.8-26.4-26.4-26.4c-3.2,0-5.9-2.6-5.9-5.9s2.6-5.9,5.9-5.9
			c21,0,38.1,17.1,38.1,38.1C301.3,393,298.7,395.6,295.4,395.6z"/>
		<path class="st6" d="M109.4,269.5c-1.1,0-2.3-0.3-3.3-1c-2.7-1.8-3.4-5.5-1.5-8.2c12.8-18.8,39.2-23.3,58.9-9.9
			c2.7,1.8,3.4,5.5,1.5,8.2c-1.8,2.7-5.5,3.4-8.2,1.5c-14.3-9.7-33.3-6.7-42.5,6.8C113.2,268.6,111.3,269.5,109.4,269.5z"/>
	</g>
</g>
<g id="Blueberries">
	<g>
		<path class="st7" d="M435.4,363.8c-22.2,0-40.2,18.8-40.2,42.1c0,6.9,1.6,13.4,4.5,19.2c4.4-1.7,9.2-2.7,14.2-2.7
			c15.6,0,29.1,9.3,35.8,22.9c15.2-6,26-21.3,26-39.3C475.6,382.6,457.6,363.8,435.4,363.8z"/>
		<path class="st8" d="M373.6,464.4c0-17.5,10.2-32.4,24.6-38.8c-2.7-20.5-19.5-36.2-39.8-36.2c-22.2,0-40.2,18.8-40.2,42.1
			s18,42.1,40.2,42.1c5.5,0,10.8-1.2,15.6-3.3C373.8,468.4,373.6,466.4,373.6,464.4z"/>
		<ellipse class="st9" cx="414.4" cy="464.4" rx="43.8" ry="45.8"/>
		<path class="st10" d="M401.2,454c-0.9,0-1.9-0.5-2.4-1.3c-0.9-1.4-0.6-3.3,0.7-4.3l8.4-6.1c3.3-2.4,7.8-2.2,10.9,0.6l6.4,5.7
			c1.2,1.1,1.4,3.1,0.3,4.4c-1.1,1.3-2.9,1.5-4.2,0.4l-6.4-5.7c-1-0.9-2.6-1-3.8-0.2l-8.4,6.1C402.4,453.8,401.8,454,401.2,454z"/>
		<path class="st10" d="M402.7,443h-7c-1.6,0-3-1.4-3-3.1s1.3-3.1,3-3.1h7c1.4,0,2.4-0.9,2.5-1.2l1.3-5.5c0.4-1.7,2-2.7,3.6-2.2
			c1.6,0.4,2.5,2.1,2.1,3.8l-1.3,5.5C410.1,440.5,406.5,443,402.7,443z"/>
		<path class="st10" d="M429.9,443c-0.1,0-0.2,0-0.3,0l-8.5-0.8c-3.9-0.4-7.1-3.2-7.4-6.6l-0.4-4.5c-0.1-1.7,1.1-3.2,2.7-3.3
			c1.7-0.2,3.1,1.1,3.2,2.8l0.4,4.5c0.1,0.2,0.8,0.9,2,1l8.5,0.8c1.6,0.2,2.8,1.6,2.7,3.3C432.7,441.8,431.5,443,429.9,443z"/>
		<path class="st10" d="M345.6,421.6c-0.9,0-1.9-0.5-2.4-1.3c-0.9-1.4-0.6-3.3,0.7-4.3l8.4-6.1c3.3-2.4,7.8-2.2,10.9,0.6l6.4,5.7
			c1.2,1.1,1.4,3.1,0.3,4.4s-2.9,1.5-4.2,0.4l-6.4-5.7c-1-0.9-2.6-1-3.8-0.2l-8.4,6.1C346.7,421.4,346.1,421.6,345.6,421.6z"/>
		<path class="st10" d="M347.1,410.6h-7c-1.6,0-3-1.4-3-3.1s1.3-3.1,3-3.1h7c1.4,0,2.4-0.9,2.5-1.2l1.3-5.5c0.4-1.7,2-2.7,3.6-2.2
			c1.6,0.4,2.5,2.1,2.1,3.8l-1.3,5.5C354.4,408,350.9,410.6,347.1,410.6z"/>
		<path class="st10" d="M374.3,410.6c-0.1,0-0.2,0-0.3,0l-8.5-0.8c-3.9-0.4-7.1-3.2-7.4-6.6l-0.4-4.5c-0.1-1.7,1.1-3.2,2.7-3.3
			c1.7-0.2,3.1,1.1,3.2,2.8l0.4,4.5c0.1,0.2,0.8,0.9,2,1l8.5,0.8c1.6,0.2,2.8,1.6,2.7,3.3C377.1,409.4,375.8,410.6,374.3,410.6z"/>
		<path class="st11" d="M422.3,395.3c-0.9,0-1.9-0.5-2.4-1.3c-0.9-1.4-0.6-3.3,0.7-4.3l8.4-6.1c3.3-2.4,7.8-2.2,10.9,0.6l6.4,5.7
			c1.2,1.1,1.4,3.1,0.3,4.4c-1.1,1.3-2.9,1.5-4.2,0.4l-6.4-5.7c-1-0.9-2.6-1-3.8-0.2l-8.4,6.1C423.5,395.1,422.9,395.3,422.3,395.3z
			"/>
		<path class="st11" d="M423.8,384.3h-7c-1.6,0-3-1.4-3-3.1s1.3-3.1,3-3.1h7c1.4,0,2.4-0.9,2.5-1.2l1.3-5.5c0.4-1.7,2-2.7,3.6-2.2
			c1.6,0.4,2.5,2.1,2.1,3.8l-1.3,5.5C431.2,381.8,427.7,384.3,423.8,384.3z"/>
		<path class="st11" d="M451.1,384.3c-0.1,0-0.2,0-0.3,0l-8.5-0.8c-3.9-0.4-7.1-3.2-7.4-6.6l-0.4-4.5c-0.1-1.7,1.1-3.2,2.7-3.3
			c1.7-0.2,3.1,1.1,3.2,2.8l0.4,4.5c0.1,0.2,0.8,0.9,2,1l8.5,0.8c1.6,0.2,2.8,1.6,2.7,3.3C453.9,383.1,452.6,384.3,451.1,384.3z"/>
		<path class="st12" d="M339,454c-0.5,0-1-0.1-1.5-0.4c-12.5-7.8-10.7-28.2-10.6-29.1c0.2-1.7,1.6-2.9,3.2-2.8
			c1.6,0.2,2.8,1.7,2.6,3.4c0,0.2-1.5,17.3,7.8,23.1c1.4,0.9,1.9,2.8,1,4.2C340.9,453.5,340,454,339,454z"/>
		<path class="st13" d="M390.1,488.5c-0.5,0-1-0.1-1.5-0.4c-12.5-7.8-10.7-28.2-10.6-29.1c0.2-1.7,1.6-2.9,3.2-2.8
			c1.6,0.2,2.8,1.7,2.6,3.4c0,0.2-1.5,17.3,7.8,23.1c1.4,0.9,1.9,2.8,1,4.2C392.1,487.9,391.1,488.5,390.1,488.5z"/>
		<path class="st14" d="M406,417.6c-1,0-1.9-0.5-2.5-1.4c-8.1-12.7,2-30.3,2.4-31c0.9-1.5,2.7-1.9,4.1-1c1.4,0.9,1.8,2.8,1,4.2
			c-0.1,0.1-8.5,14.9-2.5,24.4c0.9,1.4,0.5,3.3-0.8,4.3C407.2,417.4,406.6,417.6,406,417.6z"/>
	</g>
</g>
</svg>
