<?xml version="1.0" encoding="utf-8"?>
<!-- Generator: Adobe Illustrator 20.1.0, SVG Export Plug-In . SVG Version: 6.00 Build 0)  -->
<svg version="1.1" xmlns="http://www.w3.org/2000/svg" xmlns:xlink="http://www.w3.org/1999/xlink" x="0px" y="0px"
	 viewBox="0 0 566.9 566.9" style="enable-background:new 0 0 566.9 566.9;" xml:space="preserve">
<style type="text/css">
	.st0{fill:#003879;}
	.st1{fill:#1A49C1;}
	.st2{fill:#415CCE;}
	.st3{fill:#121C60;}
	.st4{fill:#0A1135;}
	.st5{fill:#3265D6;}
	.st6{fill:#447CE0;}
	.st7{fill:#1951A3;}
</style>
<g id="Ebene_1">
	<g id="Ebene_1_1_">
	</g>
</g>
<g id="Lime">
</g>
<g id="Blueberries">
</g>
<g id="Blueberries_1_">
	<g>
		<path class="st0" d="M356.3,149.7c-42.5,0-77,34.5-77,77c0,12.7,3.1,24.6,8.5,35.2c8.5-3.2,17.6-5,27.2-5
			c29.8,0,55.7,17,68.5,41.8c29.1-11,49.8-39,49.8-72C433.3,184.2,398.8,149.7,356.3,149.7z"/>
		<path class="st1" d="M238,333.8c0-31.9,19.5-59.3,47.2-71c-5.2-37.4-37.3-66.3-76.2-66.3c-42.5,0-77,34.5-77,77s34.5,77,77,77
			c10.6,0,20.7-2.1,29.8-6C238.3,341,238,337.5,238,333.8z"/>
		<circle class="st2" cx="316.1" cy="333.8" r="83.8"/>
		<path class="st3" d="M290.8,314.7c-1.8,0-3.6-0.8-4.7-2.4c-1.8-2.6-1.1-6.1,1.4-7.9l16.1-11.1c6.4-4.4,15-4,20.9,1.1l12.2,10.4
			c2.4,2,2.7,5.6,0.6,8c-2,2.4-5.6,2.7-8,0.6L317.3,303c-2-1.7-5-1.9-7.2-0.4L294,313.7C293.1,314.4,292,314.7,290.8,314.7z"/>
		<path class="st3" d="M293.7,294.6h-13.3c-3.1,0-5.7-2.5-5.7-5.7c0-3.1,2.5-5.7,5.7-5.7h13.3c2.7,0,4.6-1.6,4.7-2.2L301,271
			c0.8-3,3.8-4.9,6.9-4.1c3,0.8,4.9,3.8,4.1,6.9l-2.5,10.1C307.8,290,301.1,294.6,293.7,294.6z"/>
		<path class="st3" d="M345.9,294.6c-0.2,0-0.3,0-0.5,0l-16.4-1.4c-7.5-0.7-13.6-5.9-14.1-12.1l-0.7-8.2c-0.3-3.1,2-5.9,5.1-6.1
			c3.2-0.3,5.9,2,6.1,5.1l0.7,8.2c0.1,0.4,1.5,1.7,3.9,1.9l16.4,1.4c3.1,0.3,5.4,3,5.1,6.1C351.3,292.4,348.8,294.6,345.9,294.6z"/>
		<path class="st3" d="M184.4,255.4c-1.8,0-3.6-0.8-4.7-2.4c-1.8-2.6-1.1-6.1,1.4-7.9l16.1-11.1c6.4-4.4,15-4,20.9,1.1l12.2,10.4
			c2.4,2,2.7,5.6,0.7,8s-5.6,2.7-8,0.7l-12.2-10.4c-2-1.7-5-1.9-7.2-0.4l-16.1,11.1C186.6,255,185.5,255.4,184.4,255.4z"/>
		<path class="st3" d="M187.2,235.3h-13.3c-3.1,0-5.7-2.5-5.7-5.7c0-3.1,2.5-5.7,5.7-5.7h13.3c2.7,0,4.6-1.6,4.7-2.2l2.5-10.1
			c0.8-3,3.8-4.9,6.9-4.1c3,0.8,4.9,3.8,4.1,6.9l-2.5,10.1C201.3,230.6,194.6,235.3,187.2,235.3z"/>
		<path class="st3" d="M239.4,235.3c-0.2,0-0.3,0-0.5,0l-16.4-1.4c-7.5-0.7-13.6-5.9-14.1-12.1l-0.7-8.2c-0.3-3.1,2-5.9,5.1-6.1
			c3.2-0.3,5.9,2,6.1,5.1l0.7,8.2c0.1,0.4,1.5,1.7,3.9,1.9l16.4,1.4c3.1,0.3,5.4,3,5.1,6.1C244.8,233.1,242.3,235.3,239.4,235.3z"/>
		<path class="st4" d="M331.3,207.3c-1.8,0-3.6-0.8-4.7-2.4c-1.8-2.6-1.1-6.1,1.4-7.9l16.1-11.1c6.4-4.4,15-4,20.9,1.1l12.2,10.4
			c2.4,2,2.7,5.6,0.6,8c-2,2.4-5.6,2.7-8,0.7l-12.2-10.4c-2-1.7-5-1.9-7.2-0.4l-16.1,11.1C333.5,207,332.4,207.3,331.3,207.3z"/>
		<path class="st4" d="M334.2,187.2h-13.3c-3.1,0-5.7-2.5-5.7-5.7c0-3.1,2.5-5.7,5.7-5.7h13.3c2.7,0,4.6-1.6,4.7-2.2l2.5-10.1
			c0.8-3,3.8-4.9,6.9-4.1c3,0.8,4.9,3.8,4.1,6.9l-2.5,10.1C348.3,182.6,341.6,187.2,334.2,187.2z"/>
		<path class="st4" d="M386.4,187.2c-0.2,0-0.3,0-0.5,0l-16.4-1.4c-7.5-0.7-13.6-5.9-14.1-12.1l-0.7-8.2c-0.3-3.1,2-5.9,5.1-6.1
			c3.2-0.3,5.9,2,6.1,5.1l0.7,8.2c0.1,0.4,1.5,1.7,3.9,1.9l16.4,1.4c3.1,0.3,5.4,3,5.1,6.1C391.7,185,389.3,187.2,386.4,187.2z"/>
		<path class="st5" d="M171.7,314.7c-1,0-2-0.3-2.9-0.8c-24-14.4-20.5-51.6-20.4-53.2c0.3-3.1,3.1-5.3,6.2-5.1
			c3.1,0.3,5.4,3.1,5.1,6.2c0,0.3-2.9,31.7,14.9,42.3c2.7,1.6,3.5,5.1,2,7.8C175.5,313.8,173.6,314.7,171.7,314.7z"/>
		<path class="st6" d="M269.6,377.8c-1,0-2-0.3-2.9-0.8c-24-14.4-20.5-51.6-20.4-53.2c0.3-3.1,3.1-5.3,6.2-5.1
			c3.1,0.3,5.4,3.1,5.1,6.2c0,0.3-2.9,31.7,14.9,42.3c2.7,1.6,3.5,5.1,2,7.8C273.4,376.8,271.6,377.8,269.6,377.8z"/>
		<path class="st7" d="M300.1,248.1c-1.8,0-3.6-0.9-4.7-2.5c-15.4-23.3,3.8-55.4,4.6-56.7c1.6-2.7,5.1-3.5,7.8-1.9
			c2.7,1.6,3.5,5.1,1.9,7.8c-0.2,0.3-16.3,27.3-4.8,44.6c1.7,2.6,1,6.1-1.6,7.8C302.3,247.8,301.2,248.1,300.1,248.1z"/>
	</g>
</g>
</svg>
