<?xml version="1.0" encoding="utf-8"?>
<!-- Generator: Adobe Illustrator 18.1.1, SVG Export Plug-In . SVG Version: 6.00 Build 0)  -->
<svg version="1.1" xmlns="http://www.w3.org/2000/svg" xmlns:xlink="http://www.w3.org/1999/xlink" x="0px" y="0px"
	 viewBox="0 0 566.9 566.9" enable-background="new 0 0 566.9 566.9" xml:space="preserve">
<g id="Ebene_1">
</g>
<g id="Lime">
	<g>
		<path fill="#88C057" d="M403.7,296.2h-1.3c-8-50.2-52.4-88.7-105.9-88.7s-97.9,38.4-105.9,88.7h-1.3c-8.4,0-15.3,8.4-15.3,18.7
			s6.9,18.7,15.3,18.7h2.1c9.9,47.9,53.2,84,105,84s95.1-36.1,105-84h2.1c8.4,0,15.3-8.4,15.3-18.7S412.1,296.2,403.7,296.2z"/>
		<path fill="#659C35" d="M174,314.9c0-10.3,6.9-18.7,15.3-18.7h1.3c8-50.2,52.4-88.7,105.9-88.7c2,0,4,0.2,5.9,0.3
			c-2.9-32.2-20.5-62.9-50.4-81.6c-45.4-28.4-103.4-19.3-136.8,19l-1.1-0.7c-7.1-4.5-17.4-1-22.9,7.7c-5.4,8.7-4.1,19.5,3.1,23.9
			l1.8,1.1c-17,45.9,0.5,99.4,44.5,126.9c10.7,6.7,22,11.2,33.6,13.9C174.1,317,174,316,174,314.9z"/>
		<path fill="#A4E869" d="M361,291.8c-3.6,0-6.4-2.9-6.4-6.4c0-16-13-29-29-29c-3.6,0-6.4-2.9-6.4-6.4s2.9-6.4,6.4-6.4
			c23.1,0,41.9,18.8,41.9,41.9C367.4,288.9,364.5,291.8,361,291.8z"/>
		<path fill="#A4E869" d="M156.6,153.2c-1.3,0-2.5-0.4-3.6-1.1c-2.9-2-3.7-6-1.7-9c14.1-20.7,43.1-25.6,64.7-10.9c2.9,2,3.7,6,1.7,9
			c-2,2.9-6,3.7-9,1.7c-15.7-10.7-36.6-7.3-46.8,7.5C160.7,152.2,158.6,153.2,156.6,153.2z"/>
	</g>
</g>
<g id="Banana">
	<g>
		<g>
			<path fill="#F9E280" d="M459.8,149.6c-1.1-2.1-2.2-4.3-3.5-6.4c-4.6-7.8-9.8-14.9-15.5-21.6c15.7,65.2-11.5,133.7-51.9,178.3
				C307.4,390.2,229.9,420.8,175.4,426c-13,5.3-26.2,9.5-40.6,12.9c-0.6,0.1-1.2,0.2-1.9,0.3c7.4,1.1,16.3,2,26.8,2
				c52,0,140.1-20.7,240.1-131.3C436.7,269.1,463.2,209.7,459.8,149.6z"/>
			<path fill="#F9E280" d="M111.1,432.4l-0.6,1.4c0.5,0.2,2.1,0.8,4.5,1.5C113.7,434.4,112.3,433.4,111.1,432.4z"/>
		</g>
		<g>
			<path fill="#F9D70B" d="M134.8,438.9c3.6-0.8,7.2-1.7,10.7-2.7C141.9,437.1,138.4,438,134.8,438.9z"/>
			<path fill="#E8C52E" d="M439.6,119.9l-22.7-36.2l-16.1,10.6l19.3,37c1.6,5.1,4,10.6,4,15.5c0.5,77.5-62,158.1-152,221.8
				c-37,26.2-65.4,44.4-95.2,56.7c-0.5,0.2-0.9,0.4-1.4,0.6c0,0,0,0,0,0c54.5-5.2,132-35.8,213.6-126.1
				c40.4-44.7,67.6-113.1,51.9-178.3C440.4,121.1,440,120.5,439.6,119.9z"/>
			<path fill="#F9D70B" d="M154.5,433.5c0.4-0.1,0.8-0.2,1.1-0.3C155.3,433.3,154.9,433.4,154.5,433.5z"/>
			<path fill="#F9D70B" d="M459.6,149.1c0.1,0.2,0.2,0.3,0.3,0.5c3.4,60.1-23.1,119.5-60,160.2c-100,110.6-188.2,131.3-240.1,131.3
				c-10.5,0-19.5-0.9-26.8-2c0.6-0.1,1.2-0.1,1.9-0.3c-7.9,1.8-14.4-0.3-19.7-3.6c-2.5-0.7-4.1-1.3-4.5-1.5l0.6-1.4
				c-6.6-5.4-10.9-11.8-13.6-11.9c-5.3-0.1-8.8,10.9-9.2,18.6c63.6,67.3,159.7,52,260.4-7C460.2,366.8,508.6,241.4,459.6,149.1
				L459.6,149.1z"/>
		</g>
		<path fill="#B58C30" d="M431.5,144.6l11.8-2.8c5.2-1.2,7.4-7.4,4.3-11.7c-2.4-3.4-5-6.6-7.7-9.8c-0.2-0.2-0.4-0.5-0.5-0.7
			l-18.4-29.4c-2.2-3.5-6.9-4.6-10.4-2.3l-4.2,2.7c-3.2,2.1-4.3,6.3-2.5,9.6l15.9,30.6c0.2,0.4,0.3,0.7,0.5,1.1
			c0.8,2.5,1.7,5,2.4,7.5C423.8,143.2,427.7,145.5,431.5,144.6z"/>
	</g>
</g>
</svg>
