<?xml version="1.0" encoding="utf-8"?>
<!-- Generator: Adobe Illustrator 20.1.0, SVG Export Plug-In . SVG Version: 6.00 Build 0)  -->
<svg version="1.1" xmlns="http://www.w3.org/2000/svg" xmlns:xlink="http://www.w3.org/1999/xlink" x="0px" y="0px"
	 viewBox="0 0 566.9 566.9" style="enable-background:new 0 0 566.9 566.9;" xml:space="preserve">
<style type="text/css">
	.st0{fill:#88C057;}
	.st1{fill:#659C35;}
	.st2{fill:#A4E869;}
</style>
<g id="Ebene_1">
	<g id="Ebene_1_1_">
	</g>
</g>
<g id="Lime">
	<g>
		<path class="st0" d="M523.4,344.2h-1.9c-11.8-74.3-77.4-131.1-156.5-131.1s-144.7,56.8-156.5,131.1h-1.9
			c-12.4,0-22.6,12.4-22.6,27.6c0,15.2,10.2,27.6,22.6,27.6h3.2c14.7,70.8,78.6,124.2,155.3,124.2s140.6-53.3,155.3-124.2h3.2
			c12.4,0,22.6-12.4,22.6-27.6C546,356.6,535.8,344.2,523.4,344.2z"/>
		<path class="st1" d="M183.8,371.8c0-15.2,10.2-27.6,22.6-27.6h1.9c11.8-74.3,77.4-131.1,156.5-131.1c3,0,5.8,0.2,8.8,0.4
			c-4.3-47.6-30.3-93-74.5-120.7c-67.1-42-152.8-28.6-202.2,28.1l-1.6-1c-10.6-6.6-25.8-1.5-33.8,11.4s-6,28.8,4.6,35.4l2.7,1.7
			c-25.1,67.9,0.8,147,65.8,187.7c15.8,9.9,32.6,16.6,49.7,20.5C184,375,183.8,373.4,183.8,371.8z"/>
		<path class="st2" d="M460.2,337.7c-5.3,0-9.5-4.3-9.5-9.5c0-23.6-19.2-42.9-42.9-42.9c-5.3,0-9.5-4.3-9.5-9.5s4.3-9.5,9.5-9.5
			c34.2,0,62,27.8,62,62C469.7,333.4,465.5,337.7,460.2,337.7z"/>
		<path class="st2" d="M158,132.8c-1.8,0-3.7-0.5-5.4-1.7c-4.3-3-5.5-8.9-2.5-13.2c20.9-30.6,63.8-37.8,95.6-16.1
			c4.3,3,5.5,8.9,2.5,13.2c-3,4.3-8.9,5.5-13.2,2.5c-23.2-15.8-54.2-10.8-69.1,11.1C164.1,131.3,161.1,132.8,158,132.8z"/>
	</g>
</g>
<g id="Blueberries">
</g>
</svg>
